STARTFONT 2.1
COMMENT
COMMENT Converted from OpenType font "OpenSans-Italic.ttf" by "otf2bdf 3.0".
COMMENT
FONT -FreeType-Open Sans-Medium-I-Normal--50-360-100-100-P-256-ISO10646-1
SIZE 36 100 100
FONTBOUNDINGBOX 85 66 -24 -13
STARTPROPERTIES 19
FOUNDRY "FreeType"
FAMILY_NAME "Open Sans"
WEIGHT_NAME "Medium"
SLANT "I"
SETWIDTH_NAME "Normal"
ADD_STYLE_NAME ""
PIXEL_SIZE 50
POINT_SIZE 360
RESOLUTION_X 100
RESOLUTION_Y 100
SPACING "P"
AVERAGE_WIDTH 256
CHARSET_REGISTRY "ISO10646"
CHARSET_ENCODING "1"
FONT_ASCENT 53
FONT_DESCENT 14
COPYRIGHT "Copyright 2020 The Open Sans Project Authors (https://github.com/googlefonts/opensans)"
_OTF_FONTFILE "OpenSans-Italic.ttf"
_OTF_PSNAME "OpenSans-Italic"
ENDPROPERTIES
CHARS 1010
STARTCHAR 0000
ENCODING 0
SWIDTH 0 0
DWIDTH 0 0
BBX 0 0 0 0
BITMAP
ENDCHAR
STARTCHAR 000D
ENCODING 13
SWIDTH 240 0
DWIDTH 12 0
BBX 0 0 0 0
BITMAP
ENDCHAR
STARTCHAR 0020
ENCODING 32
SWIDTH 240 0
DWIDTH 12 0
BBX 0 0 0 0
BITMAP
ENDCHAR
STARTCHAR 0021
ENCODING 33
SWIDTH 240 0
DWIDTH 12 0
BBX 12 37 1 -1
BITMAP
01F0
01F0
01F0
01F0
01E0
01E0
03E0
03E0
03C0
03C0
03C0
07C0
0780
0780
0780
0780
0780
0F00
0F00
0F00
0F00
0E00
1E00
1E00
1E00
1C00
0000
0000
0000
0000
1800
7C00
FC00
FC00
FC00
F800
6000
ENDCHAR
STARTCHAR 0022
ENCODING 34
SWIDTH 380 0
DWIDTH 19 0
BBX 14 13 6 23
BITMAP
7C3C
783C
787C
7878
7878
7078
F070
F070
E070
E0F0
E0E0
E0E0
C0E0
ENDCHAR
STARTCHAR 0023
ENCODING 35
SWIDTH 640 0
DWIDTH 32 0
BBX 30 36 2 0
BITMAP
000700E0
000700E0
000F01E0
000F01C0
000E01C0
000E03C0
001E0380
001C0380
001C0380
003C0780
003C0700
1FFFFFFC
1FFFFFFC
1FFFFFFC
00700E00
00701E00
00F01C00
00E01C00
00E01C00
00E03C00
01E03800
01C03800
FFFFFFF0
FFFFFFF0
FFFFFFE0
03807000
0380F000
0780E000
0700E000
0701E000
0F01C000
0E01C000
0E01C000
0E03C000
1E038000
1C038000
ENDCHAR
STARTCHAR 0024
ENCODING 36
SWIDTH 540 0
DWIDTH 27 0
BBX 24 41 2 -3
BITMAP
0001C0
0001C0
0001C0
000380
0007C0
007FFE
00FFFF
03FFFF
07E70E
078700
0F0700
0F0700
0F0F00
0F0E00
0F0E00
0F8E00
07CE00
07FE00
03FC00
01FF00
007FC0
001FE0
003BF0
0038F8
003878
003878
003878
007078
007078
0070F8
8071F0
F0E7E0
FFFFC0
FFFF80
3FFE00
01E000
01C000
01C000
01C000
01C000
01C000
ENDCHAR
STARTCHAR 0025
ENCODING 37
SWIDTH 780 0
DWIDTH 39 0
BBX 33 36 4 -1
BITMAP
03F8000F00
07FC001E00
0FFC001C00
1E1E003800
3C0E007800
3C0E00F000
780E00E000
780E01C000
700E03C000
700E078000
F01E070000
F01E0F0000
F01C1E0000
E01C3C0000
E03C387C00
E03C79FF00
E038F3FF00
F079E7C780
70F1C78380
7FE3CF0380
3FC78E0380
1F8F1E0380
000E1E0380
001E1C0380
003C1C0380
00781C0380
00703C0780
00F03C0780
01E03C0700
03C03C0F00
03803C0E00
07803C1E00
0F001C1C00
0E001FFC00
1C000FF800
3C0007F000
ENDCHAR
STARTCHAR 0026
ENCODING 38
SWIDTH 660 0
DWIDTH 33 0
BBX 30 36 2 0
BITMAP
000FF000
003FFC00
007FFE00
00FC3E00
00F01F00
01E00F00
01E00F00
01E00F00
01E00F00
01E00F00
01E01E00
01E03E00
01F0FC00
00F1F800
00FFE000
007F8000
007E0000
01FE0000
07FE0000
0FCF003C
1F0F803C
3E07C078
7C03C0F8
7803E0F0
F001F1E0
F000F3E0
F0007FC0
F0007F80
F0003F00
F0003E00
F0007F00
F801FF80
7E07F7C0
7FFFC3C0
1FFF83E0
0FFE01F0
ENDCHAR
STARTCHAR 0027
ENCODING 39
SWIDTH 200 0
DWIDTH 10 0
BBX 6 13 6 23
BITMAP
7C
78
78
78
78
70
F0
F0
E0
E0
E0
E0
C0
ENDCHAR
STARTCHAR 0028
ENCODING 40
SWIDTH 280 0
DWIDTH 14 0
BBX 16 44 2 -8
BITMAP
000F
001E
003C
0078
0078
00F0
01E0
03C0
03C0
0780
0780
0F00
0F00
1E00
1E00
3C00
3C00
3C00
7800
7800
7800
7800
F000
F000
F000
F000
F000
F000
F000
F000
F000
F000
F000
F000
F000
F000
7000
7800
7800
3800
3800
3C00
1C00
1E00
ENDCHAR
STARTCHAR 0029
ENCODING 41
SWIDTH 280 0
DWIDTH 14 0
BBX 15 44 -3 -8
BITMAP
0070
0070
0078
0038
003C
003C
001C
001C
001E
001E
001E
001E
001E
001E
001E
001E
001E
001E
001E
001E
001E
001E
001E
003C
003C
003C
003C
0078
0078
0078
00F0
00F0
01E0
01E0
03C0
03C0
0780
0F00
0F00
1E00
3C00
7800
F000
E000
ENDCHAR
STARTCHAR 002A
ENCODING 42
SWIDTH 540 0
DWIDTH 27 0
BBX 23 23 5 15
BITMAP
000E00
001E00
001E00
001E00
001E00
601C00
781C00
7E1C00
FF1800
1FD802
03FFFE
007FFE
00F9FE
01FC00
03DC00
078E00
0F0E00
1E0F00
3E0F00
1C0780
080780
0007C0
000200
ENDCHAR
STARTCHAR 002B
ENCODING 43
SWIDTH 560 0
DWIDTH 28 0
BBX 23 24 4 6
BITMAP
003800
003800
003800
003800
003800
003800
003800
003800
003800
003800
003800
FFFFFE
FFFFFE
FFFFFE
003800
003800
003800
003800
003800
003800
003800
003800
003800
003800
ENDCHAR
STARTCHAR 002C
ENCODING 44
SWIDTH 240 0
DWIDTH 12 0
BBX 9 12 -2 -6
BITMAP
0780
0F80
0F80
0F00
1F00
1E00
3E00
3C00
3800
7800
7000
F000
ENDCHAR
STARTCHAR 002D
ENCODING 45
SWIDTH 300 0
DWIDTH 15 0
BBX 12 3 2 12
BITMAP
FFF0
FFF0
FFE0
ENDCHAR
STARTCHAR 002E
ENCODING 46
SWIDTH 240 0
DWIDTH 12 0
BBX 6 7 1 -1
BITMAP
18
7C
FC
FC
FC
F8
60
ENDCHAR
STARTCHAR 002F
ENCODING 47
SWIDTH 340 0
DWIDTH 17 0
BBX 24 36 -2 0
BITMAP
00000F
00001E
00003E
00003C
000078
000078
0000F0
0000F0
0001E0
0003E0
0003C0
0007C0
000780
000F00
000F00
001E00
001E00
003C00
007C00
007800
00F800
00F000
01E000
01E000
03C000
03C000
078000
0F8000
0F0000
1F0000
1E0000
3C0000
3C0000
780000
780000
F00000
ENDCHAR
STARTCHAR 0030
ENCODING 48
SWIDTH 540 0
DWIDTH 27 0
BBX 24 36 3 0
BITMAP
001FE0
007FF0
01FFF8
03F8FC
03E03E
07C03E
0F801E
0F001E
1F001F
1E001F
3E001F
3C001F
3C001F
7C001F
78001F
78001E
78001E
F8001E
F8001E
F0001E
F0003E
F0003E
F0003C
F0003C
F0007C
F00078
F00078
F000F8
F000F0
F801F0
7803E0
7C07C0
3E0F80
3FFF00
1FFE00
07F800
ENDCHAR
STARTCHAR 0031
ENCODING 49
SWIDTH 540 0
DWIDTH 27 0
BBX 15 36 7 0
BITMAP
001E
003E
00FE
03FC
07FC
1FFC
3F3C
FE78
7878
3078
0078
00F8
00F0
00F0
00F0
00F0
01F0
01E0
01E0
01E0
01E0
03C0
03C0
03C0
03C0
07C0
0780
0780
0780
0780
0F80
0F00
0F00
0F00
0F00
1E00
ENDCHAR
STARTCHAR 0032
ENCODING 50
SWIDTH 540 0
DWIDTH 27 0
BBX 26 36 0 0
BITMAP
0007F800
003FFE00
00FFFF00
01FE3F80
00F00FC0
00C007C0
000003C0
000003C0
000003C0
000003C0
000003C0
000003C0
00000780
00000780
00000F00
00001F00
00003E00
00007C00
0000F800
0001F000
0003E000
0007C000
000F8000
001F0000
003E0000
007C0000
00F80000
03F00000
07C00000
0F800000
1F000000
3E000000
7FFFFE00
7FFFFE00
7FFFFC00
FFFFFC00
ENDCHAR
STARTCHAR 0033
ENCODING 51
SWIDTH 540 0
DWIDTH 27 0
BBX 25 36 1 0
BITMAP
001FF000
007FFC00
01FFFE00
03F83F00
03E00F80
01800F80
00000780
00000780
00000780
00000780
00000780
00000F80
00000F00
00001E00
00007C00
0001F800
00FFF000
00FF0000
00FFC000
0007F000
0000F800
00007C00
00003C00
00003C00
00003C00
00003E00
00003C00
00003C00
00003C00
00007C00
00007800
C001F800
F807F000
FFFFE000
FFFFC000
1FFF0000
ENDCHAR
STARTCHAR 0034
ENCODING 52
SWIDTH 540 0
DWIDTH 27 0
BBX 27 36 0 0
BITMAP
000007C0
00000FC0
00000FC0
00001F80
00003F80
00007B80
0000F780
0001E780
0003E700
0003CF00
00078F00
000F0F00
001E0F00
003C1E00
007C1E00
00F81E00
00F01E00
01E01E00
03C03C00
07803C00
0F003C00
1F003C00
3E003C00
3C007800
7FFFFFE0
7FFFFFC0
7FFFFFC0
FFFFFFC0
0000F000
0000F000
0000F000
0000F000
0001E000
0001E000
0001E000
0001E000
ENDCHAR
STARTCHAR 0035
ENCODING 53
SWIDTH 540 0
DWIDTH 27 0
BBX 25 36 2 0
BITMAP
00FFFF80
00FFFF80
00FFFF00
01FFFF00
01E00000
01E00000
01C00000
03C00000
03C00000
03C00000
07800000
07800000
07800000
07000000
0F7E0000
0FFFC000
0FFFE000
0FEFF000
0001F800
0000F800
00007C00
00003C00
00003C00
00003C00
00003C00
00003C00
00003C00
00007C00
00007800
0000F800
0000F000
C003F000
F00FE000
FFFFC000
FFFF8000
3FFC0000
ENDCHAR
STARTCHAR 0036
ENCODING 54
SWIDTH 540 0
DWIDTH 27 0
BBX 24 36 3 0
BITMAP
0003FF
000FFF
003FFF
007F83
00FC00
01F000
03E000
07C000
078000
0F0000
0F0000
1E0000
1E0000
3C0000
3C3FC0
3CFFE0
79FFF0
7BC1F8
7F0078
7E007C
7C003C
F8003C
F8003C
F0003C
F0003C
F0003C
F00078
F00078
F00078
7800F0
7801F0
7C03E0
3E07E0
3FFFC0
1FFF00
07FE00
ENDCHAR
STARTCHAR 0037
ENCODING 55
SWIDTH 540 0
DWIDTH 27 0
BBX 23 36 5 0
BITMAP
7FFFFE
7FFFFE
7FFFFE
7FFFFC
00003C
000078
000078
0000F0
0001F0
0001E0
0003C0
0003C0
000780
000F80
000F00
001F00
001E00
003C00
007C00
007800
00F800
00F000
01E000
01E000
03C000
07C000
078000
0F8000
0F0000
1E0000
3E0000
3C0000
7C0000
780000
F80000
F00000
ENDCHAR
STARTCHAR 0038
ENCODING 56
SWIDTH 540 0
DWIDTH 27 0
BBX 25 36 2 0
BITMAP
000FF000
003FFC00
00FFFE00
01FC3F00
01F00F00
03E00F80
03C00780
03C00780
03C00780
03C00780
03C00F80
03C00F00
03C01F00
01E03E00
01F0FC00
00FFF000
007FE000
00FF8000
03FFC000
07E3E000
1F81F000
3E00F800
3C007C00
78003C00
78003C00
F8003C00
F8003C00
F0003C00
F8003C00
F8007C00
78007800
7C00F800
3F03F000
3FFFE000
1FFFC000
07FF0000
ENDCHAR
STARTCHAR 0039
ENCODING 57
SWIDTH 540 0
DWIDTH 27 0
BBX 24 36 2 0
BITMAP
001FE0
007FF0
01FFFC
03F8FC
07C03E
07801E
0F001F
0F000F
1E000F
1E000F
1E000F
1E000F
3C000F
3C000F
3E001F
1E001F
1E003F
1F007E
1F80FE
0FFFDE
07FF9E
03FF3C
00783C
00003C
00007C
000078
0000F8
0000F0
0001F0
0003E0
0007C0
000FC0
E03F80
FFFF00
FFFC00
FFF000
ENDCHAR
STARTCHAR 003A
ENCODING 58
SWIDTH 240 0
DWIDTH 12 0
BBX 10 28 1 -1
BITMAP
07C0
07C0
0FC0
0FC0
0F80
0700
0000
0000
0000
0000
0000
0000
0000
0000
0000
0000
0000
0000
0000
0000
0000
1800
7C00
FC00
FC00
FC00
F800
6000
ENDCHAR
STARTCHAR 003B
ENCODING 59
SWIDTH 240 0
DWIDTH 12 0
BBX 13 33 -2 -6
BITMAP
00F8
00F8
01F8
01F8
01F0
00E0
0000
0000
0000
0000
0000
0000
0000
0000
0000
0000
0000
0000
0000
0000
0000
0F80
0F80
0F00
1F00
1E00
3E00
3C00
3C00
7800
7800
F000
E000
ENDCHAR
STARTCHAR 003C
ENCODING 60
SWIDTH 560 0
DWIDTH 28 0
BBX 23 24 4 6
BITMAP
000006
00001E
00007E
0001FE
0007F8
001FC0
007F00
01FC00
07F000
1FC000
7F0000
FC0000
F00000
FE0000
7F8000
0FE000
03FC00
00FF00
003FC0
0007F8
0001FE
00007E
00001E
000002
ENDCHAR
STARTCHAR 003D
ENCODING 61
SWIDTH 560 0
DWIDTH 28 0
BBX 23 13 4 11
BITMAP
FFFFFE
FFFFFE
FFFFFE
000000
000000
000000
000000
000000
000000
000000
FFFFFE
FFFFFE
FFFFFE
ENDCHAR
STARTCHAR 003E
ENCODING 62
SWIDTH 560 0
DWIDTH 28 0
BBX 23 24 4 6
BITMAP
800000
E00000
F80000
FE0000
3F8000
0FE000
03F800
00FE00
003F80
000FE0
0001F8
00007E
00003E
0000FE
0003F8
001FE0
007F80
01FC00
0FF000
3FC000
FF0000
F80000
E00000
800000
ENDCHAR
STARTCHAR 003F
ENCODING 63
SWIDTH 420 0
DWIDTH 21 0
BBX 19 37 4 -1
BITMAP
07FC00
3FFF00
7FFF80
3F1FC0
3007C0
0003C0
0003C0
0003E0
0003C0
0003C0
0003C0
0003C0
000780
000F80
001F00
003E00
00FC00
01F800
03E000
07C000
0F8000
0F0000
1E0000
1C0000
1C0000
3C0000
000000
000000
000000
000000
300000
780000
FC0000
FC0000
F80000
F80000
600000
ENDCHAR
STARTCHAR 0040
ENCODING 64
SWIDTH 840 0
DWIDTH 42 0
BBX 38 41 3 -5
BITMAP
0000038000
0001FFFC00
0007FFFF00
001FFDFF80
007F000FC0
00F80003E0
01F00001F0
03C00000F0
0780000078
0F00000078
0E001F0038
1E00FFF03C
3C03FFF03C
3807E0F03C
780F80F01C
781F00E01C
701E01E01C
F03C01E03C
F03C01E03C
E03801C03C
E07803C038
E07803C038
E078038078
E078078078
E0780780F0
E0780F80F0
E0781F81E0
F03C79E7C0
F03FF1FF80
F01FE0FF00
7003003800
7800000000
3C00000000
3C00000000
1E00000000
0F80000000
07E001E000
03FFFFE000
01FFFFE000
003FFF0000
0002800000
ENDCHAR
STARTCHAR 0041
ENCODING 65
SWIDTH 560 0
DWIDTH 28 0
BBX 29 36 -3 0
BITMAP
00000F00
00001F00
00001F00
00003F00
00007F80
00007F80
0000F780
0000F780
0001E780
0001E780
0003C380
0003C380
000783C0
000783C0
000F03C0
001F03C0
001E03C0
003E03C0
003C03C0
007C01E0
007801E0
00FFFFE0
00FFFFE0
01FFFFE0
03FFFFE0
03C001E0
07C001E0
078001F0
0F8000F0
0F0000F0
1F0000F0
1E0000F0
3E0000F0
3C0000F0
7C0000F0
F80000F8
ENDCHAR
STARTCHAR 0042
ENCODING 66
SWIDTH 600 0
DWIDTH 30 0
BBX 27 36 2 0
BITMAP
00FFF000
01FFFE00
01FFFF80
01FFFFC0
01E00FE0
01E003E0
03C001E0
03C001E0
03C001E0
03C001E0
07C001E0
078001E0
078003C0
078007C0
07800F80
0F80FF00
0FFFFC00
0FFFE000
0FFFF800
0F007E00
1F001F00
1E000F00
1E000F80
1E000780
1E000780
3C000780
3C000780
3C000F80
3C000F80
7C001F00
78003F00
78007E00
7FFFFC00
7FFFF800
FFFFE000
FFFF0000
ENDCHAR
STARTCHAR 0043
ENCODING 67
SWIDTH 580 0
DWIDTH 29 0
BBX 27 36 4 0
BITMAP
0003FF00
001FFFE0
007FFFE0
00FFCFE0
01FC00C0
03F00000
07C00000
0F800000
0F800000
1F000000
3E000000
3E000000
3C000000
7C000000
78000000
78000000
F8000000
F8000000
F0000000
F0000000
F0000000
F0000000
F0000000
F0000000
F0000000
F0000000
F0000000
F8000000
F8000000
7C000000
7E000000
3F000000
1FC0F800
0FFFF800
07FFF800
01FFF000
ENDCHAR
STARTCHAR 0044
ENCODING 68
SWIDTH 660 0
DWIDTH 33 0
BBX 30 36 2 0
BITMAP
00FFE000
01FFFE00
01FFFF00
01FFFFC0
01E00FE0
01E003F0
03C001F0
03C000F8
03C000F8
03C00078
07C00078
0780007C
0780007C
0780007C
0780007C
0F80007C
0F00007C
0F00007C
0F00007C
0F000078
1F000078
1E0000F8
1E0000F8
1E0000F0
1E0001F0
3C0003E0
3C0003E0
3C0007C0
3C000FC0
7C001F80
78007F00
7801FE00
7FFFF800
7FFFF000
FFFFC000
FFFC0000
ENDCHAR
STARTCHAR 0045
ENCODING 69
SWIDTH 500 0
DWIDTH 25 0
BBX 26 36 2 0
BITMAP
00FFFFC0
01FFFF80
01FFFF80
01FFFF80
01E00000
01E00000
03C00000
03C00000
03C00000
03C00000
07C00000
07800000
07800000
07800000
07800000
0F800000
0FFFF800
0FFFF800
0FFFF800
0F000000
1F000000
1E000000
1E000000
1E000000
1E000000
3C000000
3C000000
3C000000
3C000000
7C000000
78000000
78000000
7FFFE000
7FFFE000
FFFFE000
FFFFC000
ENDCHAR
STARTCHAR 0046
ENCODING 70
SWIDTH 460 0
DWIDTH 23 0
BBX 26 36 2 0
BITMAP
00FFFFC0
01FFFFC0
01FFFF80
01FFFF80
01E00000
01E00000
03C00000
03C00000
03C00000
03C00000
07C00000
07800000
07800000
07800000
07800000
0F800000
0F000000
0FFFF800
0FFFF800
0FFFF800
1FFFF800
1E000000
1E000000
1E000000
1E000000
3C000000
3C000000
3C000000
3C000000
7C000000
78000000
78000000
78000000
78000000
F8000000
F0000000
ENDCHAR
STARTCHAR 0047
ENCODING 71
SWIDTH 660 0
DWIDTH 33 0
BBX 29 36 4 0
BITMAP
0003FF80
001FFFF0
007FFFF8
00FFCFF8
01FC0070
03F00000
07E00000
0FC00000
0F800000
1F000000
3E000000
3E000000
3C000000
7C000000
78000000
78000000
F8000000
F800FFE0
F000FFE0
F001FFE0
F001FFE0
F00003C0
F00003C0
F00003C0
F00003C0
F00007C0
F8000780
F8000780
F8000780
7C000780
7E000F00
3F000F00
1FE07F00
0FFFFF00
07FFFF00
01FFF800
ENDCHAR
STARTCHAR 0048
ENCODING 72
SWIDTH 680 0
DWIDTH 34 0
BBX 32 36 2 0
BITMAP
00F0000F
01F0000F
01E0000F
01E0001E
01E0001E
01E0001E
03E0001E
03C0001E
03C0003C
03C0003C
03C0003C
0780003C
0780007C
07800078
07800078
0F800078
0FFFFFF8
0FFFFFF8
0FFFFFF0
0F0000F0
1F0000F0
1E0000F0
1E0001E0
1E0001E0
1E0001E0
3C0001E0
3C0001E0
3C0003C0
3C0003C0
3C0003C0
780003C0
780007C0
78000780
78000780
F8000780
F0000780
ENDCHAR
STARTCHAR 0049
ENCODING 73
SWIDTH 260 0
DWIDTH 13 0
BBX 12 36 2 0
BITMAP
00F0
01F0
01E0
01E0
01E0
01E0
03C0
03C0
03C0
03C0
03C0
0780
0780
0780
0780
0F80
0F00
0F00
0F00
0F00
1E00
1E00
1E00
1E00
1E00
3C00
3C00
3C00
3C00
7C00
7800
7800
7800
7800
F000
F000
ENDCHAR
STARTCHAR 004A
ENCODING 74
SWIDTH 260 0
DWIDTH 13 0
BBX 22 45 -8 -9
BITMAP
00003C
00007C
000078
000078
000078
000078
0000F8
0000F0
0000F0
0000F0
0000F0
0001E0
0001E0
0001E0
0001E0
0003E0
0003C0
0003C0
0003C0
0003C0
0007C0
000780
000780
000780
000780
000F80
000F00
000F00
000F00
001F00
001E00
001E00
001E00
001E00
003E00
003C00
003C00
003C00
007C00
007800
00F800
83F000
FFE000
FFC000
FF8000
ENDCHAR
STARTCHAR 004B
ENCODING 75
SWIDTH 560 0
DWIDTH 28 0
BBX 30 36 2 0
BITMAP
00F0007C
01F000F8
01E001F0
01E003E0
01E007C0
01E00F80
03C01F00
03C03E00
03C07C00
03C0F800
07C1F000
0783E000
0787C000
078F8000
079F0000
0FBE0000
0F7E0000
0FFE0000
0FFF0000
0FCF0000
1F8F8000
1F078000
1E07C000
1E03C000
1E03C000
3C01E000
3C01E000
3C01F000
3C00F000
7C00F800
78007800
78007800
78007C00
78003C00
F8003E00
F0001E00
ENDCHAR
STARTCHAR 004C
ENCODING 76
SWIDTH 460 0
DWIDTH 23 0
BBX 19 36 2 0
BITMAP
00F000
01F000
01E000
01E000
01E000
01E000
03C000
03C000
03C000
03C000
07C000
078000
078000
078000
078000
0F8000
0F0000
0F0000
0F0000
0F0000
1E0000
1E0000
1E0000
1E0000
1E0000
3C0000
3C0000
3C0000
3C0000
7C0000
780000
780000
7FFFE0
7FFFE0
FFFFE0
FFFFC0
ENDCHAR
STARTCHAR 004D
ENCODING 77
SWIDTH 820 0
DWIDTH 41 0
BBX 40 36 2 0
BITMAP
00F800003F
01FC00007F
01FC0000FF
01FC0000FE
01FC0001FE
03DC0001FE
03DC0003DE
03DC0003DC
03DC0007BC
039E00073C
079E000F3C
079E001E3C
079E001E78
078E003C78
070E003C78
0F0E007878
0F0E007878
0F0F00F0F0
0F0F00E0F0
0E0F01E0F0
1E0F01C0F0
1E0703C1F0
1E070781E0
1E070781E0
3C070F01E0
3C078F01E0
3C079E03E0
3C079C03C0
3C07BC03C0
7803B803C0
7803F803C0
7803F007C0
7803F00780
7003E00780
F003E00780
F003C00F80
ENDCHAR
STARTCHAR 004E
ENCODING 78
SWIDTH 700 0
DWIDTH 35 0
BBX 33 36 2 0
BITMAP
00F0000780
01F0000780
01F8000780
01F8000780
01FC000700
03FC000F00
03FC000F00
03DE000F00
03DE000F00
039E001E00
078F001E00
078F001E00
0787801E00
0787801E00
0707803C00
0F03C03C00
0F03C03C00
0F03C03C00
0F01E03C00
0E01E07800
1E00F07800
1E00F07800
1E00F07800
1E0078F000
3C0078F000
3C0078F000
3C003CF000
3C003CF000
3C001EE000
78001FE000
78001FE000
78000FE000
78000FE000
700007C000
F00007C000
F00007C000
ENDCHAR
STARTCHAR 004F
ENCODING 79
SWIDTH 720 0
DWIDTH 36 0
BBX 30 36 4 0
BITMAP
0007FE00
003FFF80
007FFFC0
01FF3FE0
03F803F0
07E001F8
0FC000F8
0F800078
1F00007C
1E00007C
3E00003C
3C00003C
7C00003C
7800003C
7800003C
F800003C
F800003C
F000003C
F000003C
F000007C
F000007C
F000007C
F0000078
F00000F8
F00000F8
F00001F0
F80001F0
F80003E0
780003E0
7C0007C0
7E000F80
3F003F80
1FC0FF00
0FFFFC00
07FFF800
01FFE000
ENDCHAR
STARTCHAR 0050
ENCODING 80
SWIDTH 560 0
DWIDTH 28 0
BBX 26 36 2 0
BITMAP
00FFC000
01FFFC00
01FFFE00
01FFFF00
01E01F80
01E007C0
03C007C0
03C003C0
03C003C0
03C003C0
07C003C0
078003C0
078003C0
078007C0
07800780
0F800F80
0F001F00
0F007F00
0FFFFE00
0FFFF800
1FFFE000
1FFF0000
1E000000
1E000000
1E000000
3C000000
3C000000
3C000000
3C000000
7C000000
78000000
78000000
78000000
78000000
F8000000
F0000000
ENDCHAR
STARTCHAR 0051
ENCODING 81
SWIDTH 720 0
DWIDTH 36 0
BBX 30 45 4 -9
BITMAP
0007FE00
003FFF80
007FFFC0
01FF3FE0
03F803F0
07E001F8
0FC000F8
0F800078
1F00007C
1E00007C
3E00003C
3C00003C
7C00003C
7800003C
7800003C
F800003C
F800003C
F000003C
F000003C
F000007C
F000007C
F0000078
F0000078
F00000F8
F00000F8
F00000F0
F80001F0
F80003E0
780003E0
7C0007C0
7E000F80
3F003F00
1FC0FE00
0FFFFC00
07FFF800
01FFC000
0003C000
0003E000
0001F000
0000F000
0000F800
00007C00
00003E00
00003F00
00001F00
ENDCHAR
STARTCHAR 0052
ENCODING 82
SWIDTH 560 0
DWIDTH 28 0
BBX 26 36 2 0
BITMAP
00FFC000
01FFFC00
01FFFF00
01FFFF80
01E01F80
01E007C0
03C007C0
03C003C0
03C003C0
03C003C0
07C003C0
078003C0
078003C0
078007C0
07800780
0F800F80
0F003F00
0F03FE00
0FFFFC00
0FFFE000
1FFFC000
1E03C000
1E03C000
1E03E000
1E01E000
3C01E000
3C01F000
3C00F000
3C00F000
7C00F800
78007800
78007C00
78003C00
78003C00
F8003E00
F0001E00
ENDCHAR
STARTCHAR 0053
ENCODING 83
SWIDTH 500 0
DWIDTH 25 0
BBX 25 36 1 0
BITMAP
001FF800
007FFF00
00FFFF80
01FF7F00
03F00700
07C00000
07C00000
07800000
0F800000
0F800000
0F800000
0F800000
07800000
07C00000
07E00000
03F80000
01FC0000
00FF0000
003F8000
001FE000
0007F000
0003F000
0000F800
0000F800
00007800
00007800
00007800
00007800
00007800
0000F800
0001F000
8003F000
F80FE000
FFFFC000
FFFF8000
7FFC0000
ENDCHAR
STARTCHAR 0054
ENCODING 84
SWIDTH 480 0
DWIDTH 24 0
BBX 24 36 5 0
BITMAP
FFFFFF
FFFFFF
FFFFFF
FFFFFF
007C00
007800
007800
007800
007800
00F800
00F000
00F000
00F000
01F000
01E000
01E000
01E000
01E000
03E000
03C000
03C000
03C000
03C000
07C000
078000
078000
078000
0F8000
0F0000
0F0000
0F0000
0F0000
1F0000
1E0000
1E0000
1E0000
ENDCHAR
STARTCHAR 0055
ENCODING 85
SWIDTH 660 0
DWIDTH 33 0
BBX 30 36 4 0
BITMAP
0780003C
0780003C
0780003C
0780003C
0F00007C
0F000078
0F000078
0F000078
1F000078
1E0000F0
1E0000F0
1E0000F0
1E0000F0
3E0001F0
3C0001E0
3C0001E0
3C0001E0
3C0001E0
780003E0
780003C0
780003C0
780003C0
F80003C0
F00007C0
F0000780
F0000780
F0000F80
F0000F00
F0000F00
F8001E00
78003E00
7C007C00
3F83F800
3FFFF000
1FFFE000
07FF8000
ENDCHAR
STARTCHAR 0056
ENCODING 86
SWIDTH 540 0
DWIDTH 27 0
BBX 27 36 5 0
BITMAP
F00003E0
F00003C0
F00007C0
F0000780
F0000F80
F0000F00
F0001F00
F0001E00
78003E00
78003C00
78007C00
78007800
7800F800
7800F000
7801E000
7801E000
7803C000
3C03C000
3C078000
3C0F8000
3C0F0000
3C1F0000
3C1E0000
3C3E0000
3C3C0000
3C7C0000
1C780000
1CF80000
1EF00000
1FE00000
1FE00000
1FC00000
1FC00000
1F800000
1F800000
0F000000
ENDCHAR
STARTCHAR 0057
ENCODING 87
SWIDTH 840 0
DWIDTH 42 0
BBX 42 36 5 0
BITMAP
F8001E0007C0
F8003E000780
78003E000780
78003E000F00
78007E000F00
78007E001F00
7800FF001E00
7800EF003E00
7801EF003C00
7801CF007C00
7803CF007800
7803CF007800
78078F00F000
78078F00F000
780F0F01E000
780F0F01E000
781E0F03E000
781E0703C000
781C0703C000
783C07078000
783807078000
7878070F0000
7870070F0000
78F0071E0000
78F0071E0000
39E0071C0000
39E007BC0000
39C007BC0000
3BC007F80000
3B8007F80000
3F8007F00000
3F0007F00000
3F0007E00000
3E0007E00000
3E0007C00000
3C0007C00000
ENDCHAR
STARTCHAR 0058
ENCODING 88
SWIDTH 520 0
DWIDTH 26 0
BBX 32 36 -2 0
BITMAP
00F0000F
00F0001E
00F8003C
0078007C
007800F8
003C00F0
003C01E0
003C03C0
001E07C0
001E0F80
001E0F00
000F1E00
000F3C00
0007FC00
0007F800
0007F000
0003E000
0003E000
0007E000
000FE000
001FF000
001EF000
003C7800
00787800
00F87800
01F03C00
01E03C00
03C03C00
07C01E00
0F801E00
0F001E00
1E000F00
3E000F00
7C000F80
78000780
F0000780
ENDCHAR
STARTCHAR 0059
ENCODING 89
SWIDTH 500 0
DWIDTH 25 0
BBX 25 36 5 0
BITMAP
F0000F80
F0001F00
F0001E00
F8003E00
78007C00
78007800
7800F800
3C01F000
3C01E000
3C03E000
3C07C000
1C078000
1E0F8000
1E0F0000
1E1E0000
0E3E0000
0F3C0000
0F780000
0FF00000
07F00000
07E00000
07C00000
07C00000
07800000
07800000
07800000
07800000
0F800000
0F000000
0F000000
0F000000
0F000000
1F000000
1E000000
1E000000
1E000000
ENDCHAR
STARTCHAR 005A
ENCODING 90
SWIDTH 520 0
DWIDTH 26 0
BBX 29 36 0 0
BITMAP
00FFFFF8
01FFFFF0
01FFFFF0
01FFFFF0
000001E0
000003E0
000007C0
00000F80
00001F00
00001E00
00003E00
00007C00
0000F800
0001F000
0001E000
0003E000
0007C000
000F8000
001F0000
001E0000
003E0000
007C0000
00F80000
01F00000
01E00000
03E00000
07C00000
0F800000
0F000000
1F000000
3E000000
7C000000
FFFFFC00
FFFFFC00
FFFFFC00
FFFFFC00
ENDCHAR
STARTCHAR 005B
ENCODING 91
SWIDTH 280 0
DWIDTH 14 0
BBX 18 44 0 -8
BITMAP
007FC0
007FC0
00FFC0
00FFC0
00F000
00F000
00E000
01E000
01E000
01E000
01E000
03C000
03C000
03C000
03C000
038000
078000
078000
078000
078000
070000
0F0000
0F0000
0F0000
0F0000
1E0000
1E0000
1E0000
1E0000
1C0000
3C0000
3C0000
3C0000
3C0000
380000
780000
780000
780000
780000
F00000
F00000
FFC000
FFC000
FF8000
ENDCHAR
STARTCHAR 005C
ENCODING 92
SWIDTH 340 0
DWIDTH 17 0
BBX 9 36 5 0
BITMAP
F000
7000
7000
7800
7800
7800
7800
7800
3800
3800
3C00
3C00
3C00
3C00
3C00
1C00
1C00
1E00
1E00
1E00
1E00
0E00
0E00
0F00
0F00
0F00
0F00
0F00
0700
0700
0780
0780
0780
0780
0380
0380
ENDCHAR
STARTCHAR 005D
ENCODING 93
SWIDTH 280 0
DWIDTH 14 0
BBX 19 44 -4 -8
BITMAP
003FE0
007FE0
007FE0
007FE0
0001C0
0003C0
0003C0
0003C0
0003C0
000780
000780
000780
000780
000780
000F00
000F00
000F00
000F00
000E00
001E00
001E00
001E00
001E00
001C00
003C00
003C00
003C00
003C00
007800
007800
007800
007800
007000
00F000
00F000
00F000
00F000
00E000
01E000
01E000
01E000
7FE000
7FC000
FFC000
ENDCHAR
STARTCHAR 005E
ENCODING 94
SWIDTH 560 0
DWIDTH 28 0
BBX 24 23 2 13
BITMAP
001C00
003C00
003E00
007E00
007F00
00F700
00E780
01E380
01C3C0
03C1C0
0381E0
0780E0
0700F0
0F0070
0F0078
1E0038
1E003C
3C001C
3C001E
78001E
78000F
70000F
F00007
ENDCHAR
STARTCHAR 005F
ENCODING 95
SWIDTH 380 0
DWIDTH 19 0
BBX 20 3 -4 -8
BITMAP
FFFFF0
FFFFE0
FFFFE0
ENDCHAR
STARTCHAR 0060
ENCODING 96
SWIDTH 260 0
DWIDTH 13 0
BBX 8 8 7 30
BITMAP
F8
78
3C
3C
1E
0E
07
03
ENDCHAR
STARTCHAR 0061
ENCODING 97
SWIDTH 560 0
DWIDTH 28 0
BBX 25 27 2 0
BITMAP
003F8380
00FFC380
01FFE780
03F0F780
07C07700
0F803F00
1F001F00
1E001F00
3E001F00
3C001E00
3C001E00
7C001E00
78001E00
78003C00
78003C00
78003C00
F8007C00
F8007C00
F800F800
F800F800
7801F800
7803F800
7C077800
7E1E7000
3FFC7000
1FF87000
0FF0F000
ENDCHAR
STARTCHAR 0062
ENCODING 98
SWIDTH 560 0
DWIDTH 28 0
BBX 24 38 2 0
BITMAP
01E000
01E000
01E000
01E000
01E000
03C000
03C000
03C000
03C000
07C000
078000
0783F0
078FFC
079FFE
0F3C3E
0F701F
0FE00F
0FC00F
0F800F
1F800F
1F000F
1E000F
1E000F
3E000F
3C000F
3C000F
3C001F
3C001E
7C001E
7C003E
7C003C
7C007C
7C00F8
FE01F0
F703F0
E7FFE0
E3FF80
E1FF00
ENDCHAR
STARTCHAR 0063
ENCODING 99
SWIDTH 440 0
DWIDTH 22 0
BBX 21 27 2 0
BITMAP
003FF0
00FFF8
01FFF8
03F070
07C000
0F8000
1F0000
1E0000
3E0000
3C0000
7C0000
780000
780000
780000
780000
F80000
F80000
F80000
F80000
780000
780000
7C0000
7C0000
3F0180
1FFF80
0FFF80
07FF00
ENDCHAR
STARTCHAR 0064
ENCODING 100
SWIDTH 560 0
DWIDTH 28 0
BBX 28 38 2 0
BITMAP
000000F0
000001E0
000001E0
000001E0
000001E0
000001E0
000003C0
000003C0
000003C0
000003C0
000007C0
003F8780
00FFC780
03FFE780
07F0F780
07C03700
0F803F00
1F001F00
1E001F00
3E001F00
3C001E00
3C001E00
7C001E00
78001E00
78003E00
78003C00
78003C00
F8007C00
F8007C00
F800FC00
F800F800
7801F800
7803F800
7C077800
7E1E7000
3FFC7000
1FF87000
0FF0F000
ENDCHAR
STARTCHAR 0065
ENCODING 101
SWIDTH 480 0
DWIDTH 24 0
BBX 21 27 2 0
BITMAP
003FC0
00FFF0
01FFF0
03F0F8
07C078
0F8078
1F0078
1E0078
3E0078
3C00F8
3C03F0
781FE0
7FFFC0
7FFF00
7FF800
780000
F80000
F80000
F80000
780000
780000
7C0000
7C0040
3F01C0
1FFFC0
0FFFC0
07FF00
ENDCHAR
STARTCHAR 0066
ENCODING 102
SWIDTH 300 0
DWIDTH 15 0
BBX 28 50 -6 -12
BITMAP
00001FF0
00003FF0
00007FE0
0000F820
0000F000
0001E000
0001E000
0001E000
0003C000
0003C000
0003C000
0007FF00
007FFE00
007FFE00
00078000
00078000
00078000
000F8000
000F0000
000F0000
000F0000
000F0000
001F0000
001E0000
001E0000
001E0000
001E0000
003C0000
003C0000
003C0000
003C0000
003C0000
00780000
00780000
00780000
00780000
00F80000
00F00000
00F00000
00F00000
00F00000
01F00000
01E00000
01E00000
03E00000
03C00000
CFC00000
FF800000
FF000000
FC000000
ENDCHAR
STARTCHAR 0067
ENCODING 103
SWIDTH 500 0
DWIDTH 25 0
BBX 29 39 -2 -12
BITMAP
0007FFF8
001FFFF8
003FFFF8
00780F00
00F00F00
01E00780
01E00780
01E00780
01C00780
03C00780
03C00F00
03C00F00
01E01F00
01E03E00
00F8FC00
007FF800
003FE000
00F00000
01C00000
03800000
07800000
07800000
07F00000
03FFC000
01FFF800
07FFFC00
1E00FE00
3C003E00
78001E00
F0000E00
F0000E00
E0001E00
E0001E00
F0003C00
F8007C00
7C03F800
7FFFF000
1FFFC000
07FE0000
ENDCHAR
STARTCHAR 0068
ENCODING 104
SWIDTH 560 0
DWIDTH 28 0
BBX 24 38 2 0
BITMAP
01E000
01E000
01E000
01E000
01E000
03C000
03C000
03C000
03C000
078000
078000
0783F8
078FFC
079FFE
0F3C3E
0F701F
0FE00F
0FC00F
0F800F
1F000F
1F000F
1E001E
1E001E
3E001E
3C001E
3C001E
3C003C
3C003C
7C003C
78003C
78007C
780078
780078
F00078
F00078
F000F8
F000F0
F000F0
ENDCHAR
STARTCHAR 0069
ENCODING 105
SWIDTH 240 0
DWIDTH 12 0
BBX 11 37 2 0
BITMAP
00C0
01E0
03E0
03E0
01E0
0080
0000
0000
0000
0000
0780
0780
0780
0F80
0F00
0F00
0F00
0F00
1E00
1E00
1E00
1E00
3E00
3C00
3C00
3C00
3C00
7C00
7800
7800
7800
7800
F000
F000
F000
F000
F000
ENDCHAR
STARTCHAR 006A
ENCODING 106
SWIDTH 240 0
DWIDTH 12 0
BBX 19 49 -6 -12
BITMAP
0000C0
0001E0
0003E0
0003E0
0001E0
000080
000000
000000
000000
000000
000780
000780
000780
000F00
000F00
000F00
000F00
000F00
001E00
001E00
001E00
001E00
001E00
003C00
003C00
003C00
003C00
007800
007800
007800
007800
007800
00F000
00F000
00F000
00F000
00F000
01E000
01E000
01E000
01E000
03C000
03C000
03C000
07C000
9F8000
FF0000
FE0000
FC0000
ENDCHAR
STARTCHAR 006B
ENCODING 107
SWIDTH 480 0
DWIDTH 24 0
BBX 25 38 1 0
BITMAP
00F00000
00F00000
00F00000
00F00000
01F00000
01E00000
01E00000
01E00000
01E00000
03E00000
03C00000
03C00F80
03C01F00
03C03E00
07807C00
0780F800
0781F000
0783E000
0F87C000
0F0F8000
0F1F0000
0F3E0000
0E7C0000
1EFC0000
1FFC0000
1FFE0000
1F9E0000
1F1F0000
3C0F0000
3C0F8000
3C078000
3C07C000
3C03C000
7803C000
7801E000
7801E000
7801F000
F800F000
ENDCHAR
STARTCHAR 006C
ENCODING 108
SWIDTH 240 0
DWIDTH 12 0
BBX 12 38 1 0
BITMAP
00F0
00F0
00F0
00F0
00F0
01E0
01E0
01E0
01E0
03E0
03C0
03C0
03C0
03C0
0780
0780
0780
0780
0780
0F00
0F00
0F00
0F00
1F00
1E00
1E00
1E00
1E00
3C00
3C00
3C00
3C00
3C00
7800
7800
7800
7800
F800
ENDCHAR
STARTCHAR 006D
ENCODING 109
SWIDTH 860 0
DWIDTH 43 0
BBX 39 27 2 0
BITMAP
0707F007F0
070FF81FF8
073FFC3FFC
0F3C7C787C
0F703EE03E
0FE01FC01E
0FC01F801E
0F801F801E
1F001F001E
1F001E003C
1E001E003C
1E003E003C
3E003C003C
3C003C003C
3C003C0078
3C007C0078
3C00780078
7C00780078
78007800F8
78007800F0
7800F000F0
7800F000F0
F000F000F0
F000F001F0
F000F001E0
F001E001E0
F001E001E0
ENDCHAR
STARTCHAR 006E
ENCODING 110
SWIDTH 560 0
DWIDTH 28 0
BBX 25 27 1 0
BITMAP
03C3FC00
0387FE00
079FFF00
07BF1F80
07B80F80
07F00780
07E00780
0FC00780
0FC00780
0F800F80
0F800F80
0F000F00
1F000F00
1F000F00
1E001F00
1E001F00
3E001E00
3E001E00
3C001E00
3C003E00
3C003C00
7C003C00
7C003C00
78007C00
78007C00
78007800
F8007800
ENDCHAR
STARTCHAR 006F
ENCODING 111
SWIDTH 560 0
DWIDTH 28 0
BBX 24 27 2 0
BITMAP
003FC0
00FFF0
03FFF8
07F0FC
07C03C
0F803E
1F001E
1E001F
3C000F
3C000F
7C000F
78000F
78001F
78001F
78001E
F8001E
F8001E
F8003E
F8003C
78007C
780078
7C00F8
3C01F0
3F07E0
1FFFC0
0FFF80
03FE00
ENDCHAR
STARTCHAR 0070
ENCODING 112
SWIDTH 560 0
DWIDTH 28 0
BBX 27 39 -1 -12
BITMAP
00E07E00
00E1FF80
00E3FFC0
01E787C0
01EE03E0
01FC01E0
01F801E0
01F001E0
03E001E0
03E001E0
03C001E0
03C001E0
07C001E0
078001E0
078001E0
078003E0
078003C0
0F8003C0
0F8007C0
0F800780
0F800F80
0F801F00
1FC03E00
1EE07E00
1EFFFC00
1E7FF800
1E3FE000
3C000000
3C000000
3C000000
3C000000
7C000000
78000000
78000000
78000000
78000000
F0000000
F0000000
F0000000
ENDCHAR
STARTCHAR 0071
ENCODING 113
SWIDTH 560 0
DWIDTH 28 0
BBX 25 39 2 -12
BITMAP
003F8380
00FFC380
03FFE780
07F0F780
07C03700
0F803F00
1F001F00
1E001F00
3E001F00
3C001E00
3C001E00
7C001E00
78001E00
78003E00
78003C00
78003C00
F8007C00
F8007C00
F800FC00
F800F800
7801F800
7803F800
7C077800
7E1E7000
3FFCF000
1FF8F000
0FF0F000
0000F000
0001E000
0001E000
0001E000
0001E000
0003E000
0003C000
0003C000
0003C000
0003C000
00078000
00078000
ENDCHAR
STARTCHAR 0072
ENCODING 114
SWIDTH 380 0
DWIDTH 19 0
BBX 19 27 2 0
BITMAP
0707E0
070FE0
073FE0
0F3FC0
0F7000
0FE000
0FC000
0F8000
1F8000
1F0000
1E0000
1E0000
3E0000
3C0000
3C0000
3C0000
3C0000
7C0000
780000
780000
780000
780000
F00000
F00000
F00000
F00000
F00000
ENDCHAR
STARTCHAR 0073
ENCODING 115
SWIDTH 420 0
DWIDTH 21 0
BBX 20 27 0 0
BITMAP
00FFC0
03FFF0
07FFF0
0FC1F0
0F8020
0F0000
1F0000
1F0000
0F0000
0F8000
0FC000
07E000
03F800
01FE00
007F00
001F80
000F80
0007C0
0003C0
0003C0
0003C0
0007C0
800780
F01F80
FFFF00
FFFE00
3FF800
ENDCHAR
STARTCHAR 0074
ENCODING 116
SWIDTH 320 0
DWIDTH 16 0
BBX 16 33 2 0
BITMAP
00C0
01C0
01C0
03C0
0380
0780
1FFF
7FFF
FFFF
0F00
0F00
0F00
0F00
0F00
1E00
1E00
1E00
1E00
3E00
3C00
3C00
3C00
3C00
7C00
7800
7800
7800
7800
7800
7C00
7FE0
3FE0
1FE0
ENDCHAR
STARTCHAR 0075
ENCODING 117
SWIDTH 560 0
DWIDTH 28 0
BBX 24 27 3 0
BITMAP
0F000F
0F000F
1E000F
1E000F
1E001E
1E001E
3E001E
3C001E
3C001E
3C003C
3C003C
7C003C
78003C
780078
780078
F80078
F000F8
F000F8
F001F0
F001F0
F003F0
F007F0
F00EF0
F83CE0
7FF8E0
7FF1E0
1FE1E0
ENDCHAR
STARTCHAR 0076
ENCODING 118
SWIDTH 460 0
DWIDTH 23 0
BBX 23 27 2 0
BITMAP
F8001E
78003E
78003C
78007C
780078
7800F8
7800F0
7801E0
7801E0
3803C0
3C03C0
3C0780
3C0F80
3C0F00
3C1F00
3C1E00
3C3E00
3C3C00
1C7C00
1C7800
1EF000
1EF000
1FE000
1FE000
1FC000
1FC000
0F8000
ENDCHAR
STARTCHAR 0077
ENCODING 119
SWIDTH 700 0
DWIDTH 35 0
BBX 35 27 3 0
BITMAP
F001E003E0
F003E003C0
F003E007C0
F007E00780
F007E00F80
F00FF00F00
F00EF01F00
F01EF01E00
F01CF01E00
F03CF03C00
F03CF03C00
F038F07800
F078F07800
F07070F000
F0F070F000
70E071F000
71E071E000
71C071E000
73C073C000
738073C000
7780778000
7700778000
7700770000
7E007F0000
7E007E0000
7C007E0000
7C007C0000
ENDCHAR
STARTCHAR 0078
ENCODING 120
SWIDTH 480 0
DWIDTH 24 0
BBX 26 27 -1 0
BITMAP
078007C0
03C00780
03C00F00
03E01F00
01E03E00
01E07C00
00F0F800
00F0F000
0079E000
007BC000
003FC000
003F8000
003F0000
001E0000
003F0000
007F0000
00F78000
01F78000
03E78000
07C3C000
0783C000
0F01E000
1F01E000
3E00F000
7C00F000
F800F800
F0007800
ENDCHAR
STARTCHAR 0079
ENCODING 121
SWIDTH 460 0
DWIDTH 23 0
BBX 30 39 -5 -12
BITMAP
01F0003C
00F0007C
00F00078
00F000F8
00F000F0
00F001F0
00F001E0
00F003C0
007803C0
00780780
00780780
00780F00
00780F00
00781E00
00383E00
003C3C00
003C7C00
003C7800
003CF000
003CF000
003CE000
001DE000
001DC000
001FC000
001F8000
001F8000
001F0000
001F0000
001E0000
003C0000
003C0000
00780000
00F80000
00F00000
01F00000
8FE00000
FFC00000
FF800000
FE000000
ENDCHAR
STARTCHAR 007A
ENCODING 122
SWIDTH 440 0
DWIDTH 22 0
BBX 23 27 -1 0
BITMAP
01FFFE
03FFFE
03FFFE
00003C
000078
0000F8
0001F0
0003E0
0003C0
000780
000F80
001F00
003E00
003C00
007800
00F000
01F000
03E000
07C000
078000
0F0000
1F0000
3E0000
7C0000
7FFFC0
7FFFC0
FFFFC0
ENDCHAR
STARTCHAR 007B
ENCODING 123
SWIDTH 340 0
DWIDTH 17 0
BBX 19 44 1 -8
BITMAP
0001E0
000FE0
001FC0
003FC0
003E00
007C00
007800
007800
007800
007000
00F000
00F000
00F000
00E000
01E000
01E000
01E000
03C000
03C000
0F8000
FF0000
FC0000
FC0000
FE0000
0F0000
0F0000
070000
070000
0F0000
0F0000
0F0000
0F0000
0E0000
1E0000
1E0000
1E0000
1E0000
1C0000
1C0000
1E0000
1FC000
1FC000
0FC000
03C000
ENDCHAR
STARTCHAR 007C
ENCODING 124
SWIDTH 540 0
DWIDTH 27 0
BBX 3 50 13 -12
BITMAP
E0
E0
E0
E0
E0
E0
E0
E0
E0
E0
E0
E0
E0
E0
E0
E0
E0
E0
E0
E0
E0
E0
E0
E0
E0
E0
E0
E0
E0
E0
E0
E0
E0
E0
E0
E0
E0
E0
E0
E0
E0
E0
E0
E0
E0
E0
E0
E0
E0
E0
ENDCHAR
STARTCHAR 007D
ENCODING 125
SWIDTH 340 0
DWIDTH 17 0
BBX 19 44 -2 -8
BITMAP
00E000
00FC00
00FE00
00FF00
000F00
000F00
000F00
000F00
000F00
000F00
000E00
001E00
001E00
001E00
001C00
001C00
003C00
003C00
003C00
001E00
001F80
000FE0
0007E0
001FC0
003F00
007800
00F000
00F000
00F000
00E000
01E000
01E000
01E000
01C000
03C000
03C000
03C000
03C000
078000
0F8000
FF0000
FF0000
FE0000
F00000
ENDCHAR
STARTCHAR 007E
ENCODING 126
SWIDTH 560 0
DWIDTH 28 0
BBX 23 6 4 14
BITMAP
1F0000
7FE002
FFFC0E
FFFFFE
C07FFC
800FF8
ENDCHAR
STARTCHAR 00A0
ENCODING 160
SWIDTH 240 0
DWIDTH 12 0
BBX 0 0 0 0
BITMAP
ENDCHAR
STARTCHAR 00A1
ENCODING 161
SWIDTH 240 0
DWIDTH 12 0
BBX 12 36 0 -9
BITMAP
01E0
01F0
03F0
03F0
03E0
01C0
0000
0000
0000
0000
0380
0380
0380
0700
0700
0700
0700
0F00
0E00
0E00
0E00
1E00
1E00
1E00
3C00
3C00
3C00
3C00
7C00
7C00
7800
7800
F800
F800
F800
F800
ENDCHAR
STARTCHAR 00A2
ENCODING 162
SWIDTH 540 0
DWIDTH 27 0
BBX 21 36 5 0
BITMAP
000700
000700
000700
000700
003FE0
00FFF8
01FFF8
03F8F0
07C000
0F8000
1F0000
1E0000
3E0000
3C0000
7C0000
780000
780000
780000
780000
F80000
F80000
F80000
F80000
F80000
780000
780000
7C0000
3F0180
1FFF80
0FFF80
07FF00
01E000
01C000
01C000
03C000
038000
ENDCHAR
STARTCHAR 00A3
ENCODING 163
SWIDTH 540 0
DWIDTH 27 0
BBX 28 36 0 0
BITMAP
00007F80
0003FFF0
0007FFF0
000FE1F0
000F8030
001F0000
001E0000
003E0000
003C0000
003C0000
003C0000
003C0000
00780000
00780000
00780000
00780000
00F80000
1FFFF800
1FFFF800
1FFFF800
00F00000
01E00000
01E00000
01E00000
01E00000
01E00000
03C00000
03C00000
07C00000
07800000
0F000000
1E000000
FFFFFE00
FFFFFE00
FFFFFE00
FFFFFE00
ENDCHAR
STARTCHAR 00A4
ENCODING 164
SWIDTH 540 0
DWIDTH 27 0
BBX 21 21 4 7
BITMAP
600030
F0FC78
7BFFF8
3FFFF0
1F07E0
1E01E0
3C00E0
3800F0
380070
780070
780070
780070
380070
3800F0
3C01E0
1E03C0
3FDFE0
7FFFF0
FBFE78
703838
200010
ENDCHAR
STARTCHAR 00A5
ENCODING 165
SWIDTH 540 0
DWIDTH 27 0
BBX 28 36 3 0
BITMAP
1E0001F0
1E0003E0
1E0003C0
0F0007C0
0F000F80
0F000F00
0F001E00
07803E00
07803C00
07807800
0380F800
03C0F000
03C1E000
03C3E000
01C3C000
01E78000
01EF0000
00EF0000
00FE0000
3FFFF000
3FFFF000
3FFFF000
00700000
00F00000
00F00000
00F00000
7FFFE000
FFFFE000
FFFFC000
01E00000
01E00000
01E00000
01C00000
03C00000
03C00000
03C00000
ENDCHAR
STARTCHAR 00A6
ENCODING 166
SWIDTH 540 0
DWIDTH 27 0
BBX 3 50 13 -12
BITMAP
E0
E0
E0
E0
E0
E0
E0
E0
E0
E0
E0
E0
E0
E0
E0
E0
E0
E0
E0
00
00
00
00
00
00
00
00
00
00
00
00
E0
E0
E0
E0
E0
E0
E0
E0
E0
E0
E0
E0
E0
E0
E0
E0
E0
E0
E0
ENDCHAR
STARTCHAR 00A7
ENCODING 167
SWIDTH 480 0
DWIDTH 24 0
BBX 23 38 1 0
BITMAP
001FF8
007FFE
00FFFE
01F00E
01E000
03C000
03C000
03C000
03E000
01F000
00FC00
007F00
00FFC0
03EFE0
0783F0
0F00F8
0E0078
1E0078
1E0078
1E0078
1E0078
0F00F0
0F80F0
07E3E0
03FF80
00FF00
003F00
000F80
0007C0
0003C0
0003C0
0003C0
0003C0
8007C0
F00F80
FFFF00
FFFE00
1FF800
ENDCHAR
STARTCHAR 00A8
ENCODING 168
SWIDTH 540 0
DWIDTH 27 0
BBX 14 4 11 32
BITMAP
7038
F87C
F87C
7078
ENDCHAR
STARTCHAR 00A9
ENCODING 169
SWIDTH 820 0
DWIDTH 41 0
BBX 37 36 2 0
BITMAP
0007FF0000
001FFFE000
007F87F800
01F0007C00
03E0001E00
0780000F00
0F00000380
0E007E01C0
1C03FFC1E0
3807FF80E0
380F838070
301F000070
701E000070
703C000038
603C000038
603C000038
E038000038
E038000038
E038000038
E038000038
6038000038
603C000038
703C000038
701C000030
701E000070
380F008070
380FFF80E0
1C07FF80E0
1E01FF01C0
0F00000380
0780000780
03C0001F00
01F0003E00
00FE01F800
003FFFF000
000FFF8000
ENDCHAR
STARTCHAR 00AA
ENCODING 170
SWIDTH 320 0
DWIDTH 16 0
BBX 15 17 4 19
BITMAP
07C6
0FE6
1E7E
3C1C
381C
701C
701C
601C
E018
E038
E038
E078
E078
F0F0
7FB0
3F30
1C00
ENDCHAR
STARTCHAR 00AB
ENCODING 171
SWIDTH 460 0
DWIDTH 23 0
BBX 21 21 2 3
BITMAP
004000
00E030
01E078
03E0F0
07C1E0
0F83C0
1F07C0
3E0F80
7C0F00
F81E00
F03E00
783C00
783C00
3C1E00
3C1E00
1C0F00
1E0F00
0E0780
0F0780
0703C0
060100
ENDCHAR
STARTCHAR 00AC
ENCODING 172
SWIDTH 560 0
DWIDTH 28 0
BBX 23 13 4 6
BITMAP
FFFFFE
FFFFFE
FFFFFE
00000E
00000E
00000E
00000E
00000E
00000E
00000E
00000E
00000E
00000E
ENDCHAR
STARTCHAR 00AD
ENCODING 173
SWIDTH 300 0
DWIDTH 15 0
BBX 12 3 2 12
BITMAP
FFF0
FFF0
FFE0
ENDCHAR
STARTCHAR 00AE
ENCODING 174
SWIDTH 820 0
DWIDTH 41 0
BBX 37 36 2 0
BITMAP
0007FF0000
001FFFE000
007F87F800
01F0007C00
03E0001E00
0780000F00
0F00000380
0E0FF001C0
1C0FFF01E0
380FFF80E0
380F0FC070
300F03C070
700F03C070
700F01C038
600F01C038
600F03C038
E00F07C038
E00FFF8038
E00FFF0038
E00FFC0038
600F1E0038
600F0E0038
700F0F0038
700F078030
700F078070
380F03C070
380F01C0E0
1C0F01E0E0
1E0F00F1C0
0F00000380
0780000780
03C0001F00
01F0003E00
00FE01F800
003FFFF000
000FFF8000
ENDCHAR
STARTCHAR 00AF
ENCODING 175
SWIDTH 400 0
DWIDTH 20 0
BBX 20 3 5 38
BITMAP
7FFFF0
FFFFF0
FFFFF0
ENDCHAR
STARTCHAR 00B0
ENCODING 176
SWIDTH 420 0
DWIDTH 21 0
BBX 16 15 3 21
BITMAP
0FE0
3FF8
7FFC
701E
F00E
E00E
E00E
E007
E00F
E00E
F00E
781E
3FFC
1FF8
0FE0
ENDCHAR
STARTCHAR 00B1
ENCODING 177
SWIDTH 560 0
DWIDTH 28 0
BBX 23 30 4 0
BITMAP
003800
003800
003800
003800
003800
003800
003800
003800
003800
003800
003800
FFFFFE
FFFFFE
FFFFFE
003800
003800
003800
003800
003800
003800
003800
003800
003800
003800
000000
000000
000000
FFFFFE
FFFFFE
FFFFFE
ENDCHAR
STARTCHAR 00B2
ENCODING 178
SWIDTH 340 0
DWIDTH 17 0
BBX 16 22 4 21
BITMAP
00E0
07FC
0FFE
0E1E
080F
0007
000F
000F
000E
001E
003C
0078
00F0
01E0
03C0
0780
0F00
3C00
7800
FFFC
FFFC
FFF8
ENDCHAR
STARTCHAR 00B3
ENCODING 179
SWIDTH 340 0
DWIDTH 17 0
BBX 16 23 4 20
BITMAP
00F0
07FC
1FFE
0E1E
080F
000F
000F
000E
001E
007C
07F0
0FF0
00F8
003C
001C
001C
001C
001C
803C
F0F8
FFF0
7FE0
0A00
ENDCHAR
STARTCHAR 00B4
ENCODING 180
SWIDTH 240 0
DWIDTH 12 0
BBX 10 8 6 30
BITMAP
07C0
0F80
0F00
1E00
3C00
7800
F000
E000
ENDCHAR
STARTCHAR 00B5
ENCODING 181
SWIDTH 580 0
DWIDTH 29 0
BBX 29 39 -1 -12
BITMAP
00F00078
00F000F0
00F000F0
01E000F0
01E000F0
01E001E0
01E001E0
01E001E0
03C001E0
03C001E0
03C003C0
03C003C0
07C003C0
078003C0
078007C0
07800780
07800780
0F800F80
0F000F80
0F001F80
0F003F00
0F007F00
1F80EF00
1F81EF00
1FFFCE00
1DFF8E00
1CFE0E00
3C000000
3C000000
3C000000
3C000000
78000000
78000000
78000000
78000000
78000000
F0000000
F0000000
F0000000
ENDCHAR
STARTCHAR 00B6
ENCODING 182
SWIDTH 640 0
DWIDTH 32 0
BBX 24 44 5 -6
BITMAP
01FFFF
0FFFFF
1FFFFF
3FFFFF
3FFF07
7FFF07
7FFF07
FFFF07
FFFF07
FFFF07
FFFF07
FFFF07
FFFF07
FFFF07
FFFF07
FFFF07
FFFF07
FFFF07
7FFF07
7FFF07
3FFF07
1FFF07
0FFF07
07FF07
000707
000707
000707
000707
000707
000707
000707
000707
000707
000707
000707
000707
000707
000707
000707
000707
000707
000707
000707
000707
ENDCHAR
STARTCHAR 00B7
ENCODING 183
SWIDTH 240 0
DWIDTH 12 0
BBX 6 7 4 14
BITMAP
10
7C
FC
FC
FC
F8
70
ENDCHAR
STARTCHAR 00B8
ENCODING 184
SWIDTH 200 0
DWIDTH 10 0
BBX 9 12 -4 -12
BITMAP
0E00
0E00
1C00
1E00
1F80
0780
0380
0380
0780
FF00
FE00
FC00
ENDCHAR
STARTCHAR 00B9
ENCODING 185
SWIDTH 340 0
DWIDTH 17 0
BBX 10 21 7 21
BITMAP
03C0
07C0
1FC0
3FC0
FB80
6380
0380
0780
0780
0700
0700
0700
0F00
0F00
0E00
0E00
1E00
1E00
1C00
1C00
1C00
ENDCHAR
STARTCHAR 00BA
ENCODING 186
SWIDTH 340 0
DWIDTH 17 0
BBX 15 17 4 19
BITMAP
07F0
0FF8
1F7C
3C1C
380C
700E
700E
600E
E00C
E01C
E01C
E01C
7038
7078
7FF0
3FE0
0780
ENDCHAR
STARTCHAR 00BB
ENCODING 187
SWIDTH 460 0
DWIDTH 23 0
BBX 20 20 1 4
BITMAP
1C0E00
1C0F00
1E0700
0F0780
0F0380
0783C0
0781C0
03C1E0
03C1E0
03E0F0
03C0F0
0781F0
0F03E0
1E07C0
3E0F80
7C1F00
783E00
F07800
E07000
402000
ENDCHAR
STARTCHAR 00BC
ENCODING 188
SWIDTH 720 0
DWIDTH 36 0
BBX 29 36 5 0
BITMAP
00E00038
03E00078
0FC000F0
1FC001E0
7DC001C0
79C003C0
23C00780
03800F00
03800E00
03801E00
07803C00
07007800
07007000
0700F000
0F01E038
0F03C078
0E0380F8
0E0781F8
0E0F01F8
1E1E03F0
1E1C0770
1C3C0E70
00781C70
00703CE0
00F038E0
01E070E0
03C0E0E0
0381C1E0
0783FFF8
0F03FFF8
1E03FFF8
1C0001C0
3C0003C0
78000380
F0000380
E0000380
ENDCHAR
STARTCHAR 00BD
ENCODING 189
SWIDTH 780 0
DWIDTH 39 0
BBX 33 36 5 0
BITMAP
00E0003800
03E0007800
0FC000F000
1FC001E000
7DC001C000
79C003C000
23C0078000
03800F0000
03800E0000
03801E0000
07803C0000
0700780000
0700700000
0700F00000
0F01E0FC00
0F01C3FE00
0E03CFFF00
0E07870700
0E0F040780
1E0E000780
1E1E000780
1C3C000700
0078000700
0070000E00
00F0001E00
01E0003C00
03C0007800
038000F000
078001E000
0F00078000
1E000F0000
1C001E0000
3C003C0000
78007FFE00
F0007FFE00
E000FFFC00
ENDCHAR
STARTCHAR 00BE
ENCODING 190
SWIDTH 780 0
DWIDTH 39 0
BBX 34 36 3 0
BITMAP
07F80001C0
1FFC0003C0
1FFE000780
081E000F00
000E000E00
000E001E00
000E003C00
001E007800
003C007000
0FF800F000
0FC001E000
0FF003C000
0078038000
003C078000
003C0F01C0
001C0E03C0
003C1C07C0
00383C0FC0
8078781F80
FFF0701F80
FFE0F03B80
7F81E07380
0003C0E700
000381C700
000783C700
000F038700
001E070F00
001C0E0E00
003C1FFFC0
00781FFFC0
00F01FFFC0
00E0001E00
01E0001C00
03C0001C00
0780001C00
0700001C00
ENDCHAR
STARTCHAR 00BF
ENCODING 191
SWIDTH 420 0
DWIDTH 21 0
BBX 19 37 -1 -10
BITMAP
0003C0
0007E0
0007E0
0007E0
0007C0
000780
000000
000000
000000
000000
000700
000700
000F00
000E00
001E00
003E00
007C00
00F800
03F000
07E000
0FC000
1F0000
3E0000
3C0000
780000
780000
F00000
F00000
F00000
F00000
F80000
F80100
7C0780
7FFF80
3FFF80
0FFE00
01E000
ENDCHAR
STARTCHAR 00C0
ENCODING 192
SWIDTH 560 0
DWIDTH 28 0
BBX 29 47 -3 0
BITMAP
00007C00
00003C00
00001E00
00001E00
00000F00
00000700
00000380
00000380
00000000
00000000
00000000
00000F00
00001F00
00001F00
00003F00
00007F80
00007F80
0000F780
0000F780
0001E780
0001E780
0003C380
0003C380
000783C0
000783C0
000F03C0
001F03C0
001E03C0
003E03C0
003C03C0
007C01E0
007801E0
00FFFFE0
00FFFFE0
01FFFFE0
03FFFFE0
03C001E0
07C001E0
078001F0
0F8000F0
0F0000F0
1F0000F0
1E0000F0
3E0000F0
3C0000F0
7C0000F0
F80000F8
ENDCHAR
STARTCHAR 00C1
ENCODING 193
SWIDTH 560 0
DWIDTH 28 0
BBX 30 47 -3 0
BITMAP
0000007C
00000078
000000F0
000001E0
000003C0
00000780
00000700
00000E00
00000000
00000000
00000000
00000F00
00001F00
00001F00
00003F00
00007F80
00007F80
0000F780
0000F780
0001E780
0001E780
0003C380
0003C380
000783C0
000783C0
000F03C0
001F03C0
001E03C0
003E03C0
003C03C0
007C01E0
007801E0
00FFFFE0
00FFFFE0
01FFFFE0
03FFFFE0
03C001E0
07C001E0
078001F0
0F8000F0
0F0000F0
1F0000F0
1E0000F0
3E0000F0
3C0000F0
7C0000F0
F80000F8
ENDCHAR
STARTCHAR 00C2
ENCODING 194
SWIDTH 560 0
DWIDTH 28 0
BBX 30 47 -3 0
BITMAP
000007C0
00000FC0
00001FE0
00003EE0
000078F0
0000F078
0001E038
0001C01C
00000000
00000000
00000000
00000F00
00001F00
00001F00
00003F00
00007F80
00007F80
0000F780
0000F780
0001E780
0001E780
0003C380
0003C380
000783C0
000783C0
000F03C0
001F03C0
001E03C0
003E03C0
003C03C0
007C01E0
007801E0
00FFFFE0
00FFFFE0
01FFFFE0
03FFFFE0
03C001E0
07C001E0
078001F0
0F8000F0
0F0000F0
1F0000F0
1E0000F0
3E0000F0
3C0000F0
7C0000F0
F80000F8
ENDCHAR
STARTCHAR 00C3
ENCODING 195
SWIDTH 560 0
DWIDTH 28 0
BBX 32 46 -3 0
BITMAP
00001803
00007E07
0000FF86
0001FFFE
0001C3FC
000381FC
00038030
00000000
00000000
00000000
00000F00
00001F00
00001F00
00003F00
00007F80
00007F80
0000F780
0000F780
0001E780
0001E780
0003C380
0003C380
000783C0
000783C0
000F03C0
001F03C0
001E03C0
003E03C0
003C03C0
007C01E0
007801E0
00FFFFE0
00FFFFE0
01FFFFE0
03FFFFE0
03C001E0
07C001E0
078001F0
0F8000F0
0F0000F0
1F0000F0
1E0000F0
3E0000F0
3C0000F0
7C0000F0
F80000F8
ENDCHAR
STARTCHAR 00C4
ENCODING 196
SWIDTH 560 0
DWIDTH 28 0
BBX 30 45 -3 0
BITMAP
0000783C
0000F87C
0000F87C
00007038
00000000
00000000
00000000
00000000
00000000
00000F00
00001F00
00001F00
00003F00
00007F80
00007F80
0000F780
0000F780
0001E780
0001E780
0003C380
0003C380
000783C0
000783C0
000F03C0
001F03C0
001E03C0
003E03C0
003C03C0
007C01E0
007801E0
00FFFFE0
00FFFFE0
01FFFFE0
03FFFFE0
03C001E0
07C001E0
078001F0
0F8000F0
0F0000F0
1F0000F0
1E0000F0
3E0000F0
3C0000F0
7C0000F0
F80000F8
ENDCHAR
STARTCHAR 00C5
ENCODING 197
SWIDTH 560 0
DWIDTH 28 0
BBX 29 49 -3 0
BITMAP
00000FC0
00001FE0
000038F0
00003070
00007030
00007030
00003070
000038F0
00001FE0
00000FC0
00000000
00000000
00000000
00000F00
00001F00
00001F00
00003F00
00007F80
00007F80
0000F780
0000F780
0001E780
0001E780
0003C380
0003C380
000783C0
000783C0
000F03C0
001F03C0
001E03C0
003E03C0
003C03C0
007C01E0
007801E0
00FFFFE0
00FFFFE0
01FFFFE0
03FFFFE0
03C001E0
07C001E0
078001F0
0F8000F0
0F0000F0
1F0000F0
1E0000F0
3E0000F0
3C0000F0
7C0000F0
F80000F8
ENDCHAR
STARTCHAR 00C6
ENCODING 198
SWIDTH 800 0
DWIDTH 40 0
BBX 46 36 -3 0
BITMAP
000001FFFFFC
000003FFFFFC
000007FFFFFC
000007FFFFF8
00000F9E0000
00000F1E0000
00001E3E0000
00003E3C0000
00003C3C0000
0000783C0000
0000F83C0000
0000F07C0000
0001F0780000
0003E0780000
0003C0780000
0007C0780000
000780FFFFC0
000F00FFFF80
001F00FFFF80
001E00F00000
003E01F00000
007FFFE00000
007FFFE00000
00FFFFE00000
01FFFFE00000
01E003E00000
03E003C00000
03C003C00000
07C003C00000
0F8003C00000
0F0007C00000
1F0007800000
3E0007FFFE00
3C0007FFFE00
7C0007FFFE00
F8000FFFFE00
ENDCHAR
STARTCHAR 00C7
ENCODING 199
SWIDTH 580 0
DWIDTH 29 0
BBX 27 48 4 -12
BITMAP
0003FF00
001FFFE0
007FFFE0
00FFCFE0
01FC00C0
03F00000
07C00000
0F800000
0F800000
1F000000
3E000000
3E000000
3C000000
7C000000
78000000
78000000
F8000000
F8000000
F0000000
F0000000
F0000000
F0000000
F0000000
F0000000
F0000000
F0000000
F0000000
F8000000
F8000000
7C000000
7E000000
3F000000
1FC0F800
0FFFF800
07FFF800
01FFF000
00380000
00300000
00700000
00F80000
007C0000
001E0000
001E0000
001E0000
001C0000
07FC0000
07F80000
07E00000
ENDCHAR
STARTCHAR 00C8
ENCODING 200
SWIDTH 500 0
DWIDTH 25 0
BBX 26 47 2 0
BITMAP
000F8000
00078000
00078000
0003C000
0001E000
0000E000
0000F000
00007000
00000000
00000000
00000000
00FFFFC0
01FFFF80
01FFFF80
01FFFF80
01E00000
01E00000
03C00000
03C00000
03C00000
03C00000
07C00000
07800000
07800000
07800000
07800000
0F800000
0FFFF800
0FFFF800
0FFFF800
0F000000
1F000000
1E000000
1E000000
1E000000
1E000000
3C000000
3C000000
3C000000
3C000000
7C000000
78000000
78000000
7FFFE000
7FFFE000
FFFFE000
FFFFC000
ENDCHAR
STARTCHAR 00C9
ENCODING 201
SWIDTH 500 0
DWIDTH 25 0
BBX 26 47 2 0
BITMAP
00000F80
00001F00
00001E00
00003C00
00007800
0000F000
0001E000
0001C000
00000000
00000000
00000000
00FFFFC0
01FFFF80
01FFFF80
01FFFF80
01E00000
01E00000
03C00000
03C00000
03C00000
03C00000
07C00000
07800000
07800000
07800000
07800000
0F800000
0FFFF800
0FFFF800
0FFFF800
0F000000
1F000000
1E000000
1E000000
1E000000
1E000000
3C000000
3C000000
3C000000
3C000000
7C000000
78000000
78000000
7FFFE000
7FFFE000
FFFFE000
FFFFC000
ENDCHAR
STARTCHAR 00CA
ENCODING 202
SWIDTH 500 0
DWIDTH 25 0
BBX 26 47 2 0
BITMAP
0000F800
0001F800
0003FC00
0007BC00
000F1E00
001E0E00
003C0700
00700300
00000000
00000000
00000000
00FFFFC0
01FFFF80
01FFFF80
01FFFF80
01E00000
01E00000
03C00000
03C00000
03C00000
03C00000
07C00000
07800000
07800000
07800000
07800000
0F800000
0FFFF800
0FFFF800
0FFFF800
0F000000
1F000000
1E000000
1E000000
1E000000
1E000000
3C000000
3C000000
3C000000
3C000000
7C000000
78000000
78000000
7FFFE000
7FFFE000
FFFFE000
FFFFC000
ENDCHAR
STARTCHAR 00CB
ENCODING 203
SWIDTH 500 0
DWIDTH 25 0
BBX 26 45 2 0
BITMAP
000E0700
001F0F80
001F0F00
001E0F00
00000000
00000000
00000000
00000000
00000000
00FFFFC0
01FFFF80
01FFFF80
01FFFF80
01E00000
01E00000
03C00000
03C00000
03C00000
03C00000
07C00000
07800000
07800000
07800000
07800000
0F800000
0FFFF800
0FFFF800
0FFFF800
0F000000
1F000000
1E000000
1E000000
1E000000
1E000000
3C000000
3C000000
3C000000
3C000000
7C000000
78000000
78000000
7FFFE000
7FFFE000
FFFFE000
FFFFC000
ENDCHAR
STARTCHAR 00CC
ENCODING 204
SWIDTH 260 0
DWIDTH 13 0
BBX 13 47 2 0
BITMAP
07C0
03C0
03C0
01E0
00E0
00F0
0070
0038
0000
0000
0000
00F0
01F0
01E0
01E0
01E0
01E0
03C0
03C0
03C0
03C0
03C0
0780
0780
0780
0780
0F80
0F00
0F00
0F00
0F00
1E00
1E00
1E00
1E00
1E00
3C00
3C00
3C00
3C00
7C00
7800
7800
7800
7800
F000
F000
ENDCHAR
STARTCHAR 00CD
ENCODING 205
SWIDTH 260 0
DWIDTH 13 0
BBX 18 47 2 0
BITMAP
0007C0
000780
000F80
001F00
003E00
003800
007000
00E000
000000
000000
000000
00F000
01F000
01E000
01E000
01E000
01E000
03C000
03C000
03C000
03C000
03C000
078000
078000
078000
078000
0F8000
0F0000
0F0000
0F0000
0F0000
1E0000
1E0000
1E0000
1E0000
1E0000
3C0000
3C0000
3C0000
3C0000
7C0000
780000
780000
780000
780000
F00000
F00000
ENDCHAR
STARTCHAR 00CE
ENCODING 206
SWIDTH 260 0
DWIDTH 13 0
BBX 18 47 2 0
BITMAP
007C00
007E00
00FE00
01EF00
03C700
078780
0E03C0
1C01C0
000000
000000
000000
00F000
01F000
01E000
01E000
01E000
01E000
03C000
03C000
03C000
03C000
03C000
078000
078000
078000
078000
0F8000
0F0000
0F0000
0F0000
0F0000
1E0000
1E0000
1E0000
1E0000
1E0000
3C0000
3C0000
3C0000
3C0000
7C0000
780000
780000
780000
780000
F00000
F00000
ENDCHAR
STARTCHAR 00CF
ENCODING 207
SWIDTH 260 0
DWIDTH 13 0
BBX 18 45 2 0
BITMAP
0783C0
0783C0
0783C0
070380
000000
000000
000000
000000
000000
00F000
01F000
01E000
01E000
01E000
01E000
03C000
03C000
03C000
03C000
03C000
078000
078000
078000
078000
0F8000
0F0000
0F0000
0F0000
0F0000
1E0000
1E0000
1E0000
1E0000
1E0000
3C0000
3C0000
3C0000
3C0000
7C0000
780000
780000
780000
780000
F00000
F00000
ENDCHAR
STARTCHAR 00D0
ENCODING 208
SWIDTH 660 0
DWIDTH 33 0
BBX 30 36 2 0
BITMAP
00FFE000
01FFFE00
01FFFF00
01FFFFC0
01E00FE0
01E003F0
03C001F0
03C000F8
03C000F8
03C00078
07C00078
0780007C
0780007C
0780007C
0780007C
0F80007C
0F00007C
FFFF007C
FFFF007C
FFFF0078
1E000078
1E0000F8
1E0000F8
1E0000F0
3E0001F0
3C0003E0
3C0003E0
3C0007C0
3C000FC0
7C001F80
78007F00
7801FE00
7FFFF800
7FFFF000
FFFFC000
FFFC0000
ENDCHAR
STARTCHAR 00D1
ENCODING 209
SWIDTH 700 0
DWIDTH 35 0
BBX 33 46 2 0
BITMAP
0000200E00
0000FC0E00
0001FF1C00
0003FFFC00
00038FF800
000703F000
0007004000
0000000000
0000000000
0000000000
00F0000780
01F0000780
01F8000780
01F8000780
01FC000700
03FC000F00
03FC000F00
03DE000F00
03DE000F00
039E001E00
078F001E00
078F001E00
0787801E00
0787801E00
0707803C00
0F03C03C00
0F03C03C00
0F03C03C00
0F01E03C00
0E01E07800
1E00F07800
1E00F07800
1E00F07800
1E0078F000
3C0078F000
3C0078F000
3C003CF000
3C003CF000
3C001EE000
78001FE000
78001FE000
78000FE000
78000FE000
700007C000
F00007C000
F00007C000
ENDCHAR
STARTCHAR 00D2
ENCODING 210
SWIDTH 720 0
DWIDTH 36 0
BBX 30 47 4 0
BITMAP
0003E000
0001E000
0000F000
0000F000
00007800
00003800
00003C00
00001C00
00000000
00000000
00000000
0007FE00
003FFF80
007FFFC0
01FF3FE0
03F803F0
07E001F8
0FC000F8
0F800078
1F00007C
1E00007C
3E00003C
3C00003C
7C00003C
7800003C
7800003C
F800003C
F800003C
F000003C
F000003C
F000007C
F000007C
F000007C
F0000078
F00000F8
F00000F8
F00001F0
F80001F0
F80003E0
780003E0
7C0007C0
7E000F80
3F003F80
1FC0FF00
0FFFFC00
07FFF800
01FFE000
ENDCHAR
STARTCHAR 00D3
ENCODING 211
SWIDTH 720 0
DWIDTH 36 0
BBX 30 47 4 0
BITMAP
000003E0
000007C0
00000780
00000F00
00001E00
00003C00
00007800
00007000
00000000
00000000
00000000
0007FE00
003FFF80
007FFFC0
01FF3FE0
03F803F0
07E001F8
0FC000F8
0F800078
1F00007C
1E00007C
3E00003C
3C00003C
7C00003C
7800003C
7800003C
F800003C
F800003C
F000003C
F000003C
F000007C
F000007C
F000007C
F0000078
F00000F8
F00000F8
F00001F0
F80001F0
F80003E0
780003E0
7C0007C0
7E000F80
3F003F80
1FC0FF00
0FFFFC00
07FFF800
01FFE000
ENDCHAR
STARTCHAR 00D4
ENCODING 212
SWIDTH 720 0
DWIDTH 36 0
BBX 30 47 4 0
BITMAP
00003E00
00007E00
0000FF00
0001FF00
0003C780
00078380
000F01C0
001E00C0
00000000
00000000
00000000
0007FE00
003FFF80
007FFFC0
01FF3FE0
03F803F0
07E001F8
0FC000F8
0F800078
1F00007C
1E00007C
3E00003C
3C00003C
7C00003C
7800003C
7800003C
F800003C
F800003C
F000003C
F000003C
F000007C
F000007C
F000007C
F0000078
F00000F8
F00000F8
F00001F0
F80001F0
F80003E0
780003E0
7C0007C0
7E000F80
3F003F80
1FC0FF00
0FFFFC00
07FFF800
01FFE000
ENDCHAR
STARTCHAR 00D5
ENCODING 213
SWIDTH 720 0
DWIDTH 36 0
BBX 30 46 4 0
BITMAP
00008018
0003F038
0007FC70
000FFFF0
000E3FE0
001C0FC0
001C0100
00000000
00000000
00000000
0007FE00
003FFF80
007FFFC0
01FF3FE0
03F803F0
07E001F8
0FC000F8
0F800078
1F00007C
1E00007C
3E00003C
3C00003C
7C00003C
7800003C
7800003C
F800003C
F800003C
F000003C
F000003C
F000007C
F000007C
F000007C
F0000078
F00000F8
F00000F8
F00001F0
F80001F0
F80003E0
780003E0
7C0007C0
7E000F80
3F003F80
1FC0FF00
0FFFFC00
07FFF800
01FFE000
ENDCHAR
STARTCHAR 00D6
ENCODING 214
SWIDTH 720 0
DWIDTH 36 0
BBX 30 45 4 0
BITMAP
000381C0
0007C3E0
0007C3E0
000381C0
00000000
00000000
00000000
00000000
00000000
0007FE00
003FFF80
007FFFC0
01FF3FE0
03F803F0
07E001F8
0FC000F8
0F800078
1F00007C
1E00007C
3E00003C
3C00003C
7C00003C
7800003C
7800003C
F800003C
F800003C
F000003C
F000003C
F000007C
F000007C
F000007C
F0000078
F00000F8
F00000F8
F00001F0
F80001F0
F80003E0
780003E0
7C0007C0
7E000F80
3F003F80
1FC0FF00
0FFFFC00
07FFF800
01FFE000
ENDCHAR
STARTCHAR 00D7
ENCODING 215
SWIDTH 560 0
DWIDTH 28 0
BBX 22 22 4 7
BITMAP
200000
700018
F8003C
7C0078
3E00F0
1F01E0
0F83C0
07C780
03EF00
01FE00
00FC00
007C00
00FE00
01FF00
03CF80
0787C0
0F83E0
1F01F0
3E00F8
7C007C
78003C
300018
ENDCHAR
STARTCHAR 00D8
ENCODING 216
SWIDTH 720 0
DWIDTH 36 0
BBX 33 39 3 -1
BITMAP
0000000600
0003FE0F80
001FFF8F00
003FFFFE00
00FF8FFC00
01F801FC00
03F000F800
07E000FC00
07C001FC00
0F8003FE00
0F0007DE00
1F000F9E00
1E001F1E00
3E001E1E00
3C003C1E00
3C00781E00
7C00F81E00
7C01F01E00
7801E01E00
7803C01E00
7807801E00
780F803E00
781F003E00
781E003C00
783C007C00
7878007C00
78F0007800
79F000F800
7FE001F000
3FC001F000
3F8003E000
3F0007C000
1F801FC000
3FE07F8000
3FFFFE0000
7BFFFC0000
F0FFF00000
F000000000
2000000000
ENDCHAR
STARTCHAR 00D9
ENCODING 217
SWIDTH 660 0
DWIDTH 33 0
BBX 30 47 4 0
BITMAP
0007C000
0003C000
0001E000
0001E000
0000F000
00007000
00003800
00003800
00000000
00000000
00000000
0780003C
0780003C
0780003C
0780003C
0F00007C
0F000078
0F000078
0F000078
1F000078
1E0000F0
1E0000F0
1E0000F0
1E0000F0
3E0001F0
3C0001E0
3C0001E0
3C0001E0
3C0001E0
780003E0
780003C0
780003C0
780003C0
F80003C0
F00007C0
F0000780
F0000780
F0000F80
F0000F00
F0000F00
F8001E00
78003E00
7C007C00
3F83F800
3FFFF000
1FFFE000
07FF8000
ENDCHAR
STARTCHAR 00DA
ENCODING 218
SWIDTH 660 0
DWIDTH 33 0
BBX 30 47 4 0
BITMAP
000007C0
00000F80
00000F00
00001E00
00003C00
00007800
0000F000
0000E000
00000000
00000000
00000000
0780003C
0780003C
0780003C
0780003C
0F00007C
0F000078
0F000078
0F000078
1F000078
1E0000F0
1E0000F0
1E0000F0
1E0000F0
3E0001F0
3C0001E0
3C0001E0
3C0001E0
3C0001E0
780003E0
780003C0
780003C0
780003C0
F80003C0
F00007C0
F0000780
F0000780
F0000F80
F0000F00
F0000F00
F8001E00
78003E00
7C007C00
3F83F800
3FFFF000
1FFFE000
07FF8000
ENDCHAR
STARTCHAR 00DB
ENCODING 219
SWIDTH 660 0
DWIDTH 33 0
BBX 30 47 4 0
BITMAP
00007C00
0000FC00
0001FE00
0003FE00
00078F00
000F0700
001E0380
003C01C0
00000000
00000000
00000000
0780003C
0780003C
0780003C
0780003C
0F00007C
0F000078
0F000078
0F000078
1F000078
1E0000F0
1E0000F0
1E0000F0
1E0000F0
3E0001F0
3C0001E0
3C0001E0
3C0001E0
3C0001E0
780003E0
780003C0
780003C0
780003C0
F80003C0
F00007C0
F0000780
F0000780
F0000F80
F0000F00
F0000F00
F8001E00
78003E00
7C007C00
3F83F800
3FFFF000
1FFFE000
07FF8000
ENDCHAR
STARTCHAR 00DC
ENCODING 220
SWIDTH 660 0
DWIDTH 33 0
BBX 30 45 4 0
BITMAP
00070380
000F87C0
000F87C0
00070380
00000000
00000000
00000000
00000000
00000000
0780003C
0780003C
0780003C
0780003C
0F00007C
0F000078
0F000078
0F000078
1F000078
1E0000F0
1E0000F0
1E0000F0
1E0000F0
3E0001F0
3C0001E0
3C0001E0
3C0001E0
3C0001E0
780003E0
780003C0
780003C0
780003C0
F80003C0
F00007C0
F0000780
F0000780
F0000F80
F0000F00
F0000F00
F8001E00
78003E00
7C007C00
3F83F800
3FFFF000
1FFFE000
07FF8000
ENDCHAR
STARTCHAR 00DD
ENCODING 221
SWIDTH 500 0
DWIDTH 25 0
BBX 25 47 5 0
BITMAP
0000F800
0001F000
0003E000
0003C000
00078000
000F0000
001E0000
00180000
00000000
00000000
00000000
F0000F80
F0001F00
F0001E00
F8003E00
78007C00
78007800
7800F800
3C01F000
3C01E000
3C03E000
3C07C000
1C078000
1E0F8000
1E0F0000
1E1E0000
0E3E0000
0F3C0000
0F780000
0FF00000
07F00000
07E00000
07C00000
07C00000
07800000
07800000
07800000
07800000
0F800000
0F000000
0F000000
0F000000
0F000000
1F000000
1E000000
1E000000
1E000000
ENDCHAR
STARTCHAR 00DE
ENCODING 222
SWIDTH 560 0
DWIDTH 28 0
BBX 25 36 2 0
BITMAP
00F00000
01F00000
01E00000
01E00000
01E00000
01E00000
03C00000
03FFF000
03FFFC00
03FFFE00
07C07F00
07801F00
07800F80
07800F80
07800780
0F800780
0F000780
0F000780
0F000F80
0F000F80
1E000F00
1E001F00
1E003E00
1E00FE00
1E0FFC00
3FFFF000
3FFFC000
3FFF0000
3C000000
7C000000
78000000
78000000
78000000
78000000
F8000000
F0000000
ENDCHAR
STARTCHAR 00DF
ENCODING 223
SWIDTH 560 0
DWIDTH 28 0
BBX 33 50 -6 -12
BITMAP
00000FF800
00003FFE00
00007FFF00
0000FC1F80
0001F00780
0001E00780
0003E00780
0003C00780
0003C00780
0007800F80
0007801F00
0007803E00
000780FC00
000781F800
000F03E000
000F07C000
000F078000
000F0F0000
000F0F0000
001E0F8000
001E078000
001E07C000
001E03F000
003E01F800
003C00FC00
003C007C00
003C003E00
003C001E00
0078001F00
0078001F00
0078001F00
0078001E00
0078001E00
00F1003E00
00F1C07C00
00F1FFF800
00F1FFF000
00F0FFE000
01E0000000
01E0000000
01E0000000
01E0000000
03E0000000
03C0000000
03C0000000
0780000000
DF80000000
FF00000000
FE00000000
FC00000000
ENDCHAR
STARTCHAR 00E0
ENCODING 224
SWIDTH 560 0
DWIDTH 28 0
BBX 25 38 2 0
BITMAP
001E0000
001F0000
000F0000
00078000
00078000
0003C000
0001C000
0000E000
00000000
00000000
00000000
003F8380
00FFC380
01FFE780
03F0F780
07C07700
0F803F00
1F001F00
1E001F00
3E001F00
3C001E00
3C001E00
7C001E00
78001E00
78003C00
78003C00
78003C00
F8007C00
F8007C00
F800F800
F800F800
7801F800
7803F800
7C077800
7E1E7000
3FFC7000
1FF87000
0FF0F000
ENDCHAR
STARTCHAR 00E1
ENCODING 225
SWIDTH 560 0
DWIDTH 28 0
BBX 25 38 2 0
BITMAP
00003E00
00003C00
00007C00
0000F000
0001E000
0001C000
00038000
00070000
00000000
00000000
00000000
003F8380
00FFC380
01FFE780
03F0F780
07C07700
0F803F00
1F001F00
1E001F00
3E001F00
3C001E00
3C001E00
7C001E00
78001E00
78003C00
78003C00
78003C00
F8007C00
F8007C00
F800F800
F800F800
7801F800
7803F800
7C077800
7E1E7000
3FFC7000
1FF87000
0FF0F000
ENDCHAR
STARTCHAR 00E2
ENCODING 226
SWIDTH 560 0
DWIDTH 28 0
BBX 25 38 2 0
BITMAP
0003E000
0007E000
000FF000
000F7800
001E3800
00783C00
00F01C00
00E00E00
00000000
00000000
00000000
003F8380
00FFC380
01FFE780
03F0F780
07C07700
0F803F00
1F001F00
1E001F00
3E001F00
3C001E00
3C001E00
7C001E00
78001E00
78003C00
78003C00
78003C00
F8007C00
F8007C00
F800F800
F800F800
7801F800
7803F800
7C077800
7E1E7000
3FFC7000
1FF87000
0FF0F000
ENDCHAR
STARTCHAR 00E3
ENCODING 227
SWIDTH 560 0
DWIDTH 28 0
BBX 25 37 2 0
BITMAP
00080180
003F0380
007FC380
00FFFF00
00E1FF00
00C0FE00
01C03000
00000000
00000000
00000000
003F8380
00FFC380
01FFE780
03F0F780
07C07700
0F803F00
1F001F00
1E001F00
3E001F00
3C001E00
3C001E00
7C001E00
78001E00
78003C00
78003C00
78003C00
F8007C00
F8007C00
F800F800
F800F800
7801F800
7803F800
7C077800
7E1E7000
3FFC7000
1FF87000
0FF0F000
ENDCHAR
STARTCHAR 00E4
ENCODING 228
SWIDTH 560 0
DWIDTH 28 0
BBX 25 36 2 0
BITMAP
003C1E00
003C1E00
003C1E00
00381C00
00000000
00000000
00000000
00000000
00000000
003F8380
00FFC380
01FFE780
03F0F780
07C07700
0F803F00
1F001F00
1E001F00
3E001F00
3C001E00
3C001E00
7C001E00
78001E00
78003C00
78003C00
78003C00
F8007C00
F8007C00
F800F800
F800F800
7801F800
7803F800
7C077800
7E1E7000
3FFC7000
1FF87000
0FF0F000
ENDCHAR
STARTCHAR 00E5
ENCODING 229
SWIDTH 560 0
DWIDTH 28 0
BBX 25 41 2 0
BITMAP
00018000
000FF000
001FF800
001C3800
00181800
00181800
00181800
001C3800
001FF800
000FF000
00018000
00000000
00000000
00000000
003F8380
00FFC380
01FFE780
03F0F780
07C07700
0F803F00
1F001F00
1E001F00
3E001F00
3C001E00
3C001E00
7C001E00
78001E00
78003C00
78003C00
78003C00
F8007C00
F8007C00
F800F800
F800F800
7801F800
7803F800
7C077800
7E1E7000
3FFC7000
1FF87000
0FF0F000
ENDCHAR
STARTCHAR 00E6
ENCODING 230
SWIDTH 820 0
DWIDTH 41 0
BBX 38 27 2 0
BITMAP
003F071FE0
00FF873FF0
03FFCEFFF8
07F1EFF0FC
07C06FC07C
0F807F803C
1F003F003C
1E003F003C
3E003E0078
3C003E00F8
3C003C01F0
7C003C1FF0
78003FFFC0
78007FFF00
78007FFC00
7800780000
F800F80000
F800F80000
F801F80000
F801F80000
7803FC0000
7807FC0000
780EFE0020
7C1EFF01E0
3FFCEFFFE0
3FF0CFFFE0
0FE1C3FF80
ENDCHAR
STARTCHAR 00E7
ENCODING 231
SWIDTH 440 0
DWIDTH 22 0
BBX 21 39 2 -12
BITMAP
003FF0
00FFF8
01FFF8
03F070
07C000
0F8000
1F0000
1E0000
3E0000
3C0000
7C0000
780000
780000
780000
780000
F80000
F80000
F80000
F80000
780000
780000
7C0000
7C0000
3F0180
1FFF80
0FFF80
07FF00
01C000
01C000
038000
03C000
03F000
00F000
007000
007000
00F000
1FE000
1FC000
1F0000
ENDCHAR
STARTCHAR 00E8
ENCODING 232
SWIDTH 480 0
DWIDTH 24 0
BBX 21 38 2 0
BITMAP
007C00
003C00
001E00
001E00
000F00
000700
000380
000380
000000
000000
000000
003FC0
00FFF0
01FFF0
03F0F8
07C078
0F8078
1F0078
1E0078
3E0078
3C00F8
3C03F0
781FE0
7FFFC0
7FFF00
7FF800
780000
F80000
F80000
F80000
780000
780000
7C0000
7C0040
3F01C0
1FFFC0
0FFFC0
07FF00
ENDCHAR
STARTCHAR 00E9
ENCODING 233
SWIDTH 480 0
DWIDTH 24 0
BBX 22 38 2 0
BITMAP
00007C
0000F8
0000F0
0001E0
0003C0
000780
000F00
000E00
000000
000000
000000
003FC0
00FFF0
01FFF0
03F0F8
07C078
0F8078
1F0078
1E0078
3E0078
3C00F8
3C03F0
781FE0
7FFFC0
7FFF00
7FF800
780000
F80000
F80000
F80000
780000
780000
7C0000
7C0040
3F01C0
1FFFC0
0FFFC0
07FF00
ENDCHAR
STARTCHAR 00EA
ENCODING 234
SWIDTH 480 0
DWIDTH 24 0
BBX 21 38 2 0
BITMAP
0007C0
000FC0
001FE0
003DE0
0078F0
00F070
01E038
038018
000000
000000
000000
003FC0
00FFF0
01FFF0
03F0F8
07C078
0F8078
1F0078
1E0078
3E0078
3C00F8
3C03F0
781FE0
7FFFC0
7FFF00
7FF800
780000
F80000
F80000
F80000
780000
780000
7C0000
7C0040
3F01C0
1FFFC0
0FFFC0
07FF00
ENDCHAR
STARTCHAR 00EB
ENCODING 235
SWIDTH 480 0
DWIDTH 24 0
BBX 22 36 2 0
BITMAP
007038
00F87C
00F87C
007078
000000
000000
000000
000000
000000
003FC0
00FFF0
01FFF0
03F0F8
07C078
0F8078
1F0078
1E0078
3E0078
3C00F8
3C03F0
781FE0
7FFFC0
7FFF00
7FF800
780000
F80000
F80000
F80000
780000
780000
7C0000
7C0040
3F01C0
1FFFC0
0FFFC0
07FF00
ENDCHAR
STARTCHAR 00EC
ENCODING 236
SWIDTH 240 0
DWIDTH 12 0
BBX 11 38 2 0
BITMAP
1E00
1F00
0F00
0780
0780
03C0
01C0
00E0
0000
0000
0000
0780
0780
0780
0F80
0F00
0F00
0F00
0F00
1E00
1E00
1E00
1E00
3E00
3C00
3C00
3C00
3C00
7C00
7800
7800
7800
7800
F000
F000
F000
F000
F000
ENDCHAR
STARTCHAR 00ED
ENCODING 237
SWIDTH 240 0
DWIDTH 12 0
BBX 15 38 2 0
BITMAP
001E
003E
007C
00F8
00F0
01E0
0380
0700
0000
0000
0000
0780
0780
0780
0F80
0F00
0F00
0F00
0F00
1E00
1E00
1E00
1E00
3E00
3C00
3C00
3C00
3C00
7C00
7800
7800
7800
7800
F000
F000
F000
F000
F000
ENDCHAR
STARTCHAR 00EE
ENCODING 238
SWIDTH 240 0
DWIDTH 12 0
BBX 15 38 2 0
BITMAP
03E0
03F0
07F0
0F78
1E38
3C3C
701E
E00E
0000
0000
0000
0780
0780
0780
0F80
0F00
0F00
0F00
0F00
1E00
1E00
1E00
1E00
3E00
3C00
3C00
3C00
3C00
7C00
7800
7800
7800
7800
F000
F000
F000
F000
F000
ENDCHAR
STARTCHAR 00EF
ENCODING 239
SWIDTH 240 0
DWIDTH 12 0
BBX 15 36 2 0
BITMAP
3C1E
3C1E
3C1E
381C
0000
0000
0000
0000
0000
0780
0780
0780
0F80
0F00
0F00
0F00
0F00
1E00
1E00
1E00
1E00
3E00
3C00
3C00
3C00
3C00
7C00
7800
7800
7800
7800
F000
F000
F000
F000
F000
ENDCHAR
STARTCHAR 00F0
ENCODING 240
SWIDTH 560 0
DWIDTH 28 0
BBX 26 38 2 0
BITMAP
00040100
000F0780
001F8FC0
000FFF00
0003FC00
0003F000
000FF000
001FF800
007E7C00
00783C00
00201E00
00001E00
00001E00
00000E00
000C0F00
00FF8F00
03FFEF00
07FFEF00
0FC0FF00
1F007F00
3E003F00
3C001F00
7C001F00
78001F00
78001E00
F8001E00
F8001E00
F0001E00
F0003C00
F0003C00
F0007C00
F8007800
7800F800
7C01F000
3E07E000
3FFFC000
1FFF8000
07FE0000
ENDCHAR
STARTCHAR 00F1
ENCODING 241
SWIDTH 560 0
DWIDTH 28 0
BBX 27 37 1 0
BITMAP
000200E0
001FC0C0
003FE1C0
003FFF80
0070FF80
00703F00
00600C00
00000000
00000000
00000000
03C3FC00
0387FE00
079FFF00
07BF1F80
07B80F80
07F00780
07E00780
0FC00780
0FC00780
0F800F80
0F800F80
0F000F00
1F000F00
1F000F00
1E001F00
1E001F00
3E001E00
3E001E00
3C001E00
3C003E00
3C003C00
7C003C00
7C003C00
78007C00
78007C00
78007800
F8007800
ENDCHAR
STARTCHAR 00F2
ENCODING 242
SWIDTH 560 0
DWIDTH 28 0
BBX 24 38 2 0
BITMAP
003C00
003E00
001E00
000F00
000F00
000780
000380
0001C0
000000
000000
000000
003FC0
00FFF0
03FFF8
07F0FC
07C03C
0F803E
1F001E
1E001F
3C000F
3C000F
7C000F
78000F
78001F
78001F
78001E
F8001E
F8001E
F8003E
F8003C
78007C
780078
7C00F8
3C01F0
3F07E0
1FFFC0
0FFF80
03FE00
ENDCHAR
STARTCHAR 00F3
ENCODING 243
SWIDTH 560 0
DWIDTH 28 0
BBX 24 38 2 0
BITMAP
00003C
00007C
0000F8
0001F0
0001E0
0003C0
000700
000E00
000000
000000
000000
003FC0
00FFF0
03FFF8
07F0FC
07C03C
0F803E
1F001E
1E001F
3C000F
3C000F
7C000F
78000F
78001F
78001F
78001E
F8001E
F8001E
F8003E
F8003C
78007C
780078
7C00F8
3C01F0
3F07E0
1FFFC0
0FFF80
03FE00
ENDCHAR
STARTCHAR 00F4
ENCODING 244
SWIDTH 560 0
DWIDTH 28 0
BBX 24 38 2 0
BITMAP
0007C0
0007E0
000FE0
001EF0
003C70
007878
00E03C
01C01C
000000
000000
000000
003FC0
00FFF0
03FFF8
07F0FC
07C03C
0F803E
1F001E
1E001F
3C000F
3C000F
7C000F
78000F
78001F
78001F
78001E
F8001E
F8001E
F8003E
F8003C
78007C
780078
7C00F8
3C01F0
3F07E0
1FFFC0
0FFF80
03FE00
ENDCHAR
STARTCHAR 00F5
ENCODING 245
SWIDTH 560 0
DWIDTH 28 0
BBX 24 37 2 0
BITMAP
001803
007F07
00FF87
00FFFE
01C3FE
0180FC
038030
000000
000000
000000
003FC0
00FFF0
03FFF8
07F0FC
07C03C
0F803E
1F001E
1E001F
3C000F
3C000F
7C000F
78000F
78001F
78001F
78001E
F8001E
F8001E
F8003E
F8003C
78007C
780078
7C00F8
3C01F0
3F07E0
1FFFC0
0FFF80
03FE00
ENDCHAR
STARTCHAR 00F6
ENCODING 246
SWIDTH 560 0
DWIDTH 28 0
BBX 24 36 2 0
BITMAP
00783C
00783C
00783C
007838
000000
000000
000000
000000
000000
003FC0
00FFF0
03FFF8
07F0FC
07C03C
0F803E
1F001E
1E001F
3C000F
3C000F
7C000F
78000F
78001F
78001F
78001E
F8001E
F8001E
F8003E
F8003C
78007C
780078
7C00F8
3C01F0
3F07E0
1FFFC0
0FFF80
03FE00
ENDCHAR
STARTCHAR 00F7
ENCODING 247
SWIDTH 560 0
DWIDTH 28 0
BBX 23 23 4 6
BITMAP
003800
007C00
007C00
007C00
007800
003000
000000
000000
000000
000000
FFFFFE
FFFFFE
FFFFFE
000000
000000
000000
000000
003800
007C00
007C00
007C00
007C00
003800
ENDCHAR
STARTCHAR 00F8
ENCODING 248
SWIDTH 560 0
DWIDTH 28 0
BBX 25 30 2 -2
BITMAP
00000300
003FC780
00FFFF00
03FFFE00
07F0FC00
07C03E00
0F007E00
1F00FE00
1E01FE00
3C03CF00
3C03CF00
78078F00
780F0F00
781E0F00
783C0E00
78781E00
70781E00
F0F01E00
F1E01C00
73C03C00
7F803C00
7F807800
7F00F000
3E01F000
3F07E000
7FFFC000
FFFF8000
F3FE0000
E0000000
40000000
ENDCHAR
STARTCHAR 00F9
ENCODING 249
SWIDTH 560 0
DWIDTH 28 0
BBX 24 38 3 0
BITMAP
003C00
001E00
001E00
000F00
000700
000780
000380
0001C0
000000
000000
000000
0F000F
0F000F
1E000F
1E000F
1E001E
1E001E
3E001E
3C001E
3C001E
3C003C
3C003C
7C003C
78003C
780078
780078
F80078
F000F8
F000F8
F001F0
F001F0
F003F0
F007F0
F00EF0
F83CE0
7FF8E0
7FF1E0
1FE1E0
ENDCHAR
STARTCHAR 00FA
ENCODING 250
SWIDTH 560 0
DWIDTH 28 0
BBX 24 38 3 0
BITMAP
00003E
00007C
0000F8
0001F0
0001E0
0003C0
000780
000E00
000000
000000
000000
0F000F
0F000F
1E000F
1E000F
1E001E
1E001E
3E001E
3C001E
3C001E
3C003C
3C003C
7C003C
78003C
780078
780078
F80078
F000F8
F000F8
F001F0
F001F0
F003F0
F007F0
F00EF0
F83CE0
7FF8E0
7FF1E0
1FE1E0
ENDCHAR
STARTCHAR 00FB
ENCODING 251
SWIDTH 560 0
DWIDTH 28 0
BBX 24 38 3 0
BITMAP
0007C0
0007E0
000FE0
001EF0
003C70
007878
00E03C
01C01C
000000
000000
000000
0F000F
0F000F
1E000F
1E000F
1E001E
1E001E
3E001E
3C001E
3C001E
3C003C
3C003C
7C003C
78003C
780078
780078
F80078
F000F8
F000F8
F001F0
F001F0
F003F0
F007F0
F00EF0
F83CE0
7FF8E0
7FF1E0
1FE1E0
ENDCHAR
STARTCHAR 00FC
ENCODING 252
SWIDTH 560 0
DWIDTH 28 0
BBX 24 36 3 0
BITMAP
00783C
00783C
00783C
00783C
000000
000000
000000
000000
000000
0F000F
0F000F
1E000F
1E000F
1E001E
1E001E
3E001E
3C001E
3C001E
3C003C
3C003C
7C003C
78003C
780078
780078
F80078
F000F8
F000F8
F001F0
F001F0
F003F0
F007F0
F00EF0
F83CE0
7FF8E0
7FF1E0
1FE1E0
ENDCHAR
STARTCHAR 00FD
ENCODING 253
SWIDTH 460 0
DWIDTH 23 0
BBX 30 50 -5 -12
BITMAP
000003E0
000007C0
00000F80
00000F00
00001E00
00003C00
00007800
00006000
00000000
00000000
00000000
01F0003C
00F0007C
00F00078
00F000F8
00F000F0
00F001F0
00F001E0
00F003C0
007803C0
00780780
00780780
00780F00
00780F00
00781E00
00383E00
003C3C00
003C7C00
003C7800
003CF000
003CF000
003CE000
001DE000
001DC000
001FC000
001F8000
001F8000
001F0000
001F0000
001E0000
003C0000
003C0000
00780000
00F80000
00F00000
01F00000
8FE00000
FFC00000
FF800000
FE000000
ENDCHAR
STARTCHAR 00FE
ENCODING 254
SWIDTH 560 0
DWIDTH 28 0
BBX 27 50 -1 -12
BITMAP
003C0000
003C0000
003C0000
003C0000
003C0000
00780000
00780000
00780000
00780000
00F80000
00F00000
00F07E00
00F1FF80
00F3FFC0
01E787C0
01EE03E0
01FC01E0
01F801E0
01F001E0
03E001E0
03E001E0
03C001E0
03C001E0
07C001E0
078001E0
078001E0
078003E0
078003C0
0F8003C0
0F8007C0
0F800780
0F800F80
0F801F00
1FC03E00
1EE07E00
1EFFFC00
1E7FF800
1E3FE000
3C000000
3C000000
3C000000
3C000000
7C000000
78000000
78000000
78000000
78000000
F0000000
F0000000
F0000000
ENDCHAR
STARTCHAR 00FF
ENCODING 255
SWIDTH 460 0
DWIDTH 23 0
BBX 30 48 -5 -12
BITMAP
000381C0
000783C0
000783C0
000783C0
00000000
00000000
00000000
00000000
00000000
01F0003C
00F0007C
00F00078
00F000F8
00F000F0
00F001F0
00F001E0
00F003C0
007803C0
00780780
00780780
00780F00
00780F00
00781E00
00383E00
003C3C00
003C7C00
003C7800
003CF000
003CF000
003CE000
001DE000
001DC000
001FC000
001F8000
001F8000
001F0000
001F0000
001E0000
003C0000
003C0000
00780000
00F80000
00F00000
01F00000
8FE00000
FFC00000
FF800000
FE000000
ENDCHAR
STARTCHAR 0100
ENCODING 256
SWIDTH 560 0
DWIDTH 28 0
BBX 30 43 -3 0
BITMAP
0000FFFC
0000FFF8
0000FFF8
0000FFF8
00000000
00000000
00000000
00000F00
00001F00
00001F00
00003F00
00007F80
00007F80
0000F780
0000F780
0001E780
0001E780
0003C380
0003C380
000783C0
000783C0
000F03C0
001F03C0
001E03C0
003E03C0
003C03C0
007C01E0
007801E0
00FFFFE0
00FFFFE0
01FFFFE0
03FFFFE0
03C001E0
07C001E0
078001F0
0F8000F0
0F0000F0
1F0000F0
1E0000F0
3E0000F0
3C0000F0
7C0000F0
F80000F8
ENDCHAR
STARTCHAR 0101
ENCODING 257
SWIDTH 560 0
DWIDTH 28 0
BBX 25 34 2 0
BITMAP
003FFE00
007FFE00
007FFC00
007FFC00
00000000
00000000
00000000
003F8380
00FFC380
01FFE780
03F0F780
07C07700
0F803F00
1F001F00
1E001F00
3E001F00
3C001E00
3C001E00
7C001E00
78001E00
78003C00
78003C00
78003C00
F8007C00
F8007C00
F800F800
F800F800
7801F800
7803F800
7C077800
7E1E7000
3FFC7000
1FF87000
0FF0F000
ENDCHAR
STARTCHAR 0102
ENCODING 258
SWIDTH 560 0
DWIDTH 28 0
BBX 30 46 -3 0
BITMAP
0000E00C
0000E01C
0000F03C
00007FF8
00007FF0
00003FE0
00000F00
00000000
00000000
00000000
00000F00
00001F00
00001F00
00003F00
00007F80
00007F80
0000F780
0000F780
0001E780
0001E780
0003C380
0003C380
000783C0
000783C0
000F03C0
001F03C0
001E03C0
003E03C0
003C03C0
007C01E0
007801E0
00FFFFE0
00FFFFE0
01FFFFE0
03FFFFE0
03C001E0
07C001E0
078001F0
0F8000F0
0F0000F0
1F0000F0
1E0000F0
3E0000F0
3C0000F0
7C0000F0
F80000F8
ENDCHAR
STARTCHAR 0103
ENCODING 259
SWIDTH 560 0
DWIDTH 28 0
BBX 25 37 2 0
BITMAP
00300600
00300E00
00381E00
003FFC00
003FF800
000FF000
00038000
00000000
00000000
00000000
003F8380
00FFC380
01FFE780
03F0F780
07C07700
0F803F00
1F001F00
1E001F00
3E001F00
3C001E00
3C001E00
7C001E00
78001E00
78003C00
78003C00
78003C00
F8007C00
F8007C00
F800F800
F800F800
7801F800
7803F800
7C077800
7E1E7000
3FFC7000
1FF87000
0FF0F000
ENDCHAR
STARTCHAR 0104
ENCODING 260
SWIDTH 560 0
DWIDTH 28 0
BBX 29 47 -3 -11
BITMAP
00000F00
00001F00
00001F00
00003F00
00007F80
00007F80
0000F780
0000F780
0001E780
0001E780
0003C380
0003C380
000783C0
000783C0
000F03C0
001F03C0
001E03C0
003E03C0
003C03C0
007C01E0
007801E0
00FFFFE0
00FFFFE0
01FFFFE0
03FFFFE0
03C001E0
07C001E0
078001F0
0F8000F0
0F0000F0
1F0000F0
1E0000F0
3E0000F0
3C0000F0
7C0000F0
F80000F8
000000E0
000003C0
00000780
00000F00
00000E00
00001E00
00001E00
00001E00
00000FC0
00000FC0
000003C0
ENDCHAR
STARTCHAR 0105
ENCODING 261
SWIDTH 560 0
DWIDTH 28 0
BBX 25 38 2 -11
BITMAP
003F8380
00FFC380
01FFE780
03F0F780
07C07700
0F803F00
1F001F00
1E001F00
3E001F00
3C001E00
3C001E00
7C001E00
78001E00
78003C00
78003C00
78003C00
F8007C00
F8007C00
F800F800
F800F800
7801F800
7803F800
7C077800
7E1E7000
3FFC7000
1FF87000
0FF0F000
0000E000
00038000
00070000
000E0000
000E0000
001E0000
001C0000
001E0000
001FC000
000FC000
0007C000
ENDCHAR
STARTCHAR 0106
ENCODING 262
SWIDTH 580 0
DWIDTH 29 0
BBX 27 47 4 0
BITMAP
000003E0
000007C0
00000F80
00001F00
00001E00
00003C00
00007800
0000E000
00000000
00000000
00000000
0003FF00
001FFFE0
007FFFE0
00FFCFE0
01FC00C0
03F00000
07C00000
0F800000
0F800000
1F000000
3E000000
3E000000
3C000000
7C000000
78000000
78000000
F8000000
F8000000
F0000000
F0000000
F0000000
F0000000
F0000000
F0000000
F0000000
F0000000
F0000000
F8000000
F8000000
7C000000
7E000000
3F000000
1FC0F800
0FFFF800
07FFF800
01FFF000
ENDCHAR
STARTCHAR 0107
ENCODING 263
SWIDTH 440 0
DWIDTH 22 0
BBX 22 38 2 0
BITMAP
00007C
0000F8
0001F0
0003E0
0003C0
000780
000F00
001C00
000000
000000
000000
003FF0
00FFF8
01FFF8
03F070
07C000
0F8000
1F0000
1E0000
3E0000
3C0000
7C0000
780000
780000
780000
780000
F80000
F80000
F80000
F80000
780000
780000
7C0000
7C0000
3F0180
1FFF80
0FFF80
07FF00
ENDCHAR
STARTCHAR 0108
ENCODING 264
SWIDTH 580 0
DWIDTH 29 0
BBX 27 47 4 0
BITMAP
00003C00
00007E00
0000FE00
0001EF00
0003C700
00078380
000F03C0
001C01C0
00000000
00000000
00000000
0003FF00
001FFFE0
007FFFE0
00FFCFE0
01FC00C0
03F00000
07C00000
0F800000
0F800000
1F000000
3E000000
3E000000
3C000000
7C000000
78000000
78000000
F8000000
F8000000
F0000000
F0000000
F0000000
F0000000
F0000000
F0000000
F0000000
F0000000
F0000000
F8000000
F8000000
7C000000
7E000000
3F000000
1FC0F800
0FFFF800
07FFF800
01FFF000
ENDCHAR
STARTCHAR 0109
ENCODING 265
SWIDTH 440 0
DWIDTH 22 0
BBX 21 38 2 0
BITMAP
000780
000FC0
001FC0
003DE0
0078F0
00F070
01C078
038038
000000
000000
000000
003FF0
00FFF8
01FFF8
03F070
07C000
0F8000
1F0000
1E0000
3E0000
3C0000
7C0000
780000
780000
780000
780000
F80000
F80000
F80000
F80000
780000
780000
7C0000
7C0000
3F0180
1FFF80
0FFF80
07FF00
ENDCHAR
STARTCHAR 010A
ENCODING 266
SWIDTH 580 0
DWIDTH 29 0
BBX 27 46 4 0
BITMAP
00001800
00003C00
00007C00
00007C00
00007800
00001000
00000000
00000000
00000000
00000000
0003FF00
001FFFE0
007FFFE0
00FFCFE0
01FC00C0
03F00000
07C00000
0F800000
0F800000
1F000000
3E000000
3E000000
3C000000
7C000000
78000000
78000000
F8000000
F8000000
F0000000
F0000000
F0000000
F0000000
F0000000
F0000000
F0000000
F0000000
F0000000
F8000000
F8000000
7C000000
7E000000
3F000000
1FC0F800
0FFFF800
07FFF800
01FFF000
ENDCHAR
STARTCHAR 010B
ENCODING 267
SWIDTH 440 0
DWIDTH 22 0
BBX 21 37 2 0
BITMAP
000300
000780
000F80
000F80
000F00
000200
000000
000000
000000
000000
003FF0
00FFF8
01FFF8
03F070
07C000
0F8000
1F0000
1E0000
3E0000
3C0000
7C0000
780000
780000
780000
780000
F80000
F80000
F80000
F80000
780000
780000
7C0000
7C0000
3F0180
1FFF80
0FFF80
07FF00
ENDCHAR
STARTCHAR 010C
ENCODING 268
SWIDTH 580 0
DWIDTH 29 0
BBX 28 47 4 0
BITMAP
000700F0
000781E0
0003C7C0
0001CF80
0001FF00
0000FE00
0000FC00
00007800
00000000
00000000
00000000
0003FF00
001FFFE0
007FFFE0
00FFCFE0
01FC00C0
03F00000
07C00000
0F800000
0F800000
1F000000
3E000000
3E000000
3C000000
7C000000
78000000
78000000
F8000000
F8000000
F0000000
F0000000
F0000000
F0000000
F0000000
F0000000
F0000000
F0000000
F0000000
F8000000
F8000000
7C000000
7E000000
3F000000
1FC0F800
0FFFF800
07FFF800
01FFF000
ENDCHAR
STARTCHAR 010D
ENCODING 269
SWIDTH 440 0
DWIDTH 22 0
BBX 23 38 2 0
BITMAP
00E01E
00703C
007878
003DF0
003FE0
001FC0
001F80
000F00
000000
000000
000000
003FF0
00FFF8
01FFF8
03F070
07C000
0F8000
1F0000
1E0000
3E0000
3C0000
7C0000
780000
780000
780000
780000
F80000
F80000
F80000
F80000
780000
780000
7C0000
7C0000
3F0180
1FFF80
0FFF80
07FF00
ENDCHAR
STARTCHAR 010E
ENCODING 270
SWIDTH 660 0
DWIDTH 33 0
BBX 30 47 2 0
BITMAP
00038078
0001C0F0
0001E1E0
0000F7C0
0000FF80
00007F00
00007E00
00003C00
00000000
00000000
00000000
00FFE000
01FFFE00
01FFFF00
01FFFFC0
01E00FE0
01E003F0
03C001F0
03C000F8
03C000F8
03C00078
07C00078
0780007C
0780007C
0780007C
0780007C
0F80007C
0F00007C
0F00007C
0F00007C
0F000078
1F000078
1E0000F8
1E0000F8
1E0000F0
1E0001F0
3C0003E0
3C0003E0
3C0007C0
3C000FC0
7C001F80
78007F00
7801FE00
7FFFF800
7FFFF000
FFFFC000
FFFC0000
ENDCHAR
STARTCHAR 010F
ENCODING 271
SWIDTH 600 0
DWIDTH 30 0
BBX 36 38 2 0
BITMAP
000000F0F0
000001E1E0
000001E1E0
000001E1C0
000001E380
000001E780
000003C700
000003CE00
000003C000
000003C000
000007C000
003F878000
00FFC78000
03FFE78000
07F0F78000
07C0370000
0F803F0000
1F001F0000
1E001F0000
3E001F0000
3C001E0000
3C001E0000
7C001E0000
78001E0000
78003E0000
78003C0000
78003C0000
F8007C0000
F8007C0000
F800F80000
F800F80000
7801F80000
7803F80000
7C07780000
7E1E700000
3FFC700000
1FF8700000
0FF0F00000
ENDCHAR
STARTCHAR 0110
ENCODING 272
SWIDTH 660 0
DWIDTH 33 0
BBX 30 36 2 0
BITMAP
00FFE000
01FFFE00
01FFFF00
01FFFFC0
01E00FE0
01E003F0
03C001F0
03C000F8
03C000F8
03C00078
07C00078
0780007C
0780007C
0780007C
0780007C
0F80007C
0F00007C
FFFF007C
FFFF007C
FFFF0078
1E000078
1E0000F8
1E0000F8
1E0000F0
3E0001F0
3C0003E0
3C0003E0
3C0007C0
3C000FC0
7C001F80
78007F00
7801FE00
7FFFF800
7FFFF000
FFFFC000
FFFC0000
ENDCHAR
STARTCHAR 0111
ENCODING 273
SWIDTH 560 0
DWIDTH 28 0
BBX 30 38 2 0
BITMAP
000000F0
000001E0
000001E0
000001E0
000001E0
0007FFFC
0007FFFC
0007FFFC
000003C0
000003C0
000007C0
003F8780
00FFC780
03FFE780
07F0F780
07C03700
0F803F00
1F001F00
1E001F00
3E001F00
3C001E00
3C001E00
7C001E00
78001E00
78003E00
78003C00
78003C00
F8007C00
F8007C00
F800FC00
F800F800
7801F800
7803F800
7C077800
7E0E7000
3FFC7000
1FF87000
0FF0F000
ENDCHAR
STARTCHAR 0112
ENCODING 274
SWIDTH 500 0
DWIDTH 25 0
BBX 26 43 2 0
BITMAP
001FFF00
001FFF00
001FFF00
003FFF00
00000000
00000000
00000000
00FFFFC0
01FFFF80
01FFFF80
01FFFF80
01E00000
01E00000
03C00000
03C00000
03C00000
03C00000
07C00000
07800000
07800000
07800000
07800000
0F800000
0FFFF800
0FFFF800
0FFFF800
0F000000
1F000000
1E000000
1E000000
1E000000
1E000000
3C000000
3C000000
3C000000
3C000000
7C000000
78000000
78000000
7FFFE000
7FFFE000
FFFFE000
FFFFC000
ENDCHAR
STARTCHAR 0113
ENCODING 275
SWIDTH 480 0
DWIDTH 24 0
BBX 21 34 2 0
BITMAP
00FFF8
00FFF8
00FFF8
00FFF8
000000
000000
000000
003FC0
00FFF0
01FFF0
03F0F8
07C078
0F8078
1F0078
1E0078
3E0078
3C00F8
3C03F0
781FE0
7FFFC0
7FFF00
7FF800
780000
F80000
F80000
F80000
780000
780000
7C0000
7C0040
3F01C0
1FFFC0
0FFFC0
07FF00
ENDCHAR
STARTCHAR 0114
ENCODING 276
SWIDTH 500 0
DWIDTH 25 0
BBX 26 46 2 0
BITMAP
001C0380
001C0380
001C0700
001FFF00
000FFE00
0007FC00
0001F000
00000000
00000000
00000000
00FFFFC0
01FFFF80
01FFFF80
01FFFF80
01E00000
01E00000
03C00000
03C00000
03C00000
03C00000
07C00000
07800000
07800000
07800000
07800000
0F800000
0FFFF800
0FFFF800
0FFFF800
0F000000
1F000000
1E000000
1E000000
1E000000
1E000000
3C000000
3C000000
3C000000
3C000000
7C000000
78000000
78000000
7FFFE000
7FFFE000
FFFFE000
FFFFC000
ENDCHAR
STARTCHAR 0115
ENCODING 277
SWIDTH 480 0
DWIDTH 24 0
BBX 22 37 2 0
BITMAP
00E00C
00E01C
00F03C
007FF8
007FF0
003FE0
000F00
000000
000000
000000
003FC0
00FFF0
01FFF0
03F0F8
07C078
0F8078
1F0078
1E0078
3E0078
3C00F8
3C03F0
781FE0
7FFFC0
7FFF00
7FF800
780000
F80000
F80000
F80000
780000
780000
7C0000
7C0040
3F01C0
1FFFC0
0FFFC0
07FF00
ENDCHAR
STARTCHAR 0116
ENCODING 278
SWIDTH 500 0
DWIDTH 25 0
BBX 26 46 2 0
BITMAP
00006000
0000F000
0000F000
0001F000
0000F000
00004000
00000000
00000000
00000000
00000000
00FFFFC0
01FFFF80
01FFFF80
01FFFF80
01E00000
01E00000
03C00000
03C00000
03C00000
03C00000
07C00000
07800000
07800000
07800000
07800000
0F800000
0FFFF800
0FFFF800
0FFFF800
0F000000
1F000000
1E000000
1E000000
1E000000
1E000000
3C000000
3C000000
3C000000
3C000000
7C000000
78000000
78000000
7FFFE000
7FFFE000
FFFFE000
FFFFC000
ENDCHAR
STARTCHAR 0117
ENCODING 279
SWIDTH 480 0
DWIDTH 24 0
BBX 21 37 2 0
BITMAP
000300
000780
000780
000F80
000780
000200
000000
000000
000000
000000
003FC0
00FFF0
01FFF0
03F0F8
07C078
0F8078
1F0078
1E0078
3E0078
3C00F8
3C03F0
781FE0
7FFFC0
7FFF00
7FF800
780000
F80000
F80000
F80000
780000
780000
7C0000
7C0040
3F01C0
1FFFC0
0FFFC0
07FF00
ENDCHAR
STARTCHAR 0118
ENCODING 280
SWIDTH 500 0
DWIDTH 25 0
BBX 26 47 2 -11
BITMAP
00FFFFC0
01FFFF80
01FFFF80
01FFFF80
01E00000
01E00000
03C00000
03C00000
03C00000
03C00000
07C00000
07800000
07800000
07800000
07800000
0F800000
0FFFF800
0FFFF800
0FFFF800
0F000000
1F000000
1E000000
1E000000
1E000000
1E000000
3C000000
3C000000
3C000000
3C000000
7C000000
78000000
78000000
7FFFE000
7FFFE000
FFFFE000
FFFFC000
00070000
000E0000
001C0000
00380000
00700000
00700000
00700000
00700000
007F0000
007F0000
001F0000
ENDCHAR
STARTCHAR 0119
ENCODING 281
SWIDTH 480 0
DWIDTH 24 0
BBX 21 38 2 -11
BITMAP
003FC0
00FFF0
01FFF0
03F0F8
07C078
0F8078
1F0078
1E0078
3E0078
3C00F0
3C03F0
781FE0
7FFFC0
7FFF00
7FF800
F80000
F80000
F80000
F80000
780000
780000
7C0000
7C0040
3F01C0
1FFFC0
0FFFC0
07FF00
000E00
001C00
003800
007000
00F000
00E000
00E000
00F000
00FE00
007E00
003E00
ENDCHAR
STARTCHAR 011A
ENCODING 282
SWIDTH 500 0
DWIDTH 25 0
BBX 26 47 2 0
BITMAP
001C03C0
000E0780
000F0F00
00079E00
0003FC00
0003F800
0001F000
0001E000
00000000
00000000
00000000
00FFFFC0
01FFFF80
01FFFF80
01FFFF80
01E00000
01E00000
03C00000
03C00000
03C00000
03C00000
07C00000
07800000
07800000
07800000
07800000
0F800000
0FFFF800
0FFFF800
0FFFF800
0F000000
1F000000
1E000000
1E000000
1E000000
1E000000
3C000000
3C000000
3C000000
3C000000
7C000000
78000000
78000000
7FFFE000
7FFFE000
FFFFE000
FFFFC000
ENDCHAR
STARTCHAR 011B
ENCODING 283
SWIDTH 480 0
DWIDTH 24 0
BBX 23 38 2 0
BITMAP
00E01E
00703C
003878
003CF0
001FE0
001FC0
000F80
000F00
000000
000000
000000
003FC0
00FFF0
01FFF0
03F0F8
07C078
0F8078
1F0078
1E0078
3E0078
3C00F8
3C03F0
781FE0
7FFFC0
7FFF00
7FF800
780000
F80000
F80000
F80000
780000
780000
7C0000
7C0040
3F01C0
1FFFC0
0FFFC0
07FF00
ENDCHAR
STARTCHAR 011C
ENCODING 284
SWIDTH 660 0
DWIDTH 33 0
BBX 29 47 4 0
BITMAP
00003E00
00003F00
00007F00
0000F780
0001E380
0003C3C0
000701E0
000E00E0
00000000
00000000
00000000
0003FF80
001FFFF0
007FFFF8
00FFCFF8
01FC0070
03F00000
07E00000
0FC00000
0F800000
1F000000
3E000000
3E000000
3C000000
7C000000
78000000
78000000
F8000000
F800FFE0
F000FFE0
F001FFE0
F001FFE0
F00003C0
F00003C0
F00003C0
F00003C0
F00007C0
F8000780
F8000780
F8000780
7C000780
7E000F00
3F000F00
1FE07F00
0FFFFF00
07FFFF00
01FFF800
ENDCHAR
STARTCHAR 011D
ENCODING 285
SWIDTH 500 0
DWIDTH 25 0
BBX 29 50 -2 -12
BITMAP
00007C00
0000FC00
0001FE00
0003EE00
0007CF00
000F0780
001E0380
001C01C0
00000000
00000000
00000000
0007FFF8
001FFFF8
003FFFF8
00780F00
00F00F00
01E00780
01E00780
01E00780
01C00780
03C00780
03C00F00
03C00F00
01E01F00
01E03E00
00F8FC00
007FF800
003FE000
00F00000
01C00000
03800000
07800000
07800000
07F00000
03FFC000
01FFF800
07FFFC00
1E00FE00
3C003E00
78001E00
F0000E00
F0000E00
E0001E00
E0001E00
F0003C00
F8007C00
7C03F800
7FFFF000
1FFFC000
07FE0000
ENDCHAR
STARTCHAR 011E
ENCODING 286
SWIDTH 660 0
DWIDTH 33 0
BBX 29 46 4 0
BITMAP
00030070
00030060
000380E0
0003FFC0
0001FFC0
0000FF00
00003C00
00000000
00000000
00000000
0003FF80
001FFFF0
007FFFF8
00FFCFF8
01FC0070
03F00000
07E00000
0FC00000
0F800000
1F000000
3E000000
3E000000
3C000000
7C000000
78000000
78000000
F8000000
F800FFE0
F000FFE0
F001FFE0
F001FFE0
F00003C0
F00003C0
F00003C0
F00003C0
F00007C0
F8000780
F8000780
F8000780
7C000780
7E000F00
3F000F00
1FE07F00
0FFFFF00
07FFFF00
01FFF800
ENDCHAR
STARTCHAR 011F
ENCODING 287
SWIDTH 500 0
DWIDTH 25 0
BBX 29 49 -2 -12
BITMAP
001C0380
001C0380
001E0700
000FFF00
000FFE00
0007FC00
0001E000
00000000
00000000
00000000
0007FFF8
001FFFF8
003FFFF8
00780F00
00F00F00
01E00780
01E00780
01E00780
01C00780
03C00780
03C00F00
03C00F00
01E01F00
01E03E00
00F8FC00
007FF800
003FE000
00F00000
01C00000
03800000
07800000
07800000
07F00000
03FFC000
01FFF800
07FFFC00
1E00FE00
3C003E00
78001E00
F0000E00
F0000E00
E0001E00
E0001E00
F0003C00
F8007C00
7C03F800
7FFFF000
1FFFC000
07FE0000
ENDCHAR
STARTCHAR 0120
ENCODING 288
SWIDTH 660 0
DWIDTH 33 0
BBX 29 46 4 0
BITMAP
00000C00
00001E00
00003E00
00003E00
00003C00
00000800
00000000
00000000
00000000
00000000
0003FF80
001FFFF0
007FFFF8
00FFCFF8
01FC0070
03F00000
07E00000
0FC00000
0F800000
1F000000
3E000000
3E000000
3C000000
7C000000
78000000
78000000
F8000000
F800FFE0
F000FFE0
F001FFE0
F001FFE0
F00003C0
F00003C0
F00003C0
F00003C0
F00007C0
F8000780
F8000780
F8000780
7C000780
7E000F00
3F000F00
1FE07F00
0FFFFF00
07FFFF00
01FFF800
ENDCHAR
STARTCHAR 0121
ENCODING 289
SWIDTH 500 0
DWIDTH 25 0
BBX 29 49 -2 -12
BITMAP
00006000
0000F800
0000F800
0000F800
0000F000
00000000
00000000
00000000
00000000
00000000
0007FFF8
001FFFF8
003FFFF8
00780F00
00F00F00
01E00780
01E00780
01E00780
01C00780
03C00780
03C00F00
03C00F00
01E01F00
01E03E00
00F8FC00
007FF800
003FE000
00F00000
01C00000
03800000
07800000
07800000
07F00000
03FFC000
01FFF800
07FFFC00
1E00FE00
3C003E00
78001E00
F0000E00
F0000E00
E0001E00
E0001E00
F0003C00
F8007C00
7C03F800
7FFFF000
1FFFC000
07FE0000
ENDCHAR
STARTCHAR 0122
ENCODING 290
SWIDTH 660 0
DWIDTH 33 0
BBX 29 47 4 -11
BITMAP
0003FF80
001FFFF0
007FFFF8
00FFCFF8
01FC0070
03F00000
07E00000
0FC00000
0F800000
1F000000
3E000000
3E000000
3C000000
7C000000
78000000
78000000
F8000000
F800FFE0
F000FFE0
F001FFE0
F001FFE0
F00003C0
F00003C0
F00003C0
F00003C0
F00007C0
F8000780
F8000780
F8000780
7C000780
7E000F00
3F000F00
1FE07F00
0FFFFF00
07FFFF00
01FFF800
00000000
00000000
00000000
001E0000
003C0000
003C0000
00780000
00700000
00F00000
00E00000
01C00000
ENDCHAR
STARTCHAR 0123
ENCODING 291
SWIDTH 500 0
DWIDTH 25 0
BBX 29 50 -2 -12
BITMAP
00000E00
00001C00
00003C00
00007800
00007800
0000F000
0000F000
0001E000
00000000
00000000
00000000
0007FFF8
001FFFF8
003FFFF8
00780F00
00F00F00
01E00780
01E00780
01E00780
01C00780
03C00780
03C00F00
03C00F00
01E01F00
01E03E00
00F8FC00
007FF800
003FE000
00F00000
01C00000
03800000
07800000
07800000
07F00000
03FFC000
01FFF800
07FFFC00
1E00FE00
3C003E00
78001E00
F0000E00
F0000E00
E0001E00
E0001E00
F0003C00
F8007C00
7C03F800
7FFFF000
1FFFC000
07FE0000
ENDCHAR
STARTCHAR 0124
ENCODING 292
SWIDTH 680 0
DWIDTH 34 0
BBX 32 47 2 0
BITMAP
00001F00
00003F00
00007F80
0000FF80
0001E3C0
0003C1C0
000780E0
000F0060
00000000
00000000
00000000
00F0000F
01F0000F
01E0000F
01E0001E
01E0001E
01E0001E
03E0001E
03C0001E
03C0003C
03C0003C
03C0003C
0780003C
0780007C
07800078
07800078
0F800078
0FFFFFF8
0FFFFFF8
0FFFFFF0
0F0000F0
1F0000F0
1E0000F0
1E0001E0
1E0001E0
1E0001E0
3C0001E0
3C0001E0
3C0003C0
3C0003C0
3C0003C0
780003C0
780007C0
78000780
78000780
F8000780
F0000780
ENDCHAR
STARTCHAR 0125
ENCODING 293
SWIDTH 560 0
DWIDTH 28 0
BBX 24 50 2 0
BITMAP
007800
007C00
00FC00
01FE00
03DE00
078F00
0F0780
1C0380
000000
000000
000000
000000
01E000
01E000
01E000
01E000
01E000
03C000
03C000
03C000
03C000
078000
078000
0783F8
078FFC
079FFE
0F3C3E
0F701F
0FE00F
0FC00F
0F800F
1F000F
1F000F
1E001E
1E001E
3E001E
3C001E
3C001E
3C003C
3C003C
7C003C
78003C
78007C
780078
780078
F00078
F00078
F000F8
F000F0
F000F0
ENDCHAR
STARTCHAR 0126
ENCODING 294
SWIDTH 680 0
DWIDTH 34 0
BBX 36 36 2 0
BITMAP
00F0000F00
01F0000F00
01E0000F00
01E0001F00
01E0001E00
01E0001E00
3FFFFFFFF0
3FFFFFFFE0
7FFFFFFFE0
7FFFFFFFE0
07C0003C00
0780003C00
0780007C00
0780007800
0780007800
0F80007800
0FFFFFF800
0FFFFFF800
0FFFFFF000
0F0000F000
1F0000F000
1E0000F000
1E0001F000
1E0001E000
1E0001E000
3C0001E000
3C0003E000
3C0003C000
3C0003C000
7C0003C000
780003C000
780007C000
7800078000
7800078000
F800078000
F000078000
ENDCHAR
STARTCHAR 0127
ENCODING 295
SWIDTH 560 0
DWIDTH 28 0
BBX 24 38 2 0
BITMAP
01E000
01E000
01E000
01E000
01E000
1FFFE0
3FFFE0
3FFFE0
03C000
078000
078000
0783F0
078FFC
079FFE
0F3FFE
0F781F
0FE00F
0FC00F
0F800F
1F800F
1F000F
1F001E
1E001E
1E001E
3C001E
3C001E
3C003C
3C003C
78003C
78003C
78007C
780078
780078
F00078
F00078
F000F0
F000F0
F000F0
ENDCHAR
STARTCHAR 0128
ENCODING 296
SWIDTH 260 0
DWIDTH 13 0
BBX 20 46 2 0
BITMAP
008030
07E070
0FF870
1FFFE0
1C3FC0
381FC0
380300
000000
000000
000000
00F000
01F000
01E000
01E000
01E000
01E000
03C000
03C000
03C000
03C000
03C000
078000
078000
078000
078000
0F8000
0F0000
0F0000
0F0000
0F0000
1E0000
1E0000
1E0000
1E0000
1E0000
3C0000
3C0000
3C0000
3C0000
7C0000
780000
780000
780000
780000
F00000
F00000
ENDCHAR
STARTCHAR 0129
ENCODING 297
SWIDTH 240 0
DWIDTH 12 0
BBX 18 37 1 0
BITMAP
0600C0
1FC1C0
3FE1C0
3FFF80
70FF80
603F00
E00C00
000000
000000
000000
03C000
03C000
03C000
07C000
078000
078000
078000
078000
0F0000
0F0000
0F0000
0F0000
1F0000
1E0000
1E0000
1E0000
1E0000
3E0000
3C0000
3C0000
3C0000
3C0000
780000
780000
780000
780000
780000
ENDCHAR
STARTCHAR 012A
ENCODING 298
SWIDTH 260 0
DWIDTH 13 0
BBX 18 43 2 0
BITMAP
0FFFC0
0FFFC0
0FFF80
0FFF80
000000
000000
000000
00F000
01F000
01E000
01E000
01E000
01E000
03C000
03C000
03C000
03C000
03C000
078000
078000
078000
078000
0F8000
0F0000
0F0000
0F0000
0F0000
1E0000
1E0000
1E0000
1E0000
1E0000
3C0000
3C0000
3C0000
3C0000
7C0000
780000
780000
780000
780000
F00000
F00000
ENDCHAR
STARTCHAR 012B
ENCODING 299
SWIDTH 240 0
DWIDTH 12 0
BBX 15 34 2 0
BITMAP
3FFE
7FFE
7FFE
7FFC
0000
0000
0000
0780
0780
0780
0F80
0F00
0F00
0F00
0F00
1E00
1E00
1E00
1E00
3E00
3C00
3C00
3C00
3C00
7C00
7800
7800
7800
7800
F000
F000
F000
F000
F000
ENDCHAR
STARTCHAR 012C
ENCODING 300
SWIDTH 260 0
DWIDTH 13 0
BBX 18 46 2 0
BITMAP
0E00C0
0E01C0
0F0380
07FF80
07FF00
03FE00
00F000
000000
000000
000000
00F000
01F000
01E000
01E000
01E000
01E000
03C000
03C000
03C000
03C000
03C000
078000
078000
078000
078000
0F8000
0F0000
0F0000
0F0000
0F0000
1E0000
1E0000
1E0000
1E0000
1E0000
3C0000
3C0000
3C0000
3C0000
7C0000
780000
780000
780000
780000
F00000
F00000
ENDCHAR
STARTCHAR 012D
ENCODING 301
SWIDTH 240 0
DWIDTH 12 0
BBX 16 37 2 0
BITMAP
3007
3006
380E
3FFC
1FFC
0FF0
0380
0000
0000
0000
0780
0780
0780
0F80
0F00
0F00
0F00
0F00
1E00
1E00
1E00
1E00
3E00
3C00
3C00
3C00
3C00
7C00
7800
7800
7800
7800
F000
F000
F000
F000
F000
ENDCHAR
STARTCHAR 012E
ENCODING 302
SWIDTH 260 0
DWIDTH 13 0
BBX 16 47 -2 -11
BITMAP
000F
001F
001E
001E
001E
001E
003C
003C
003C
003C
003C
0078
0078
0078
0078
00F8
00F0
00F0
00F0
00F0
01E0
01E0
01E0
01E0
01E0
03C0
03C0
03C0
03C0
07C0
0780
0780
0780
0780
0F00
0F00
0F00
1C00
3800
7000
F000
E000
E000
F000
FE00
7E00
3E00
ENDCHAR
STARTCHAR 012F
ENCODING 303
SWIDTH 240 0
DWIDTH 12 0
BBX 15 48 -2 -11
BITMAP
000C
001E
003E
003E
001E
0008
0000
0000
0000
0000
0078
0078
0078
00F8
00F0
00F0
00F0
00F0
01E0
01E0
01E0
01E0
03E0
03C0
03C0
03C0
03C0
07C0
0780
0780
0780
0780
0F00
0F00
0F00
0F00
0F00
0F00
1C00
3800
7000
7000
E000
E000
F000
FE00
7E00
3E00
ENDCHAR
STARTCHAR 0130
ENCODING 304
SWIDTH 260 0
DWIDTH 13 0
BBX 14 46 2 0
BITMAP
0010
007C
007C
007C
0078
0030
0000
0000
0000
0000
00F0
01F0
01E0
01E0
01E0
01E0
03C0
03C0
03C0
03C0
03C0
0780
0780
0780
0780
0F80
0F00
0F00
0F00
0F00
1E00
1E00
1E00
1E00
1E00
3C00
3C00
3C00
3C00
7C00
7800
7800
7800
7800
F000
F000
ENDCHAR
STARTCHAR 0131
ENCODING 305
SWIDTH 240 0
DWIDTH 12 0
BBX 9 27 2 0
BITMAP
0780
0780
0780
0F80
0F00
0F00
0F00
0F00
1E00
1E00
1E00
1E00
3E00
3C00
3C00
3C00
3C00
7C00
7800
7800
7800
7800
F000
F000
F000
F000
F000
ENDCHAR
STARTCHAR 0132
ENCODING 306
SWIDTH 520 0
DWIDTH 26 0
BBX 25 45 2 -9
BITMAP
00F00780
01F00780
01E00780
01E00780
01E00F80
01E00F00
03C00F00
03C00F00
03C00F00
03C01E00
03C01E00
07801E00
07801E00
07803E00
07803C00
0F803C00
0F003C00
0F003C00
0F007C00
0F007800
1E007800
1E007800
1E007800
1E00F000
1E00F000
3C00F000
3C00F000
3C01F000
3C01E000
7C01E000
7801E000
7801E000
7803E000
7803C000
F003C000
F003C000
0003C000
00078000
00078000
000F8000
001F0000
087F0000
0FFE0000
0FFC0000
0FF00000
ENDCHAR
STARTCHAR 0133
ENCODING 307
SWIDTH 500 0
DWIDTH 25 0
BBX 24 49 2 -12
BITMAP
00C00E
01E01F
03E01F
03E01F
01E01E
00800C
000000
000000
000000
000000
07803C
078078
078078
0F8078
0F0078
0F0078
0F00F0
0F00F0
1E00F0
1E00F0
1E01F0
1E01E0
3E01E0
3C01E0
3C01E0
3C03C0
3C03C0
7C03C0
7803C0
7803C0
780780
780780
F00780
F00780
F00780
F00F00
F00F00
000F00
000F00
001E00
001E00
001E00
001E00
003C00
003C00
0CFC00
0FF800
0FF000
0FC000
ENDCHAR
STARTCHAR 0134
ENCODING 308
SWIDTH 260 0
DWIDTH 13 0
BBX 27 56 -8 -9
BITMAP
00001E00
00003F00
00007F00
0000F780
0001E3C0
0003C1C0
000780E0
000E0060
00000000
00000000
00000000
00003C00
00007C00
00007800
00007800
00007800
00007800
0000F800
0000F000
0000F000
0000F000
0000F000
0001E000
0001E000
0001E000
0001E000
0003E000
0003C000
0003C000
0003C000
0003C000
0007C000
00078000
00078000
00078000
00078000
000F8000
000F0000
000F0000
000F0000
001F0000
001E0000
001E0000
001E0000
001E0000
003E0000
003C0000
003C0000
003C0000
007C0000
00780000
00F80000
83F00000
FFE00000
FFC00000
FF800000
ENDCHAR
STARTCHAR 0135
ENCODING 309
SWIDTH 240 0
DWIDTH 12 0
BBX 23 50 -6 -12
BITMAP
0003E0
0003F0
0007F0
000F78
001E38
003C3C
00701E
00E00E
000000
000000
000000
000780
000780
000780
000F00
000F00
000F00
000F00
000F00
001E00
001E00
001E00
001E00
001E00
003C00
003C00
003C00
003C00
007800
007800
007800
007800
007800
00F000
00F000
00F000
00F000
00F000
01E000
01E000
01E000
01E000
03C000
03C000
03C000
07C000
9F8000
FF0000
FE0000
FC0000
ENDCHAR
STARTCHAR 0136
ENCODING 310
SWIDTH 560 0
DWIDTH 28 0
BBX 30 47 2 -11
BITMAP
00F0007C
01F000F8
01E001F0
01E003E0
01E007C0
01E00F80
03C01F00
03C03E00
03C07C00
03C0F800
07C1F000
0783E000
0787C000
078F8000
079F0000
0FBE0000
0F7E0000
0FFE0000
0FFF0000
0FCF0000
1F8F8000
1F078000
1E07C000
1E03C000
1E03C000
3C01E000
3C01E000
3C01F000
3C00F000
7C00F800
78007800
78007800
78007C00
78003C00
F8003E00
F0001E00
00000000
00000000
00000000
00F80000
00F00000
00E00000
01E00000
01C00000
03800000
03800000
07000000
ENDCHAR
STARTCHAR 0137
ENCODING 311
SWIDTH 480 0
DWIDTH 24 0
BBX 25 49 1 -11
BITMAP
00F00000
00F00000
00F00000
00F00000
01F00000
01E00000
01E00000
01E00000
01E00000
03E00000
03C00000
03C00F80
03C01F00
03C03E00
07807C00
0780F800
0781F000
0783E000
0F87C000
0F0F8000
0F1F0000
0F3E0000
0E7C0000
1EFC0000
1FFC0000
1FFE0000
1F9E0000
1F1F0000
3C0F0000
3C0F8000
3C078000
3C07C000
3C03C000
7803C000
7801E000
7801E000
7801F000
F800F000
00000000
00000000
00000000
00F00000
00F00000
01E00000
01C00000
03C00000
03800000
07000000
06000000
ENDCHAR
STARTCHAR 0138
ENCODING 312
SWIDTH 480 0
DWIDTH 24 0
BBX 25 27 1 0
BITMAP
03C00F80
03C01F00
03C03E00
07807C00
0780F800
0781F000
0783E000
0F87C000
0F0F8000
0F1F0000
0F3E0000
0F7C0000
1EFC0000
1FFC0000
1FFE0000
1F9E0000
1F1F0000
3C0F0000
3C0F8000
3C078000
3C07C000
3C03C000
7803C000
7801E000
7801E000
7801F000
F800F000
ENDCHAR
STARTCHAR 0139
ENCODING 313
SWIDTH 460 0
DWIDTH 23 0
BBX 19 47 2 0
BITMAP
0003E0
0007C0
000F80
000F00
001E00
003C00
007800
007000
000000
000000
000000
00F000
01F000
01E000
01E000
01E000
01E000
03C000
03C000
03C000
03C000
07C000
078000
078000
078000
078000
0F8000
0F0000
0F0000
0F0000
0F0000
1E0000
1E0000
1E0000
1E0000
1E0000
3C0000
3C0000
3C0000
3C0000
7C0000
780000
780000
7FFFE0
7FFFE0
FFFFE0
FFFFC0
ENDCHAR
STARTCHAR 013A
ENCODING 314
SWIDTH 240 0
DWIDTH 12 0
BBX 19 50 1 0
BITMAP
0003E0
0003E0
0007C0
000F80
000F00
001E00
003C00
007000
000000
000000
000000
000000
00F000
00F000
00F000
00F000
00F000
01E000
01E000
01E000
01E000
03E000
03C000
03C000
03C000
03C000
078000
078000
078000
078000
078000
0F0000
0F0000
0F0000
0F0000
1F0000
1E0000
1E0000
1E0000
1E0000
3C0000
3C0000
3C0000
3C0000
3C0000
780000
780000
780000
780000
F80000
ENDCHAR
STARTCHAR 013B
ENCODING 315
SWIDTH 460 0
DWIDTH 23 0
BBX 19 47 2 -11
BITMAP
00F000
01F000
01E000
01E000
01E000
01E000
03C000
03C000
03C000
03C000
07C000
078000
078000
078000
078000
0F8000
0F0000
0F0000
0F0000
0F0000
1E0000
1E0000
1E0000
1E0000
1E0000
3C0000
3C0000
3C0000
3C0000
7C0000
780000
780000
7FFFE0
7FFFE0
FFFFE0
FFFFC0
000000
000000
000000
01E000
01E000
03C000
03C000
078000
070000
0F0000
0E0000
ENDCHAR
STARTCHAR 013C
ENCODING 316
SWIDTH 240 0
DWIDTH 12 0
BBX 15 49 -2 -11
BITMAP
001E
001E
001E
001E
001E
003C
003C
003C
003C
007C
0078
0078
0078
0078
00F0
00F0
00F0
00F0
00F0
01E0
01E0
01E0
01E0
03E0
03C0
03C0
03C0
03C0
0780
0780
0780
0780
0780
0F00
0F00
0F00
0F00
1F00
0000
0000
0000
0F00
1E00
1E00
3C00
3800
7800
7000
E000
ENDCHAR
STARTCHAR 013D
ENCODING 317
SWIDTH 460 0
DWIDTH 23 0
BBX 24 36 2 0
BITMAP
00F00F
01F01E
01E01E
01E03C
01E03C
01E078
03C070
03C0E0
03C000
03C000
07C000
078000
078000
078000
078000
0F8000
0F0000
0F0000
0F0000
0F0000
1E0000
1E0000
1E0000
1E0000
1E0000
3C0000
3C0000
3C0000
3C0000
7C0000
780000
780000
7FFFE0
7FFFE0
FFFFE0
FFFFC0
ENDCHAR
STARTCHAR 013E
ENCODING 318
SWIDTH 260 0
DWIDTH 13 0
BBX 20 38 1 0
BITMAP
00F0F0
00F0F0
00F0E0
00F1E0
00F1C0
01E380
01E780
01E700
01E000
03E000
03C000
03C000
03C000
03C000
078000
078000
078000
078000
078000
0F0000
0F0000
0F0000
0F0000
1F0000
1E0000
1E0000
1E0000
1E0000
3C0000
3C0000
3C0000
3C0000
3C0000
780000
780000
780000
780000
F80000
ENDCHAR
STARTCHAR 013F
ENCODING 319
SWIDTH 460 0
DWIDTH 23 0
BBX 20 36 2 0
BITMAP
00F000
01F000
01E000
01E000
01E000
01E000
03C000
03C000
03C000
03C000
07C000
078000
078000
078000
078000
0F8000
0F01F0
0F01F0
0F01F0
0F01E0
1E00C0
1E0000
1E0000
1E0000
1E0000
3C0000
3C0000
3C0000
3C0000
7C0000
780000
780000
7FFFE0
7FFFE0
FFFFE0
FFFFC0
ENDCHAR
STARTCHAR 0140
ENCODING 320
SWIDTH 280 0
DWIDTH 14 0
BBX 16 38 1 0
BITMAP
00F0
00F0
00F0
00F0
00F0
01E0
01E0
01E0
01E0
03E0
03C0
03C0
03C0
03C0
0780
0780
0780
078E
079F
0F1F
0F1F
0F1E
0F00
1F00
1E00
1E00
1E00
1E00
3C00
3C00
3C00
3C00
3C00
7800
7800
7800
7800
F800
ENDCHAR
STARTCHAR 0141
ENCODING 321
SWIDTH 460 0
DWIDTH 23 0
BBX 20 36 1 0
BITMAP
007800
00F800
00F000
00F000
00F000
01F000
01E000
01E000
01E000
01E000
03E000
03C000
03C000
03C000
03C700
078F00
07BF00
07FC00
07F000
07E000
1F8000
7F0000
FF0000
FF0000
5F0000
1E0000
1E0000
1E0000
1E0000
3E0000
3C0000
3C0000
3FFFF0
3FFFF0
7FFFF0
7FFFE0
ENDCHAR
STARTCHAR 0142
ENCODING 322
SWIDTH 240 0
DWIDTH 12 0
BBX 14 38 0 0
BITMAP
0078
0078
0078
0078
00F8
00F0
00F0
00F0
00F0
01F0
01E0
01E0
01E0
01E0
03C0
03C8
03DC
03FC
07F8
07E0
0F80
3F80
FF80
7F80
6F00
0F00
0F00
0F00
1E00
1E00
1E00
1E00
1E00
3C00
3C00
3C00
3C00
7C00
ENDCHAR
STARTCHAR 0143
ENCODING 323
SWIDTH 700 0
DWIDTH 35 0
BBX 33 47 2 0
BITMAP
000000F800
000001F000
000001E000
000003C000
0000078000
00000F0000
00001E0000
00001C0000
0000000000
0000000000
0000000000
00F0000780
01F0000780
01F8000780
01F8000780
01FC000700
03FC000F00
03FC000F00
03DE000F00
03DE000F00
039E001E00
078F001E00
078F001E00
0787801E00
0787801E00
0707803C00
0F03C03C00
0F03C03C00
0F03C03C00
0F01E03C00
0E01E07800
1E00F07800
1E00F07800
1E00F07800
1E0078F000
3C0078F000
3C0078F000
3C003CF000
3C003CF000
3C001EE000
78001FE000
78001FE000
78000FE000
78000FE000
700007C000
F00007C000
F00007C000
ENDCHAR
STARTCHAR 0144
ENCODING 324
SWIDTH 560 0
DWIDTH 28 0
BBX 25 38 1 0
BITMAP
00000F80
00001F00
00003E00
00003C00
00007800
0000F000
0001E000
00018000
00000000
00000000
00000000
03C3FC00
0387FE00
079FFF00
07BF1F80
07B80F80
07F00780
07E00780
0FC00780
0FC00780
0F800F80
0F800F80
0F000F00
1F000F00
1F000F00
1E001F00
1E001F00
3E001E00
3E001E00
3C001E00
3C003E00
3C003C00
7C003C00
7C003C00
78007C00
78007C00
78007800
F8007800
ENDCHAR
STARTCHAR 0145
ENCODING 325
SWIDTH 700 0
DWIDTH 35 0
BBX 33 47 2 -11
BITMAP
00F0000780
01F0000780
01F8000780
01F8000780
01FC000700
03FC000F00
03FC000F00
03DE000F00
03DE000F00
039E001E00
078F001E00
078F001E00
0787801E00
0787801E00
0707803C00
0F03C03C00
0F03C03C00
0F03C03C00
0F01E03C00
0E01E07800
1E00F07800
1E00F07800
1E00F07800
1E0078F000
3C0078F000
3C0078F000
3C003CF000
3C003CF000
3C001EE000
78001FE000
78001FE000
78000FE000
78000FE000
700007C000
F00007C000
F00007C000
0000000000
0000000000
0000000000
001E000000
003C000000
003C000000
0038000000
0078000000
00F0000000
00E0000000
01C0000000
ENDCHAR
STARTCHAR 0146
ENCODING 326
SWIDTH 560 0
DWIDTH 28 0
BBX 25 38 1 -11
BITMAP
03C3FC00
0387FE00
079FFF00
07BF1F80
07B80F80
07F00780
07E00780
0FC00780
0FC00780
0F800F80
0F800F80
0F000F00
1F000F00
1F000F00
1E001F00
1E001F00
3E001E00
3E001E00
3C001E00
3C003E00
3C003C00
7C003C00
7C003C00
78007C00
78007C00
78007800
F8007800
00000000
00000000
00000000
00780000
00F00000
00F00000
01E00000
01E00000
03C00000
03800000
07000000
ENDCHAR
STARTCHAR 0147
ENCODING 327
SWIDTH 700 0
DWIDTH 35 0
BBX 33 47 2 0
BITMAP
0001C03C00
0000E07800
0000F0F000
000079E000
00003FC000
00003F8000
00001F0000
00001E0000
0000000000
0000000000
0000000000
00F0000780
01F0000780
01F8000780
01F8000780
01FC000700
03FC000F00
03FC000F00
03DE000F00
03DE000F00
039E001E00
078F001E00
078F001E00
0787801E00
0787801E00
0707803C00
0F03C03C00
0F03C03C00
0F03C03C00
0F01E03C00
0E01E07800
1E00F07800
1E00F07800
1E00F07800
1E0078F000
3C0078F000
3C0078F000
3C003CF000
3C003CF000
3C001EE000
78001FE000
78001FE000
78000FE000
78000FE000
700007C000
F00007C000
F00007C000
ENDCHAR
STARTCHAR 0148
ENCODING 328
SWIDTH 560 0
DWIDTH 28 0
BBX 26 38 1 0
BITMAP
001C03C0
000E0780
000F0F00
0007BE00
0007FC00
0003F800
0003F000
0001E000
00000000
00000000
00000000
03C3FC00
0387FE00
079FFF00
07BF1F80
07B80F80
07F00780
07E00780
0FC00780
0FC00780
0F800F80
0F800F80
0F000F00
1F000F00
1F000F00
1E001F00
1E001F00
3E001E00
3E001E00
3C001E00
3C003E00
3C003C00
7C003C00
7C003C00
78007C00
78007C00
78007800
F8007800
ENDCHAR
STARTCHAR 0149
ENCODING 329
SWIDTH 640 0
DWIDTH 32 0
BBX 28 36 2 0
BITMAP
07C00000
07C00000
0F800000
0F800000
0F000000
1F000000
1E000000
3C000000
3C000000
38707F80
78F1FFC0
70F3FFE0
E0F7E7E0
00FF01F0
00FE01F0
01FC00F0
01F800F0
01F001F0
01F001F0
01E001E0
03E001E0
03E001E0
03C003E0
03C003E0
07C003C0
07C003C0
078003C0
078007C0
07800780
0F800780
0F800780
0F000F80
0F000F80
0F000F00
1F000F00
1E000F00
ENDCHAR
STARTCHAR 014A
ENCODING 330
SWIDTH 700 0
DWIDTH 35 0
BBX 33 45 2 -9
BITMAP
00F0000780
01F0000780
01F8000780
01F8000780
01FC000F00
03FC000F00
03FC000F00
03DE000F00
03DE000F00
039E001E00
078F001E00
078F001E00
0787801E00
0787801E00
0707803C00
0F03C03C00
0F03C03C00
0F01E03C00
0F01E03C00
0E01E07800
1E00F07800
1E00F07800
1E00F07800
1E0078F000
3C0078F000
3C003CF000
3C003CF000
3C003CF000
3C001EE000
78001FE000
78000FE000
78000FE000
78000FE000
700007C000
F00007C000
F00003C000
000003C000
0000078000
0000078000
00000F8000
00001F0000
00087F0000
000FFE0000
000FFC0000
000FF00000
ENDCHAR
STARTCHAR 014B
ENCODING 331
SWIDTH 560 0
DWIDTH 28 0
BBX 24 39 2 -12
BITMAP
0703F8
070FFC
071FFE
0F3C3F
0F701F
0FE00F
0FC00F
0F800F
1F000F
1F000F
1E001E
1E001E
3E001E
3C001E
3C003E
3C003C
3C003C
7C003C
78003C
78007C
780078
780078
F00078
F00078
F000F8
F000F0
F000F0
0000F0
0000F0
0001E0
0001E0
0001E0
0001E0
0003C0
0007C0
00CFC0
00FF80
00FF00
00FC00
ENDCHAR
STARTCHAR 014C
ENCODING 332
SWIDTH 720 0
DWIDTH 36 0
BBX 30 43 4 0
BITMAP
0007FFE0
0007FFC0
0007FFC0
0007FFC0
00000000
00000000
00000000
0007FE00
003FFF80
007FFFC0
01FF3FE0
03F803F0
07E001F8
0FC000F8
0F800078
1F00007C
1E00007C
3E00003C
3C00003C
7C00003C
7800003C
7800003C
F800003C
F800003C
F000003C
F000003C
F000007C
F000007C
F000007C
F0000078
F00000F8
F00000F8
F00001F0
F80001F0
F80003E0
780003E0
7C0007C0
7E000F80
3F003F80
1FC0FF00
0FFFFC00
07FFF800
01FFE000
ENDCHAR
STARTCHAR 014D
ENCODING 333
SWIDTH 560 0
DWIDTH 28 0
BBX 24 34 2 0
BITMAP
007FFC
00FFFC
00FFFC
00FFF8
000000
000000
000000
003FC0
00FFF0
03FFF8
07F0FC
07C03C
0F803E
1F001E
1E001F
3C000F
3C000F
7C000F
78000F
78001F
78001F
78001E
F8001E
F8001E
F8003E
F8003C
78007C
780078
7C00F8
3C01F0
3F07E0
1FFFC0
0FFF80
03FE00
ENDCHAR
STARTCHAR 014E
ENCODING 334
SWIDTH 720 0
DWIDTH 36 0
BBX 30 46 4 0
BITMAP
00070060
000700E0
000781C0
0003FFC0
0003FF80
0001FF00
00007800
00000000
00000000
00000000
0007FE00
003FFF80
007FFFC0
01FF3FE0
03F803F0
07E001F8
0FC000F8
0F800078
1F00007C
1E00007C
3E00003C
3C00003C
7C00003C
7800003C
7800003C
F800003C
F800003C
F000003C
F000003C
F000007C
F000007C
F000007C
F0000078
F00000F8
F00000F8
F00001F0
F80001F0
F80003E0
780003E0
7C0007C0
7E000F80
3F003F80
1FC0FF00
0FFFFC00
07FFF800
01FFE000
ENDCHAR
STARTCHAR 014F
ENCODING 335
SWIDTH 560 0
DWIDTH 28 0
BBX 24 37 2 0
BITMAP
00600E
00600C
00701C
007FF8
003FF8
001FE0
000700
000000
000000
000000
003FC0
00FFF0
03FFF8
07F0FC
07C03C
0F803E
1F001E
1E001F
3C000F
3C000F
7C000F
78000F
78001F
78001F
78001E
F8001E
F8001E
F8003E
F8003C
78007C
780078
7C00F8
3C01F0
3F07E0
1FFFC0
0FFF80
03FE00
ENDCHAR
STARTCHAR 0150
ENCODING 336
SWIDTH 720 0
DWIDTH 36 0
BBX 32 47 4 0
BITMAP
00001E1F
00003C3E
0000783C
00007078
0000E0F0
0001C1E0
000383C0
00070300
00000000
00000000
00000000
0007FE00
003FFF80
007FFFC0
01FF3FE0
03F803F0
07E001F8
0FC000F8
0F800078
1F00007C
1E00007C
3E00003C
3C00003C
7C00003C
7800003C
7800003C
F800003C
F800003C
F000003C
F000003C
F000007C
F000007C
F000007C
F0000078
F00000F8
F00000F8
F00001F0
F80001F0
F80003E0
780003E0
7C0007C0
7E000F80
3F003F80
1FC0FF00
0FFFFC00
07FFF800
01FFE000
ENDCHAR
STARTCHAR 0151
ENCODING 337
SWIDTH 560 0
DWIDTH 28 0
BBX 27 38 2 0
BITMAP
0003E1E0
0007C3C0
00078780
000F0F00
001E0E00
003C1C00
00783800
00607000
00000000
00000000
00000000
003FC000
00FFF000
03FFF800
07F0FC00
07C03C00
0F803E00
1F001E00
1E001F00
3C000F00
3C000F00
7C000F00
78000F00
78001F00
78001F00
78001E00
F8001E00
F8001E00
F8003E00
F8003C00
78007C00
78007800
7C00F800
3C01F000
3F07E000
1FFFC000
0FFF8000
03FE0000
ENDCHAR
STARTCHAR 0152
ENCODING 338
SWIDTH 860 0
DWIDTH 43 0
BBX 41 36 4 0
BITMAP
0007FFFFFF80
003FFFFFFF80
007FFFFFFF80
01FF1FFFFF00
03F803C00000
07E003C00000
0FC003C00000
0F8007800000
1F0007800000
1E0007800000
3E0007800000
3C000F800000
7C000F000000
78000F000000
78000F000000
F8000F000000
F8001FFFF800
F0001FFFF000
F0001FFFF000
F0001E000000
F0001E000000
F0003E000000
F0003C000000
F0003C000000
F0003C000000
F0007C000000
F80078000000
F80078000000
780078000000
7C0078000000
7E00F8000000
3F00F0000000
1FC0FFFFC000
0FFFFFFFC000
07FFFFFFC000
01FFFFFFC000
ENDCHAR
STARTCHAR 0153
ENCODING 339
SWIDTH 860 0
DWIDTH 43 0
BBX 40 27 2 0
BITMAP
003FC007F0
00FFF01FFC
03FFF87FFE
07F1FCFC3E
07C03DF01F
0F803FE00F
1F001FC00F
1E001FC00F
3C001F801E
3C001F003E
7C001F007C
78001F07FC
78001FFFF0
78001FFFE0
78001FFF00
F8001E0000
F8001E0000
F8003E0000
F8003E0000
78007E0000
78007F0000
7C00FF0000
3C01EF8008
3F07E7C078
1FFFC7FFF8
0FFF03FFF8
03FE00FFE0
ENDCHAR
STARTCHAR 0154
ENCODING 340
SWIDTH 560 0
DWIDTH 28 0
BBX 26 47 2 0
BITMAP
00000780
00000F80
00001F00
00003E00
00003C00
00007800
0000E000
0001C000
00000000
00000000
00000000
00FFC000
01FFFC00
01FFFF00
01FFFF80
01E01F80
01E007C0
03C007C0
03C003C0
03C003C0
03C003C0
07C003C0
078003C0
078003C0
078007C0
07800780
0F800F80
0F003F00
0F03FE00
0FFFFC00
0FFFE000
1FFFC000
1E03C000
1E03C000
1E03E000
1E01E000
3C01E000
3C01F000
3C00F000
3C00F000
7C00F800
78007800
78007C00
78003C00
78003C00
F8003E00
F0001E00
ENDCHAR
STARTCHAR 0155
ENCODING 341
SWIDTH 380 0
DWIDTH 19 0
BBX 20 38 2 0
BITMAP
0000F0
0001F0
0003E0
0007C0
000780
000F00
001C00
003800
000000
000000
000000
0707E0
070FE0
073FE0
0F3FC0
0F7000
0FE000
0FC000
0F8000
1F8000
1F0000
1E0000
1E0000
3E0000
3C0000
3C0000
3C0000
3C0000
7C0000
780000
780000
780000
780000
F00000
F00000
F00000
F00000
F00000
ENDCHAR
STARTCHAR 0156
ENCODING 342
SWIDTH 560 0
DWIDTH 28 0
BBX 26 47 2 -11
BITMAP
00FFC000
01FFFC00
01FFFF00
01FFFF80
01E01F80
01E007C0
03C007C0
03C003C0
03C003C0
03C003C0
07C003C0
078003C0
078003C0
078007C0
07800780
0F800F80
0F003F00
0F03FE00
0FFFFC00
0FFFE000
1FFFC000
1E03C000
1E03C000
1E03E000
1E01E000
3C01E000
3C01F000
3C00F000
3C00F000
7C00F800
78007800
78007C00
78003C00
78003C00
F8003E00
F0001E00
00000000
00000000
00000000
00780000
00F00000
00F00000
01E00000
01C00000
03C00000
03800000
07000000
ENDCHAR
STARTCHAR 0157
ENCODING 343
SWIDTH 380 0
DWIDTH 19 0
BBX 23 38 -2 -11
BITMAP
00707E
0070FE
0073FE
00F3FC
00F700
00FE00
00FC00
00F800
01F800
01F000
01E000
01E000
03E000
03C000
03C000
03C000
03C000
07C000
078000
078000
078000
078000
0F0000
0F0000
0F0000
0F0000
0F0000
000000
000000
000000
0F0000
1E0000
1E0000
3C0000
380000
780000
700000
E00000
ENDCHAR
STARTCHAR 0158
ENCODING 344
SWIDTH 560 0
DWIDTH 28 0
BBX 26 47 2 0
BITMAP
000E01C0
000F0380
00070F00
00079E00
0003FC00
0001F800
0001F800
0000F000
00000000
00000000
00000000
00FFC000
01FFFC00
01FFFF00
01FFFF80
01E01F80
01E007C0
03C007C0
03C003C0
03C003C0
03C003C0
07C003C0
078003C0
078003C0
078007C0
07800780
0F800F80
0F003F00
0F03FE00
0FFFFC00
0FFFE000
1FFFC000
1E03C000
1E03C000
1E03E000
1E01E000
3C01E000
3C01F000
3C00F000
3C00F000
7C00F800
78007800
78007C00
78003C00
78003C00
F8003E00
F0001E00
ENDCHAR
STARTCHAR 0159
ENCODING 345
SWIDTH 380 0
DWIDTH 19 0
BBX 22 38 2 0
BITMAP
01C03C
01E070
00F1E0
0073C0
007F80
003F80
003F00
001E00
000000
000000
000000
0707E0
070FE0
073FE0
0F3FC0
0F7000
0FE000
0FC000
0F8000
1F8000
1F0000
1E0000
1E0000
3E0000
3C0000
3C0000
3C0000
3C0000
7C0000
780000
780000
780000
780000
F00000
F00000
F00000
F00000
F00000
ENDCHAR
STARTCHAR 015A
ENCODING 346
SWIDTH 500 0
DWIDTH 25 0
BBX 25 47 1 0
BITMAP
00001F00
00001E00
00003C00
00007800
0000F000
0001E000
0001C000
00038000
00000000
00000000
00000000
001FF800
007FFF00
00FFFF80
01FF7F00
03F00700
07C00000
07C00000
07800000
0F800000
0F800000
0F800000
0F800000
07800000
07C00000
07E00000
03F80000
01FC0000
00FF0000
003F8000
001FE000
0007F000
0003F000
0000F800
0000F800
00007800
00007800
00007800
00007800
00007800
0000F800
0001F000
8003F000
F80FE000
FFFFC000
FFFF8000
7FFC0000
ENDCHAR
STARTCHAR 015B
ENCODING 347
SWIDTH 420 0
DWIDTH 21 0
BBX 21 38 0 0
BITMAP
0000F8
0000F0
0001E0
0003E0
0007C0
000700
000E00
001C00
000000
000000
000000
00FFC0
03FFF0
07FFF0
0FC1F0
0F8020
0F0000
1F0000
1F0000
0F0000
0F8000
0FC000
07E000
03F800
01FE00
007F00
001F80
000F80
0007C0
0003C0
0003C0
0003C0
0007C0
800780
F01F80
FFFF00
FFFE00
3FF800
ENDCHAR
STARTCHAR 015C
ENCODING 348
SWIDTH 500 0
DWIDTH 25 0
BBX 25 47 1 0
BITMAP
0001F000
0003F000
0007F800
000FB800
001F3C00
003C1E00
00780E00
00700700
00000000
00000000
00000000
001FF800
007FFF00
00FFFF80
01FF7F00
03F00700
07C00000
07C00000
07800000
0F800000
0F800000
0F800000
0F800000
07800000
07C00000
07E00000
03F80000
01FC0000
00FF0000
003F8000
001FE000
0007F000
0003F000
0000F800
0000F800
00007800
00007800
00007800
00007800
00007800
0000F800
0001F000
8003F000
F80FE000
FFFFC000
FFFF8000
7FFC0000
ENDCHAR
STARTCHAR 015D
ENCODING 349
SWIDTH 420 0
DWIDTH 21 0
BBX 21 38 0 0
BITMAP
000F80
001FC0
001FC0
003DE0
0078E0
00F0F0
03C078
038038
000000
000000
000000
00FFC0
03FFF0
07FFF0
0FC1F0
0F8020
0F0000
1F0000
1F0000
0F0000
0F8000
0FC000
07E000
03F800
01FE00
007F00
001F80
000F80
0007C0
0003C0
0003C0
0003C0
0007C0
800780
F01F80
FFFF00
FFFE00
3FF800
ENDCHAR
STARTCHAR 015E
ENCODING 350
SWIDTH 500 0
DWIDTH 25 0
BBX 25 48 1 -12
BITMAP
001FF800
007FFF00
00FFFF80
01FF7F00
03F00700
07C00000
07C00000
07800000
0F800000
0F800000
0F800000
0F800000
07800000
07C00000
07E00000
03F80000
01FC0000
00FF0000
003F8000
001FE000
0007F000
0003F000
0000F800
0000F800
00007800
00007800
00007800
00007800
00007800
0000F800
0001F000
8003F000
F80FE000
FFFFC000
FFFF8000
7FFC0000
00C00000
01C00000
01800000
03E00000
03F00000
00700000
00700000
00700000
00F00000
1FE00000
1FE00000
1F800000
ENDCHAR
STARTCHAR 015F
ENCODING 351
SWIDTH 420 0
DWIDTH 21 0
BBX 20 39 0 -12
BITMAP
00FFC0
03FFF0
07FFF0
0FC1F0
0F8020
0F0000
1F0000
1F0000
0F0000
0F8000
0FC000
07E000
03F800
01FE00
007F00
001F80
000F80
0007C0
0003C0
0003C0
0003C0
0007C0
800780
F01F80
FFFF00
FFFE00
3FF800
018000
038000
030000
07C000
07E000
00E000
00E000
00E000
01E000
3FE000
3FC000
3F0000
ENDCHAR
STARTCHAR 0160
ENCODING 352
SWIDTH 500 0
DWIDTH 25 0
BBX 25 47 1 0
BITMAP
003C0380
001E0F00
000E1E00
000F3C00
0007F800
0007F000
0003E000
0003E000
00000000
00000000
00000000
001FF800
007FFF00
00FFFF80
01FF7F00
03F00700
07C00000
07C00000
07800000
0F800000
0F800000
0F800000
0F800000
07800000
07C00000
07E00000
03F80000
01FC0000
00FF0000
003F8000
001FE000
0007F000
0003F000
0000F800
0000F800
00007800
00007800
00007800
00007800
00007800
0000F800
0001F000
8003F000
F80FE000
FFFFC000
FFFF8000
7FFC0000
ENDCHAR
STARTCHAR 0161
ENCODING 353
SWIDTH 420 0
DWIDTH 21 0
BBX 22 38 0 0
BITMAP
00E01C
00F078
0078F0
0039E0
003FC0
001F80
001F00
000F00
000000
000000
000000
00FFC0
03FFF0
07FFF0
0FC1F0
0F8020
0F0000
1F0000
1F0000
0F0000
0F8000
0FC000
07E000
03F800
01FE00
007F00
001F80
000F80
0007C0
0003C0
0003C0
0003C0
0007C0
800780
F01F80
FFFF00
FFFE00
3FF800
ENDCHAR
STARTCHAR 0162
ENCODING 354
SWIDTH 480 0
DWIDTH 24 0
BBX 25 48 4 -12
BITMAP
7FFFFF80
7FFFFF80
7FFFFF80
7FFFFF80
003E0000
003C0000
003C0000
003C0000
003C0000
007C0000
00780000
00780000
00780000
00F80000
00F00000
00F00000
00F00000
00F00000
01F00000
01E00000
01E00000
01E00000
01E00000
03E00000
03C00000
03C00000
03C00000
07C00000
07800000
07800000
07800000
07800000
0F800000
0F000000
0F000000
0F000000
06000000
0E000000
1C000000
1E000000
1F800000
07800000
03800000
03800000
07800000
FF000000
FE000000
F8000000
ENDCHAR
STARTCHAR 0163
ENCODING 355
SWIDTH 320 0
DWIDTH 16 0
BBX 17 45 1 -12
BITMAP
006000
00E000
00E000
01E000
01C000
03C000
0FFF80
3FFF80
7FFF80
078000
078000
078000
078000
078000
0F0000
0F0000
0F0000
0F0000
1F0000
1E0000
1E0000
1E0000
1E0000
3E0000
3C0000
3C0000
3C0000
3C0000
3C0000
3E0000
3FF000
1FF000
0FF000
070000
060000
0E0000
1F0000
0F8000
03C000
03C000
03C000
038000
FF8000
FF0000
FC0000
ENDCHAR
STARTCHAR 0164
ENCODING 356
SWIDTH 480 0
DWIDTH 24 0
BBX 24 47 5 0
BITMAP
01C03C
00E078
00F0F0
0073E0
007FC0
003F80
003F00
001E00
000000
000000
000000
FFFFFF
FFFFFF
FFFFFF
FFFFFF
007C00
007800
007800
007800
007800
00F800
00F000
00F000
00F000
01F000
01E000
01E000
01E000
01E000
03E000
03C000
03C000
03C000
03C000
07C000
078000
078000
078000
0F8000
0F0000
0F0000
0F0000
0F0000
1F0000
1E0000
1E0000
1E0000
ENDCHAR
STARTCHAR 0165
ENCODING 357
SWIDTH 320 0
DWIDTH 16 0
BBX 20 38 2 0
BITMAP
0000F0
0001E0
0001E0
0003C0
000380
00C780
01C700
01CE00
03C000
038000
078000
1FFF00
7FFF00
FFFF00
0F0000
0F0000
0F0000
0F0000
0F0000
1E0000
1E0000
1E0000
1E0000
3E0000
3C0000
3C0000
3C0000
3C0000
7C0000
780000
780000
780000
780000
780000
7C0000
7FE000
3FE000
1FE000
ENDCHAR
STARTCHAR 0166
ENCODING 358
SWIDTH 480 0
DWIDTH 24 0
BBX 25 36 4 0
BITMAP
7FFFFF80
7FFFFF80
7FFFFF80
7FFFFF80
003E0000
003C0000
003C0000
003C0000
007C0000
00780000
00780000
00780000
00780000
00F80000
00F00000
00F00000
7FFFE000
7FFFE000
FFFFE000
FFFFE000
01E00000
01E00000
01E00000
03E00000
03C00000
03C00000
03C00000
07C00000
07800000
07800000
07800000
07800000
0F800000
0F000000
0F000000
0F000000
ENDCHAR
STARTCHAR 0167
ENCODING 359
SWIDTH 320 0
DWIDTH 16 0
BBX 17 33 1 0
BITMAP
006000
00E000
00E000
01E000
01C000
03C000
0FFF80
3FFF80
7FFF80
078000
078000
078000
078000
0F8000
0F0000
0F0000
FFFC00
FFFC00
FFFC00
1E0000
1E0000
1E0000
1E0000
3E0000
3C0000
3C0000
3C0000
3C0000
3C0000
3E0000
3FF000
1FF000
0FF000
ENDCHAR
STARTCHAR 0168
ENCODING 360
SWIDTH 660 0
DWIDTH 33 0
BBX 30 46 4 0
BITMAP
00010030
0007E070
000FF8E0
001FFFE0
001C7FC0
00381F80
00380200
00000000
00000000
00000000
0780003C
0780003C
0780003C
0780003C
0F00007C
0F000078
0F000078
0F000078
1F000078
1E0000F0
1E0000F0
1E0000F0
1E0000F0
3E0001F0
3C0001E0
3C0001E0
3C0001E0
3C0001E0
780003E0
780003C0
780003C0
780003C0
F80003C0
F00007C0
F0000780
F0000780
F0000F80
F0000F00
F0000F00
F8001E00
78003E00
7C007C00
3F83F800
3FFFF000
1FFFE000
07FF8000
ENDCHAR
STARTCHAR 0169
ENCODING 361
SWIDTH 560 0
DWIDTH 28 0
BBX 25 37 3 0
BITMAP
00180380
007F0300
00FF8700
00FFFE00
01C3FE00
0180FC00
01803000
00000000
00000000
00000000
0F000F00
0F000F00
1E000F00
1E000F00
1E001E00
1E001E00
3E001E00
3C001E00
3C001E00
3C003C00
3C003C00
7C003C00
78003C00
78007800
78007800
F8007800
F000F800
F000F800
F001F000
F001F000
F003F000
F007F000
F00EF000
F83CE000
7FF8E000
7FF1E000
1FE1E000
ENDCHAR
STARTCHAR 016A
ENCODING 362
SWIDTH 660 0
DWIDTH 33 0
BBX 30 43 4 0
BITMAP
000FFFC0
000FFF80
000FFF80
000FFF80
00000000
00000000
00000000
0780003C
0780003C
0780003C
0780003C
0F00007C
0F000078
0F000078
0F000078
1F000078
1E0000F0
1E0000F0
1E0000F0
1E0000F0
3E0001F0
3C0001E0
3C0001E0
3C0001E0
3C0001E0
780003E0
780003C0
780003C0
780003C0
F80003C0
F00007C0
F0000780
F0000780
F0000F80
F0000F00
F0000F00
F8001E00
78003E00
7C007C00
3F83F800
3FFFF000
1FFFE000
07FF8000
ENDCHAR
STARTCHAR 016B
ENCODING 363
SWIDTH 560 0
DWIDTH 28 0
BBX 24 34 3 0
BITMAP
007FFC
007FFC
00FFFC
00FFF8
000000
000000
000000
0F000F
0F000F
1E000F
1E000F
1E001E
1E001E
3E001E
3C001E
3C001E
3C003C
3C003C
7C003C
78003C
780078
780078
F80078
F000F8
F000F8
F001F0
F001F0
F003F0
F007F0
F00EF0
F83CE0
7FF8E0
7FF1E0
1FE1E0
ENDCHAR
STARTCHAR 016C
ENCODING 364
SWIDTH 660 0
DWIDTH 33 0
BBX 30 46 4 0
BITMAP
000E00C0
000E01C0
000F03C0
0007FF80
0007FF00
0003FE00
0000F000
00000000
00000000
00000000
0780003C
0780003C
0780003C
0780003C
0F00007C
0F000078
0F000078
0F000078
1F000078
1E0000F0
1E0000F0
1E0000F0
1E0000F0
3E0001F0
3C0001E0
3C0001E0
3C0001E0
3C0001E0
780003E0
780003C0
780003C0
780003C0
F80003C0
F00007C0
F0000780
F0000780
F0000F80
F0000F00
F0000F00
F8001E00
78003E00
7C007C00
3F83F800
3FFFF000
1FFFE000
07FF8000
ENDCHAR
STARTCHAR 016D
ENCODING 365
SWIDTH 560 0
DWIDTH 28 0
BBX 24 37 3 0
BITMAP
00600E
00700C
00701C
007FF8
003FF8
001FF0
000700
000000
000000
000000
0F000F
0F000F
1E000F
1E000F
1E001E
1E001E
3E001E
3C001E
3C001E
3C003C
3C003C
7C003C
78003C
780078
780078
F80078
F000F8
F000F8
F001F0
F001F0
F003F0
F007F0
F00EF0
F83CE0
7FF8E0
7FF1E0
1FE1E0
ENDCHAR
STARTCHAR 016E
ENCODING 366
SWIDTH 660 0
DWIDTH 33 0
BBX 30 50 4 0
BITMAP
00003000
0001FC00
0003FE00
00038700
00070700
00070300
00070700
00038700
0003FE00
0001FC00
00007000
00000000
00000000
00000000
0780003C
0780003C
0780003C
0780003C
0F00007C
0F000078
0F000078
0F000078
1F000078
1E0000F0
1E0000F0
1E0000F0
1E0000F0
3E0001F0
3C0001E0
3C0001E0
3C0001E0
3C0001E0
780003E0
780003C0
780003C0
780003C0
F80003C0
F00007C0
F0000780
F0000780
F0000F80
F0000F00
F0000F00
F8001E00
78003E00
7C007C00
3F83F800
3FFFF000
1FFFE000
07FF8000
ENDCHAR
STARTCHAR 016F
ENCODING 367
SWIDTH 560 0
DWIDTH 28 0
BBX 24 41 3 0
BITMAP
000380
000FE0
001FF0
003870
003838
003038
003838
003870
001FF0
000FE0
000300
000000
000000
000000
0F000F
0F000F
1E000F
1E000F
1E001E
1E001E
3E001E
3C001E
3C001E
3C003C
3C003C
7C003C
78003C
780078
780078
F80078
F000F8
F000F8
F001F0
F001F0
F003F0
F007F0
F00EF0
F83CE0
7FF8E0
7FF1E0
1FE1E0
ENDCHAR
STARTCHAR 0170
ENCODING 368
SWIDTH 660 0
DWIDTH 33 0
BBX 31 47 4 0
BITMAP
00003C3E
0000787C
0000F878
0000F0F0
0001C1E0
000383C0
00070380
00060600
00000000
00000000
00000000
0780003C
0780003C
0780003C
0780003C
0F00007C
0F000078
0F000078
0F000078
1F000078
1E0000F0
1E0000F0
1E0000F0
1E0000F0
3E0001F0
3C0001E0
3C0001E0
3C0001E0
3C0001E0
780003E0
780003C0
780003C0
780003C0
F80003C0
F00007C0
F0000780
F0000780
F0000F80
F0000F00
F0000F00
F8001E00
78003E00
7C007C00
3F83F800
3FFFF000
1FFFE000
07FF8000
ENDCHAR
STARTCHAR 0171
ENCODING 369
SWIDTH 560 0
DWIDTH 28 0
BBX 27 38 3 0
BITMAP
0003E1E0
0003C3C0
00078780
000F0F00
001E0E00
003C1C00
00383800
00607000
00000000
00000000
00000000
0F000F00
0F000F00
1E000F00
1E000F00
1E001E00
1E001E00
3E001E00
3C001E00
3C001E00
3C003C00
3C003C00
7C003C00
78003C00
78007800
78007800
F8007800
F000F800
F000F800
F001F000
F001F000
F003F000
F007F000
F00EF000
F83CE000
7FF8E000
7FF1E000
1FE1E000
ENDCHAR
STARTCHAR 0172
ENCODING 370
SWIDTH 660 0
DWIDTH 33 0
BBX 30 47 4 -11
BITMAP
0780003C
0780003C
0780003C
0780003C
0F00007C
0F000078
0F000078
0F000078
1F000078
1E0000F0
1E0000F0
1E0000F0
1E0000F0
3E0001F0
3C0001E0
3C0001E0
3C0001E0
3C0001E0
780003E0
780003C0
780003C0
780003C0
F80003C0
F00007C0
F0000780
F0000780
F0000F80
F0000F00
F0000F00
F8001E00
78003E00
7C007C00
3F83F800
3FFFF000
1FFFE000
07FF8000
001C0000
00780000
00E00000
01E00000
01C00000
03C00000
03C00000
03C00000
03F80000
01F80000
00F80000
ENDCHAR
STARTCHAR 0173
ENCODING 371
SWIDTH 560 0
DWIDTH 28 0
BBX 24 38 3 -11
BITMAP
0F000F
0F000F
1E000F
1E000F
1E001E
1E001E
3E001E
3C001E
3C001E
3C003C
3C003C
7C003C
78003C
780078
780078
F80078
F000F8
F000F8
F001F0
F001F0
F003F0
F007F0
F00EF0
F83CE0
7FF8E0
7FF1E0
1FE1E0
0001C0
000700
000E00
001C00
001C00
003C00
003800
003C00
003F80
001F80
000F80
ENDCHAR
STARTCHAR 0174
ENCODING 372
SWIDTH 840 0
DWIDTH 42 0
BBX 42 47 5 0
BITMAP
00000F800000
00000FC00000
00001FC00000
00003DE00000
000078E00000
0000F0F00000
0001C0780000
000380380000
000000000000
000000000000
000000000000
F8001E0007C0
F8003E000780
78003E000780
78003E000F00
78007E000F00
78007E001F00
7800FF001E00
7800EF003E00
7801EF003C00
7801CF007C00
7803CF007800
7803CF007800
78078F00F000
78078F00F000
780F0F01E000
780F0F01E000
781E0F03E000
781E0703C000
781C0703C000
783C07078000
783807078000
7878070F0000
7870070F0000
78F0071E0000
78F0071E0000
39E0071C0000
39E007BC0000
39C007BC0000
3BC007F80000
3B8007F80000
3F8007F00000
3F0007F00000
3F0007E00000
3E0007E00000
3E0007C00000
3C0007C00000
ENDCHAR
STARTCHAR 0175
ENCODING 373
SWIDTH 700 0
DWIDTH 35 0
BBX 35 38 3 0
BITMAP
0000F80000
0000FC0000
0001FC0000
0003DE0000
00078E0000
000F0F0000
001C078000
0038038000
0000000000
0000000000
0000000000
F001E003E0
F003E003C0
F003E007C0
F007E00780
F007E00F80
F00FF00F00
F00EF01F00
F01EF01E00
F01CF01E00
F03CF03C00
F03CF03C00
F038F07800
F078F07800
F07070F000
F0F070F000
70E071F000
71E071E000
71C071E000
73C073C000
738073C000
7780778000
7700778000
7700770000
7E007F0000
7E007E0000
7C007E0000
7C007C0000
ENDCHAR
STARTCHAR 0176
ENCODING 374
SWIDTH 500 0
DWIDTH 25 0
BBX 25 47 5 0
BITMAP
000F0000
001F8000
003F8000
007BC000
00F1E000
01E0E000
03C0F000
07007000
00000000
00000000
00000000
F0000F80
F0001F00
F0001E00
F8003E00
78007C00
78007800
7800F800
3C01F000
3C01E000
3C03E000
3C07C000
1C078000
1E0F8000
1E0F0000
1E1E0000
0E3E0000
0F3C0000
0F780000
0FF00000
07F00000
07E00000
07C00000
07C00000
07800000
07800000
07800000
07800000
0F800000
0F000000
0F000000
0F000000
0F000000
1F000000
1E000000
1E000000
1E000000
ENDCHAR
STARTCHAR 0177
ENCODING 375
SWIDTH 460 0
DWIDTH 23 0
BBX 30 50 -5 -12
BITMAP
00003C00
00007E00
0000FE00
0001EF00
0003C780
00078380
000F01C0
001C00C0
00000000
00000000
00000000
01F0003C
00F0007C
00F00078
00F000F8
00F000F0
00F001F0
00F001E0
00F003C0
007803C0
00780780
00780780
00780F00
00780F00
00781E00
00383E00
003C3C00
003C7C00
003C7800
003CF000
003CF000
003CE000
001DE000
001DC000
001FC000
001F8000
001F8000
001F0000
001F0000
001E0000
003C0000
003C0000
00780000
00F80000
00F00000
01F00000
8FE00000
FFC00000
FF800000
FE000000
ENDCHAR
STARTCHAR 0178
ENCODING 376
SWIDTH 500 0
DWIDTH 25 0
BBX 25 45 5 0
BITMAP
00E07000
01E0F000
01E0F000
01E0F000
00000000
00000000
00000000
00000000
00000000
F0000F80
F0001F00
F0001E00
F8003E00
78007C00
78007800
7800F800
3C01F000
3C01E000
3C03E000
3C07C000
1C078000
1E0F8000
1E0F0000
1E1E0000
0E3E0000
0F3C0000
0F780000
0FF00000
07F00000
07E00000
07C00000
07C00000
07800000
07800000
07800000
07800000
0F800000
0F000000
0F000000
0F000000
0F000000
1F000000
1E000000
1E000000
1E000000
ENDCHAR
STARTCHAR 0179
ENCODING 377
SWIDTH 520 0
DWIDTH 26 0
BBX 29 47 0 0
BITMAP
000007C0
000007C0
00000F80
00001F00
00003E00
00003800
00007000
0000E000
00000000
00000000
00000000
00FFFFF8
01FFFFF0
01FFFFF0
01FFFFF0
000001E0
000003E0
000007C0
00000F80
00001F00
00001E00
00003E00
00007C00
0000F800
0001F000
0001E000
0003E000
0007C000
000F8000
001F0000
001E0000
003E0000
007C0000
00F80000
01F00000
01E00000
03E00000
07C00000
0F800000
0F000000
1F000000
3E000000
7C000000
FFFFFC00
FFFFFC00
FFFFFC00
FFFFFC00
ENDCHAR
STARTCHAR 017A
ENCODING 378
SWIDTH 440 0
DWIDTH 22 0
BBX 23 38 -1 0
BITMAP
00003E
00003C
000078
0000F0
0001E0
0003C0
000380
000700
000000
000000
000000
01FFFE
03FFFE
03FFFE
00003C
000078
0000F8
0001F0
0003E0
0003C0
000780
000F80
001F00
003E00
003C00
007800
00F000
01F000
03E000
07C000
078000
0F0000
1F0000
3E0000
7C0000
7FFFC0
7FFFC0
FFFFC0
ENDCHAR
STARTCHAR 017B
ENCODING 379
SWIDTH 520 0
DWIDTH 26 0
BBX 29 46 0 0
BITMAP
00001000
00007C00
00007C00
00007C00
00007800
00001000
00000000
00000000
00000000
00000000
00FFFFF8
01FFFFF0
01FFFFF0
01FFFFF0
000001E0
000003E0
000007C0
00000F80
00001F00
00001E00
00003E00
00007C00
0000F800
0001F000
0001E000
0003E000
0007C000
000F8000
001F0000
001E0000
003E0000
007C0000
00F80000
01F00000
01E00000
03E00000
07C00000
0F800000
0F000000
1F000000
3E000000
7C000000
FFFFFC00
FFFFFC00
FFFFFC00
FFFFFC00
ENDCHAR
STARTCHAR 017C
ENCODING 380
SWIDTH 440 0
DWIDTH 22 0
BBX 23 37 -1 0
BITMAP
0001C0
0003E0
0003E0
0003E0
0003C0
000000
000000
000000
000000
000000
01FFFE
03FFFE
03FFFE
00003C
000078
0000F8
0001F0
0003E0
0003C0
000780
000F80
001F00
003E00
003C00
007800
00F000
01F000
03E000
07C000
078000
0F0000
1F0000
3E0000
7C0000
7FFFC0
7FFFC0
FFFFC0
ENDCHAR
STARTCHAR 017D
ENCODING 381
SWIDTH 520 0
DWIDTH 26 0
BBX 29 47 0 0
BITMAP
000700F0
000781C0
0003C780
0001CF00
0001FE00
0000FC00
0000FC00
00007800
00000000
00000000
00000000
00FFFFF8
01FFFFF0
01FFFFF0
01FFFFF0
000001E0
000003E0
000007C0
00000F80
00001F00
00001E00
00003E00
00007C00
0000F800
0001F000
0001E000
0003E000
0007C000
000F8000
001F0000
001E0000
003E0000
007C0000
00F80000
01F00000
01E00000
03E00000
07C00000
0F800000
0F000000
1F000000
3E000000
7C000000
FFFFFC00
FFFFFC00
FFFFFC00
FFFFFC00
ENDCHAR
STARTCHAR 017E
ENCODING 382
SWIDTH 440 0
DWIDTH 22 0
BBX 24 38 -1 0
BITMAP
003807
003C1E
001C3C
001E78
000FF0
0007E0
0007C0
0007C0
000000
000000
000000
01FFFE
03FFFE
03FFFE
00003C
000078
0000F8
0001F0
0003E0
0003C0
000780
000F80
001F00
003E00
003C00
007800
00F000
01F000
03E000
07C000
078000
0F0000
1F0000
3E0000
7C0000
7FFFC0
7FFFC0
FFFFC0
ENDCHAR
STARTCHAR 017F
ENCODING 383
SWIDTH 280 0
DWIDTH 14 0
BBX 27 50 -6 -12
BITMAP
00001FE0
00007FE0
0000FFE0
0001F840
0001E000
0003E000
0003C000
0003C000
0003C000
0007C000
00078000
00078000
00078000
00078000
000F8000
000F0000
000F0000
000F0000
000F0000
001E0000
001E0000
001E0000
001E0000
003E0000
003C0000
003C0000
003C0000
003C0000
007C0000
00780000
00780000
00780000
00780000
00F00000
00F00000
00F00000
00F00000
00F00000
01E00000
01E00000
01E00000
01E00000
03E00000
03C00000
03C00000
07800000
9F800000
FF000000
FE000000
FC000000
ENDCHAR
STARTCHAR 0192
ENCODING 402
SWIDTH 540 0
DWIDTH 27 0
BBX 27 48 0 -12
BITMAP
00001FE0
00007FE0
0000FFE0
0001F840
0001E000
0003E000
0003C000
0003C000
0003C000
0007C000
00078000
00078000
000FFE00
007FFC00
00FFFC00
000F0000
000F0000
000F0000
000F0000
001E0000
001E0000
001E0000
001E0000
001E0000
003C0000
003C0000
003C0000
003C0000
007C0000
00780000
00780000
00780000
00780000
00F00000
00F00000
00F00000
00F00000
00F00000
01E00000
01E00000
01E00000
01E00000
03C00000
07C00000
DF800000
FF800000
FF000000
FC000000
ENDCHAR
STARTCHAR 01A0
ENCODING 416
SWIDTH 700 0
DWIDTH 35 0
BBX 37 38 4 0
BITMAP
0000000078
0000000078
0007FE00F8
003FFF80F0
007FFFC1F0
01FF3FE1E0
03F803F3C0
07E001FF80
0FC000FF00
0F80007800
1F00007C00
1E00007C00
3E00003C00
3C00003C00
7C00003C00
7800003C00
7800003C00
F800003C00
F800003C00
F000003C00
F000003C00
F000007C00
F000007C00
F000007C00
F000007800
F00000F800
F00000F800
F00001F000
F80001F000
F80003E000
780003E000
7C0007C000
7E000F8000
3F003F8000
1FC0FF0000
0FFFFC0000
07FFF80000
01FFE00000
ENDCHAR
STARTCHAR 01A1
ENCODING 417
SWIDTH 560 0
DWIDTH 28 0
BBX 31 31 2 0
BITMAP
0000001E
0000003E
0000003E
0000003C
003FC07C
00FFF078
03FFF8F0
07F0FFE0
07C03FC0
0F803F00
1F001E00
1E001F00
3C000F00
3C000F00
7C000F00
78000F00
78001F00
78001F00
78001E00
F8001E00
F8001E00
F8003E00
F8003C00
78007C00
78007800
7C00F800
3C01F000
3F07E000
1FFFC000
0FFF8000
03FE0000
ENDCHAR
STARTCHAR 01AF
ENCODING 431
SWIDTH 720 0
DWIDTH 36 0
BBX 39 38 4 0
BITMAP
000000003E
000000003E
0780003C3C
0780003C7C
0780003C78
0780003CF8
0F00007DF0
0F00007FE0
0F00007F80
0F00007E00
1F00007800
1E0000F000
1E0000F000
1E0000F000
1E0000F000
3E0001F000
3C0001E000
3C0001E000
3C0001E000
3C0001E000
780003E000
780003C000
780003C000
780003C000
F80003C000
F00007C000
F000078000
F000078000
F0000F8000
F0000F0000
F0001F0000
F8001E0000
78003E0000
7C007C0000
3F83FC0000
3FFFF00000
0FFFE00000
07FF800000
ENDCHAR
STARTCHAR 01B0
ENCODING 432
SWIDTH 620 0
DWIDTH 31 0
BBX 33 31 3 0
BITMAP
0000000780
0000000780
0000000F80
0000000F00
0F000F1F00
0F000F1E00
1E000F3C00
1E000FF800
1E001FF000
1E001FC000
3E001E0000
3C001E0000
3C001E0000
3C003C0000
3C003C0000
7C003C0000
78003C0000
7800780000
7800780000
F800780000
F000F80000
F000F80000
F001F00000
F001F00000
F003F00000
F007F00000
F00EF00000
F83CE00000
7FF8E00000
7FF1E00000
3FE1E00000
ENDCHAR
STARTCHAR 01EA
ENCODING 490
SWIDTH 720 0
DWIDTH 36 0
BBX 30 47 4 -11
BITMAP
0007FE00
003FFF80
007FFFC0
01FF3FE0
03F803F0
07E001F8
0FC000F8
0F800078
1F00007C
1E00007C
3E00003C
3C00003C
7C00003C
7800003C
7800003C
F800003C
F800003C
F000003C
F000003C
F000007C
F000007C
F000007C
F0000078
F00000F8
F00000F8
F00001F0
F80001F0
F80003E0
780003E0
7C0007C0
7E000F80
3F003F80
1FC0FF00
0FFFFC00
07FFF800
01FFE000
001C0000
00380000
00700000
00E00000
01E00000
01C00000
01C00000
01C00000
01FC0000
00FC0000
007C0000
ENDCHAR
STARTCHAR 01EB
ENCODING 491
SWIDTH 560 0
DWIDTH 28 0
BBX 24 38 2 -11
BITMAP
003FC0
00FFF0
03FFF8
07F0FC
07C03C
0F803E
1F001E
1E001F
3C000F
3C000F
7C000F
78000F
78001F
78001F
78001E
F8001E
F8001E
F8003E
F8003C
78007C
780078
7C00F8
3C01F0
3F07E0
1FFFC0
0FFF80
03FE00
007000
01E000
03C000
078000
070000
0F0000
0F0000
0F0000
07E000
07E000
01E000
ENDCHAR
STARTCHAR 01EC
ENCODING 492
SWIDTH 720 0
DWIDTH 36 0
BBX 30 54 4 -11
BITMAP
0007FFE0
0007FFC0
0007FFC0
0007FFC0
00000000
00000000
00000000
0007FE00
003FFF80
007FFFC0
01FF3FE0
03F803F0
07E001F8
0FC000F8
0F800078
1F00007C
1E00007C
3E00003C
3C00003C
7C00003C
7800003C
7800003C
F800003C
F800003C
F000003C
F000003C
F000007C
F000007C
F000007C
F0000078
F00000F8
F00000F8
F00001F0
F80001F0
F80003E0
780003E0
7C0007C0
7E000F80
3F003F80
1FC0FF00
0FFFFC00
07FFF800
01FFE000
001C0000
00380000
00700000
00E00000
01E00000
01C00000
01C00000
01C00000
01FC0000
00FC0000
007C0000
ENDCHAR
STARTCHAR 01ED
ENCODING 493
SWIDTH 560 0
DWIDTH 28 0
BBX 24 45 2 -11
BITMAP
007FFC
00FFFC
00FFFC
00FFF8
000000
000000
000000
003FC0
00FFF0
03FFF8
07F0FC
07C03C
0F803E
1F001E
1E001F
3C000F
3C000F
7C000F
78000F
78001F
78001F
78001E
F8001E
F8001E
F8003E
F8003C
78007C
780078
7C00F8
3C01F0
3F07E0
1FFFC0
0FFF80
03FE00
007000
01E000
03C000
078000
070000
0F0000
0F0000
0F0000
07E000
07E000
01E000
ENDCHAR
STARTCHAR 01F0
ENCODING 496
SWIDTH 240 0
DWIDTH 12 0
BBX 25 50 -6 -12
BITMAP
00380780
003C0F00
001E3C00
000E7800
000FF000
0007E000
0007E000
0003C000
00000000
00000000
00000000
00078000
00078000
00078000
000F0000
000F0000
000F0000
000F0000
000F0000
001E0000
001E0000
001E0000
001E0000
001E0000
003C0000
003C0000
003C0000
003C0000
00780000
00780000
00780000
00780000
00780000
00F00000
00F00000
00F00000
00F00000
00F00000
01E00000
01E00000
01E00000
01E00000
03C00000
03C00000
03C00000
07C00000
9F800000
FF000000
FE000000
FC000000
ENDCHAR
STARTCHAR 01FA
ENCODING 506
SWIDTH 560 0
DWIDTH 28 0
BBX 31 48 -3 0
BITMAP
0000007E
000000FC
000001F0
000001E0
000003C0
00000700
00000000
00000000
00001F80
00007FC0
000071E0
0000E0E0
0000E0E0
0000E0E0
0000E0E0
000071C0
00007FC0
00007F80
0000F780
0000F780
0001E780
0001E780
0003C780
0003C380
000783C0
000F83C0
000F03C0
001F03C0
001E03C0
003E03C0
003C03C0
007C01C0
007801E0
00FFFFE0
00FFFFE0
01FFFFE0
03FFFFE0
03C001E0
07C001E0
078001E0
0F8000F0
0F0000F0
1F0000F0
1E0000F0
3E0000F0
3C0000F0
7C0000F0
F80000F8
ENDCHAR
STARTCHAR 01FB
ENCODING 507
SWIDTH 560 0
DWIDTH 28 0
BBX 25 48 2 0
BITMAP
00001F80
00001F00
00003E00
00007800
0000F000
0001E000
00038000
00000000
00010000
000FE000
001FF000
001C3800
00383800
00381800
00383800
00183800
001FF000
000FE000
00038000
00000000
00000000
003F8380
00FFC380
01FFE780
03F0F780
07C07700
0F803F00
1F001F00
1E001F00
3E001F00
3C001E00
3C001E00
7C001E00
78001E00
78003C00
78003C00
78003C00
F8007C00
F8007C00
F800F800
F800F800
7801F800
7803F800
7C077800
7E1E7000
3FFC7000
1FF87000
0FF0F000
ENDCHAR
STARTCHAR 01FC
ENCODING 508
SWIDTH 800 0
DWIDTH 40 0
BBX 46 47 -3 0
BITMAP
00000000F800
00000001F000
00000003E000
00000003C000
000000078000
0000000F0000
0000001E0000
000000180000
000000000000
000000000000
000000000000
000001FFFFFC
000003FFFFFC
000007FFFFFC
000007FFFFF8
00000F9E0000
00000F1E0000
00001E3E0000
00003E3C0000
00003C3C0000
0000783C0000
0000F83C0000
0000F07C0000
0001F0780000
0003E0780000
0003C0780000
0007C0780000
000780FFFFC0
000F00FFFF80
001F00FFFF80
001E00F00000
003E01F00000
007FFFE00000
007FFFE00000
00FFFFE00000
01FFFFE00000
01E003E00000
03E003C00000
03C003C00000
07C003C00000
0F8003C00000
0F0007C00000
1F0007800000
3E0007FFFE00
3C0007FFFE00
7C0007FFFE00
F8000FFFFE00
ENDCHAR
STARTCHAR 01FD
ENCODING 509
SWIDTH 820 0
DWIDTH 41 0
BBX 38 38 2 0
BITMAP
0000007C00
000000F800
000001F000
000001E000
000003C000
0000078000
00000F0000
00000C0000
0000000000
0000000000
0000000000
003F071FE0
00FF873FF0
03FFCEFFF8
07F1EFF0FC
07C06FC07C
0F807F803C
1F003F003C
1E003F003C
3E003E0078
3C003E00F8
3C003C01F0
7C003C1FF0
78003FFFC0
78007FFF00
78007FFC00
7800780000
F800F80000
F800F80000
F801F80000
F801F80000
7803FC0000
7807FC0000
780EFE0020
7C1EFF01E0
3FFCEFFFE0
3FF0CFFFE0
0FE1C3FF80
ENDCHAR
STARTCHAR 01FE
ENCODING 510
SWIDTH 720 0
DWIDTH 36 0
BBX 33 49 3 -2
BITMAP
000000F800
000001F000
000001E000
000003C000
0000078000
00000F0000
00001E0000
00003C0000
0000000000
0000000000
0000000600
0003FE0F80
001FFF8F00
003FFFFE00
00FF8FFC00
01F801FC00
03F000F800
07E000FC00
07C001FC00
0F8003FE00
0F0007DE00
1F000F9E00
1E001F1E00
3E001E1E00
3C003C1E00
3C00781E00
7C00F81E00
7C01F01E00
7801E01E00
7803C01E00
7807801E00
780F803E00
781F003E00
781E003C00
783C007C00
7878007C00
78F0007800
79F000F800
7FE001F000
3FC001F000
3F8003E000
3F0007C000
1F801FC000
3FE07F8000
3FFFFE0000
7BFFFC0000
F0FFF00000
F000000000
2000000000
ENDCHAR
STARTCHAR 01FF
ENCODING 511
SWIDTH 560 0
DWIDTH 28 0
BBX 25 40 2 -2
BITMAP
00001F00
00003E00
00003C00
00007800
0000F000
0001E000
0003C000
00038000
00000000
00000000
00000300
003FC780
00FFFF00
03FFFE00
07F0FC00
07C03E00
0F007E00
1F00FE00
1E01FE00
3C03CF00
3C03CF00
78078F00
780F0F00
781E0F00
783C0E00
78781E00
70781E00
F0F01E00
F1E01C00
73C03C00
7F803C00
7F807800
7F00F000
3E01F000
3F07E000
7FFFC000
FFFF8000
F3FE0000
E0000000
40000000
ENDCHAR
STARTCHAR 0218
ENCODING 536
SWIDTH 500 0
DWIDTH 25 0
BBX 25 47 1 -11
BITMAP
001FF800
007FFF00
00FFFF80
01FF7F00
03F00700
07C00000
07C00000
07800000
0F800000
0F800000
0F800000
0F800000
07800000
07C00000
07E00000
03F80000
01FC0000
00FF0000
003F8000
001FE000
0007F000
0003F000
0000F800
0000F800
00007800
00007800
00007800
00007800
00007800
0000F800
0001F000
8003F000
F80FE000
FFFFC000
FFFF8000
7FFC0000
00000000
00000000
00000000
01E00000
01E00000
03C00000
03800000
07800000
07000000
0E000000
1C000000
ENDCHAR
STARTCHAR 0219
ENCODING 537
SWIDTH 420 0
DWIDTH 21 0
BBX 20 38 0 -11
BITMAP
00FFC0
03FFF0
07FFF0
0FC1F0
0F8020
0F0000
1F0000
1F0000
0F0000
0F8000
0FC000
07E000
03F800
01FE00
007F00
001F80
000F80
0007C0
0003C0
0003C0
0003C0
0007C0
800780
F01F80
FFFF00
FFFE00
3FF800
000000
000000
000000
03C000
03C000
078000
070000
0F0000
0E0000
1C0000
180000
ENDCHAR
STARTCHAR 021A
ENCODING 538
SWIDTH 480 0
DWIDTH 24 0
BBX 25 47 4 -11
BITMAP
7FFFFF80
7FFFFF80
7FFFFF80
7FFFFF80
003E0000
003C0000
003C0000
003C0000
003C0000
007C0000
00780000
00780000
00780000
00F80000
00F00000
00F00000
00F00000
00F00000
01F00000
01E00000
01E00000
01E00000
01E00000
03E00000
03C00000
03C00000
03C00000
07C00000
07800000
07800000
07800000
07800000
0F800000
0F000000
0F000000
0F000000
00000000
00000000
00000000
0F000000
1E000000
1E000000
3C000000
3C000000
78000000
70000000
E0000000
ENDCHAR
STARTCHAR 021B
ENCODING 539
SWIDTH 320 0
DWIDTH 16 0
BBX 16 44 2 -11
BITMAP
00C0
01C0
01C0
03C0
0380
0780
1FFF
7FFF
FFFF
0F00
0F00
0F00
0F00
0F00
1E00
1E00
1E00
1E00
3E00
3C00
3C00
3C00
3C00
7C00
7800
7800
7800
7800
7800
7C00
7FE0
3FE0
1FE0
0000
0000
0000
1E00
1E00
3C00
3C00
7800
7000
E000
E000
ENDCHAR
STARTCHAR 0237
ENCODING 567
SWIDTH 240 0
DWIDTH 12 0
BBX 17 39 -6 -12
BITMAP
000780
000780
000780
000F00
000F00
000F00
000F00
000F00
001E00
001E00
001E00
001E00
001E00
003C00
003C00
003C00
003C00
007800
007800
007800
007800
007800
00F000
00F000
00F000
00F000
00F000
01E000
01E000
01E000
01E000
03C000
03C000
03C000
07C000
9F8000
FF0000
FE0000
FC0000
ENDCHAR
STARTCHAR 0259
ENCODING 601
SWIDTH 480 0
DWIDTH 24 0
BBX 21 27 1 0
BITMAP
01FF00
0FFFC0
0FFFE0
0F07F0
0801F0
0000F8
0000F8
000078
000078
000078
000078
000078
003FF8
03FFF8
0FFFF8
1FF0F8
3F00F0
7C00F0
7801E0
7801E0
F003C0
F007C0
F80F80
7C1F00
7FFE00
3FFC00
1FF000
ENDCHAR
STARTCHAR 02BC
ENCODING 700
SWIDTH 160 0
DWIDTH 8 0
BBX 9 13 3 23
BITMAP
0780
0780
0F80
0F00
1F00
1E00
1E00
3C00
3C00
7800
7000
F000
E000
ENDCHAR
STARTCHAR 02C6
ENCODING 710
SWIDTH 380 0
DWIDTH 19 0
BBX 15 8 6 30
BITMAP
03E0
07E0
0FF0
1F78
3E78
783C
F01C
E00E
ENDCHAR
STARTCHAR 02C7
ENCODING 711
SWIDTH 380 0
DWIDTH 19 0
BBX 15 8 7 30
BITMAP
F00E
703C
3878
3CF0
1FE0
1FC0
0F80
0F00
ENDCHAR
STARTCHAR 02C9
ENCODING 713
SWIDTH 340 0
DWIDTH 17 0
BBX 14 4 6 30
BITMAP
FFFC
FFF8
FFF8
FFF8
ENDCHAR
STARTCHAR 02D8
ENCODING 728
SWIDTH 360 0
DWIDTH 18 0
BBX 14 7 7 30
BITMAP
C01C
E01C
E038
FFF8
7FF0
3FE0
0F00
ENDCHAR
STARTCHAR 02D9
ENCODING 729
SWIDTH 160 0
DWIDTH 8 0
BBX 5 6 6 31
BITMAP
30
78
F8
F8
78
20
ENDCHAR
STARTCHAR 02DA
ENCODING 730
SWIDTH 300 0
DWIDTH 15 0
BBX 11 11 7 30
BITMAP
0E00
3F80
7FC0
E1C0
C0E0
C0E0
C0E0
E1C0
7FC0
3F80
0C00
ENDCHAR
STARTCHAR 02DB
ENCODING 731
SWIDTH 240 0
DWIDTH 12 0
BBX 7 11 -2 -11
BITMAP
0E
1C
38
70
F0
E0
E0
E0
FE
7E
3E
ENDCHAR
STARTCHAR 02DC
ENCODING 732
SWIDTH 400 0
DWIDTH 20 0
BBX 18 7 6 30
BITMAP
0401C0
3F8180
7FC380
7FFF00
E1FF00
E07E00
C01800
ENDCHAR
STARTCHAR 02DD
ENCODING 733
SWIDTH 400 0
DWIDTH 20 0
BBX 18 8 6 30
BITMAP
0787C0
0F8780
0F0F00
1E1E00
3C3C00
783800
E07000
C0E000
ENDCHAR
STARTCHAR 02F3
ENCODING 755
SWIDTH 320 0
DWIDTH 16 0
BBX 11 10 -2 -13
BITMAP
1F00
3FC0
7BC0
60E0
E0E0
E0E0
E0E0
71E0
7FC0
3F80
ENDCHAR
STARTCHAR 0300
ENCODING 768
SWIDTH 0 0
DWIDTH 0 0
BBX 7 8 -18 30
BITMAP
F0
F0
78
78
3C
1C
0E
06
ENDCHAR
STARTCHAR 0301
ENCODING 769
SWIDTH 0 0
DWIDTH 0 0
BBX 10 8 -11 30
BITMAP
07C0
0F80
1F00
1E00
3C00
7800
F000
C000
ENDCHAR
STARTCHAR 0302
ENCODING 770
SWIDTH 0 0
DWIDTH 0 0
BBX 15 8 -4 30
BITMAP
03E0
03F0
07F0
0F78
1E38
3C3C
701E
E00E
ENDCHAR
STARTCHAR 0303
ENCODING 771
SWIDTH 0 0
DWIDTH 0 0
BBX 18 7 -21 30
BITMAP
0600C0
1F81C0
3FE1C0
7FFF80
70FF80
607F00
E00800
ENDCHAR
STARTCHAR 0304
ENCODING 772
SWIDTH 0 0
DWIDTH 0 0
BBX 14 4 -3 30
BITMAP
FFFC
FFF8
FFF8
FFF8
ENDCHAR
STARTCHAR 0306
ENCODING 774
SWIDTH 0 0
DWIDTH 0 0
BBX 14 7 -2 30
BITMAP
C01C
C018
E038
FFF0
7FF0
3FC0
0E00
ENDCHAR
STARTCHAR 0307
ENCODING 775
SWIDTH 0 0
DWIDTH 0 0
BBX 5 5 2 31
BITMAP
30
78
F8
F8
F0
ENDCHAR
STARTCHAR 0308
ENCODING 776
SWIDTH 0 0
DWIDTH 0 0
BBX 13 4 -2 32
BITMAP
F078
F078
F078
F078
ENDCHAR
STARTCHAR 0309
ENCODING 777
SWIDTH 0 0
DWIDTH 0 0
BBX 8 12 -14 29
BITMAP
FC
FE
FF
07
07
07
1F
FE
F0
E0
E0
E0
ENDCHAR
STARTCHAR 030A
ENCODING 778
SWIDTH 0 0
DWIDTH 0 0
BBX 11 11 -1 30
BITMAP
0F00
3F80
7FC0
70E0
E060
E060
6060
70E0
7FC0
3F80
0600
ENDCHAR
STARTCHAR 030B
ENCODING 779
SWIDTH 0 0
DWIDTH 0 0
BBX 18 8 -3 30
BITMAP
0787C0
0F8780
0F0F00
1E1E00
3C3C00
783800
F07000
C0E000
ENDCHAR
STARTCHAR 030C
ENCODING 780
SWIDTH 0 0
DWIDTH 0 0
BBX 15 8 -2 30
BITMAP
E01E
703C
78F8
3DE0
3FE0
1FC0
1F80
0F00
ENDCHAR
STARTCHAR 030F
ENCODING 783
SWIDTH 0 0
DWIDTH 0 0
BBX 16 8 -24 30
BITMAP
F878
7878
783C
3C3C
1C1E
1E0E
0F07
0703
ENDCHAR
STARTCHAR 0312
ENCODING 786
SWIDTH 0 0
DWIDTH 0 0
BBX 9 13 -1 23
BITMAP
0380
0780
0700
0F00
1E00
1E00
3C00
3C00
7C00
7800
F800
F000
F000
ENDCHAR
STARTCHAR 0323
ENCODING 803
SWIDTH 0 0
DWIDTH 0 0
BBX 5 6 -21 -9
BITMAP
30
78
F8
F8
F0
20
ENDCHAR
STARTCHAR 0326
ENCODING 806
SWIDTH 0 0
DWIDTH 0 0
BBX 7 8 3 -11
BITMAP
1E
1E
3C
38
78
70
E0
C0
ENDCHAR
STARTCHAR 0327
ENCODING 807
SWIDTH 0 0
DWIDTH 0 0
BBX 9 12 -8 -12
BITMAP
0E00
0E00
1C00
1E00
1F00
0780
0380
0380
0780
FF00
FE00
F800
ENDCHAR
STARTCHAR 0328
ENCODING 808
SWIDTH 0 0
DWIDTH 0 0
BBX 7 11 -7 -11
BITMAP
0E
1C
38
70
F0
E0
E0
E0
FE
7E
3E
ENDCHAR
STARTCHAR 0384
ENCODING 900
SWIDTH 560 0
DWIDTH 28 0
BBX 9 10 15 30
BITMAP
0F80
0F00
1F00
1E00
3C00
3C00
7800
7000
F000
E000
ENDCHAR
STARTCHAR 0385
ENCODING 901
SWIDTH 440 0
DWIDTH 22 0
BBX 15 10 8 32
BITMAP
007C
0078
00F0
00F0
01E0
01C0
F38E
F31E
F01E
E01E
ENDCHAR
STARTCHAR 0386
ENCODING 902
SWIDTH 560 0
DWIDTH 28 0
BBX 29 36 -3 0
BITMAP
003C0F00
007C1F00
00781F00
00F83F00
00F07F80
00F07F80
01E0F780
01C0F780
0381E780
0381E780
0003C380
0003C380
000783C0
000783C0
000F03C0
001F03C0
001E03C0
003E03C0
003C03C0
007C01E0
007801E0
00FFFFE0
00FFFFE0
01FFFFE0
03FFFFE0
03C001E0
07C001E0
078001F0
0F8000F0
0F0000F0
1F0000F0
1E0000F0
3E0000F0
3C0000F0
7C0000F0
F80000F8
ENDCHAR
STARTCHAR 0387
ENCODING 903
SWIDTH 240 0
DWIDTH 12 0
BBX 6 6 5 21
BITMAP
7C
7C
FC
FC
F8
70
ENDCHAR
STARTCHAR 0388
ENCODING 904
SWIDTH 600 0
DWIDTH 30 0
BBX 30 36 2 0
BITMAP
078FFFFC
0F8FFFFC
0F0FFFFC
1F1FFFFC
1E1E0000
3C1E0000
3C1E0000
781E0000
703E0000
F03C0000
003C0000
003C0000
003C0000
00780000
00780000
00780000
007FFFC0
00FFFFC0
00FFFFC0
00F00000
00F00000
00F00000
01F00000
01E00000
01E00000
01E00000
01E00000
03E00000
03C00000
03C00000
03C00000
03C00000
07FFFE00
07FFFE00
07FFFE00
07FFFE00
ENDCHAR
STARTCHAR 0389
ENCODING 905
SWIDTH 740 0
DWIDTH 37 0
BBX 36 36 2 0
BITMAP
0F9E0000F0
0F1E0000F0
1F1E0001E0
1E1E0001E0
3E3E0001E0
3C3C0001E0
383C0003E0
783C0003C0
703C0003C0
E07C0003C0
00780003C0
0078000780
0078000780
0078000780
00F0000780
00F0000780
00FFFFFF00
00FFFFFF00
00FFFFFF00
01E0000F00
01E0001F00
01E0001E00
01E0001E00
03E0001E00
03C0001E00
03C0003E00
03C0003C00
03C0003C00
07C0003C00
0780003C00
0780007800
0780007800
0780007800
0F00007800
0F00007800
0F0000F000
ENDCHAR
STARTCHAR 038A
ENCODING 906
SWIDTH 340 0
DWIDTH 17 0
BBX 16 36 2 0
BITMAP
0F8F
0F1F
1F1E
1E1E
3E1E
3C1E
383C
783C
703C
E03C
003C
0078
0078
0078
0078
00F8
00F0
00F0
00F0
00F0
01E0
01E0
01E0
01E0
01E0
03C0
03C0
03C0
03C0
07C0
0780
0780
0780
0780
0F80
0F00
ENDCHAR
STARTCHAR 038C
ENCODING 908
SWIDTH 760 0
DWIDTH 38 0
BBX 35 36 2 0
BITMAP
0F807FE000
0F01FFF800
1F07FFFE00
1E0FF9FF00
3E1F803F00
3C3F000F80
387C0007C0
78F80007C0
70F80003C0
E1F00003E0
01E00003E0
03E00003E0
03C00001E0
03C00001E0
07C00001E0
07800001E0
07800003E0
07800003E0
0F800003E0
0F800003E0
0F800003C0
0F800003C0
0F800007C0
0F800007C0
0F80000780
0F80000F80
0780000F00
0780001F00
07C0003E00
03C0007E00
03E000FC00
01F801F800
01FE0FF000
00FFFFE000
003FFF8000
000FFE0000
ENDCHAR
STARTCHAR 038E
ENCODING 910
SWIDTH 640 0
DWIDTH 32 0
BBX 36 36 1 0
BITMAP
0F9E0001F0
0F9E0003E0
0F1E0003C0
1F1E0007C0
1E0F000F80
3C0F000F00
3C0F001F00
780F003E00
7007803C00
E007807C00
000780F800
000780F000
0003C1E000
0003C3E000
0003C3C000
0001C78000
0001EF8000
0001EF0000
0001FE0000
0000FE0000
0000FC0000
0000F80000
0000F80000
0000F00000
0000F00000
0000F00000
0000F00000
0001E00000
0001E00000
0001E00000
0001E00000
0003E00000
0003C00000
0003C00000
0003C00000
0003C00000
ENDCHAR
STARTCHAR 038F
ENCODING 911
SWIDTH 780 0
DWIDTH 39 0
BBX 36 36 2 0
BITMAP
07803FF000
0F81FFFC00
0F07FFFF00
1F0FF9FF80
1E1F801F80
3C3F0007C0
3C7C0003E0
78F80003E0
70F80001E0
F1F00001F0
01F00001F0
03E00000F0
03E00000F0
03C00000F0
03C00000F0
07C00000F0
07C00001F0
07C00001F0
07C00001E0
07C00001E0
07C00003E0
07C00003E0
07C00003C0
03C00007C0
03C0000F80
03C0000F00
03E0001F00
01E0003E00
01F0007C00
00F000F800
007801F000
007C07C000
7FFE0FFFC0
7FFE1FFFC0
7FFE1FFFC0
7FFC1FFFC0
ENDCHAR
STARTCHAR 0390
ENCODING 912
SWIDTH 300 0
DWIDTH 15 0
BBX 16 42 3 0
BITMAP
007C
0078
00F8
00F0
01E0
01C0
F38E
F31F
F01E
E01E
0000
0000
0000
0000
0000
0F00
1F00
1E00
1E00
1E00
1E00
3E00
3C00
3C00
3C00
3C00
7800
7800
7800
7800
7800
F000
F000
F000
F000
F000
F000
F000
F000
FFC0
7FC0
3FC0
ENDCHAR
STARTCHAR 0391
ENCODING 913
SWIDTH 560 0
DWIDTH 28 0
BBX 29 36 -3 0
BITMAP
00000F00
00001F00
00001F00
00003F00
00007F80
00007F80
0000F780
0000F780
0001E780
0001E780
0003C380
0003C380
000783C0
000783C0
000F03C0
001F03C0
001E03C0
003E03C0
003C03C0
007C01E0
007801E0
00FFFFE0
00FFFFE0
01FFFFE0
03FFFFE0
03C001E0
07C001E0
078001F0
0F8000F0
0F0000F0
1F0000F0
1E0000F0
3E0000F0
3C0000F0
7C0000F0
F80000F8
ENDCHAR
STARTCHAR 0392
ENCODING 914
SWIDTH 600 0
DWIDTH 30 0
BBX 27 36 2 0
BITMAP
00FFF000
01FFFE00
01FFFF80
01FFFFC0
01E00FE0
01E003E0
03C001E0
03C001E0
03C001E0
03C001E0
07C001E0
078001E0
078003C0
078007C0
07800F80
0F80FF00
0FFFFC00
0FFFE000
0FFFF800
0F007E00
1F001F00
1E000F00
1E000F80
1E000780
1E000780
3C000780
3C000780
3C000F80
3C000F80
7C001F00
78003F00
78007E00
7FFFFC00
7FFFF800
FFFFE000
FFFF0000
ENDCHAR
STARTCHAR 0393
ENCODING 915
SWIDTH 460 0
DWIDTH 23 0
BBX 26 36 2 0
BITMAP
00FFFFC0
01FFFFC0
01FFFF80
01FFFF80
01E00000
01E00000
03C00000
03C00000
03C00000
03C00000
07C00000
07800000
07800000
07800000
07800000
0F800000
0F000000
0F000000
0F000000
0F000000
1F000000
1E000000
1E000000
1E000000
1E000000
3C000000
3C000000
3C000000
3C000000
7C000000
78000000
78000000
78000000
78000000
F8000000
F0000000
ENDCHAR
STARTCHAR 0394
ENCODING 916
SWIDTH 560 0
DWIDTH 28 0
BBX 26 36 -1 0
BITMAP
00003C00
00007C00
00007C00
0000FC00
0000FC00
0001FE00
0003DE00
0003DE00
00079E00
00079E00
000F9E00
000F1E00
001E0E00
001E0F00
003C0F00
003C0F00
00780F00
00780F00
00F00F00
00F00F00
01E00F00
03E00700
03C00780
07C00780
07800780
0F800780
0F000780
1F000780
1E000780
3C000780
3C0003C0
780003C0
7FFFFFC0
FFFFFFC0
FFFFFFC0
FFFFFF80
ENDCHAR
STARTCHAR 0395
ENCODING 917
SWIDTH 500 0
DWIDTH 25 0
BBX 26 36 2 0
BITMAP
00FFFFC0
01FFFF80
01FFFF80
01FFFF80
01E00000
01E00000
03C00000
03C00000
03C00000
03C00000
07C00000
07800000
07800000
07800000
07800000
0F800000
0FFFF800
0FFFF800
0FFFF800
0F000000
1F000000
1E000000
1E000000
1E000000
1E000000
3C000000
3C000000
3C000000
3C000000
7C000000
78000000
78000000
7FFFE000
7FFFE000
FFFFE000
FFFFC000
ENDCHAR
STARTCHAR 0396
ENCODING 918
SWIDTH 520 0
DWIDTH 26 0
BBX 29 36 0 0
BITMAP
00FFFFF8
01FFFFF0
01FFFFF0
01FFFFF0
000001E0
000003E0
000007C0
00000F80
00001F00
00001E00
00003E00
00007C00
0000F800
0001F000
0001E000
0003E000
0007C000
000F8000
001F0000
001E0000
003E0000
007C0000
00F80000
01F00000
01E00000
03E00000
07C00000
0F800000
0F000000
1F000000
3E000000
7C000000
FFFFFC00
FFFFFC00
FFFFFC00
FFFFFC00
ENDCHAR
STARTCHAR 0397
ENCODING 919
SWIDTH 680 0
DWIDTH 34 0
BBX 32 36 2 0
BITMAP
00F0000F
01F0000F
01E0000F
01E0001E
01E0001E
01E0001E
03E0001E
03C0001E
03C0003C
03C0003C
03C0003C
0780003C
0780007C
07800078
07800078
0F800078
0FFFFFF8
0FFFFFF8
0FFFFFF0
0F0000F0
1F0000F0
1E0000F0
1E0001E0
1E0001E0
1E0001E0
3C0001E0
3C0001E0
3C0003C0
3C0003C0
3C0003C0
780003C0
780007C0
78000780
78000780
F8000780
F0000780
ENDCHAR
STARTCHAR 0398
ENCODING 920
SWIDTH 720 0
DWIDTH 36 0
BBX 30 36 4 0
BITMAP
0007FE00
003FFF80
007FFFC0
01FF3FE0
03F803F0
07E001F8
0FC000F8
0F800078
1F00007C
1E00003C
3E00003C
3C00003C
7C00003C
7800003C
7800003C
F800003C
F87FFC3C
F0FFFC3C
F0FFF83C
F0FFF83C
F000007C
F000007C
F0000078
F00000F8
F00000F8
F00000F0
F80001F0
F80003E0
780003E0
7C0007C0
7E000F80
3F003F80
1FC0FF00
0FFFFC00
07FFF800
01FFE000
ENDCHAR
STARTCHAR 0399
ENCODING 921
SWIDTH 260 0
DWIDTH 13 0
BBX 12 36 2 0
BITMAP
00F0
01F0
01E0
01E0
01E0
01E0
03C0
03C0
03C0
03C0
03C0
0780
0780
0780
0780
0F80
0F00
0F00
0F00
0F00
1E00
1E00
1E00
1E00
1E00
3C00
3C00
3C00
3C00
7C00
7800
7800
7800
7800
F000
F000
ENDCHAR
STARTCHAR 039A
ENCODING 922
SWIDTH 560 0
DWIDTH 28 0
BBX 30 36 2 0
BITMAP
00F0007C
01F000F8
01E001F0
01E003E0
01E007C0
01E00F80
03C01F00
03C03E00
03C07C00
03C0F800
07C1F000
0783E000
0787C000
078F8000
079F0000
0FBE0000
0F7E0000
0FFE0000
0FFF0000
0FCF0000
1F8F8000
1F078000
1E07C000
1E03C000
1E03C000
3C01E000
3C01E000
3C01F000
3C00F000
7C00F800
78007800
78007800
78007C00
78003C00
F8003E00
F0001E00
ENDCHAR
STARTCHAR 039B
ENCODING 923
SWIDTH 560 0
DWIDTH 28 0
BBX 29 36 -3 0
BITMAP
00000F00
00001F00
00001F00
00003F80
00007F80
00007F80
0000F780
0000F780
0001E780
0001E780
0003C380
0003C3C0
000783C0
000783C0
000F03C0
001F03C0
001E03C0
003E03C0
003C03C0
007C01E0
007801E0
00F801E0
00F001E0
01E001E0
03E001E0
03C001E0
07C001E0
078000F0
0F8000F0
0F0000F0
1F0000F0
1E0000F0
3E0000F0
3C0000F0
7C0000F0
F8000078
ENDCHAR
STARTCHAR 039C
ENCODING 924
SWIDTH 820 0
DWIDTH 41 0
BBX 40 36 2 0
BITMAP
00F800003F
01FC00007F
01FC0000FF
01FC0000FE
01FC0001FE
03DC0001FE
03DC0003DE
03DC0003DC
03DC0007BC
039E00073C
079E000F3C
079E001E3C
079E001E78
078E003C78
070E003C78
0F0E007878
0F0E007878
0F0F00F0F0
0F0F00E0F0
0E0F01E0F0
1E0F01C0F0
1E0703C1F0
1E070781E0
1E070781E0
3C070F01E0
3C078F01E0
3C079E03E0
3C079C03C0
3C07BC03C0
7803B803C0
7803F803C0
7803F007C0
7803F00780
7003E00780
F003E00780
F003C00F80
ENDCHAR
STARTCHAR 039D
ENCODING 925
SWIDTH 700 0
DWIDTH 35 0
BBX 33 36 2 0
BITMAP
00F0000780
01F0000780
01F8000780
01F8000780
01FC000700
03FC000F00
03FC000F00
03DE000F00
03DE000F00
039E001E00
078F001E00
078F001E00
0787801E00
0787801E00
0707803C00
0F03C03C00
0F03C03C00
0F03C03C00
0F01E03C00
0E01E07800
1E00F07800
1E00F07800
1E00F07800
1E0078F000
3C0078F000
3C0078F000
3C003CF000
3C003CF000
3C001EE000
78001FE000
78001FE000
78000FE000
78000FE000
700007C000
F00007C000
F00007C000
ENDCHAR
STARTCHAR 039E
ENCODING 926
SWIDTH 500 0
DWIDTH 25 0
BBX 29 36 -1 0
BITMAP
007FFFF8
007FFFF0
00FFFFF0
00FFFFF0
00000000
00000000
00000000
00000000
00000000
00000000
00000000
00000000
00000000
00000000
00000000
00000000
00FFFE00
01FFFE00
01FFFE00
00000000
00000000
00000000
00000000
00000000
00000000
00000000
00000000
00000000
00000000
00000000
00000000
00000000
7FFFFE00
7FFFFE00
7FFFFC00
FFFFFC00
ENDCHAR
STARTCHAR 039F
ENCODING 927
SWIDTH 720 0
DWIDTH 36 0
BBX 30 36 4 0
BITMAP
0007FE00
003FFF80
007FFFC0
01FF3FE0
03F803F0
07E001F8
0FC000F8
0F800078
1F00007C
1E00007C
3E00003C
3C00003C
7C00003C
7800003C
7800003C
F800003C
F800003C
F000003C
F000003C
F000007C
F000007C
F000007C
F0000078
F00000F8
F00000F8
F00001F0
F80001F0
F80003E0
780003E0
7C0007C0
7E000F80
3F003F80
1FC0FF00
0FFFFC00
07FFF800
01FFE000
ENDCHAR
STARTCHAR 03A0
ENCODING 928
SWIDTH 660 0
DWIDTH 33 0
BBX 32 36 2 0
BITMAP
00FFFFFF
01FFFFFF
01FFFFFF
01FFFFFE
01E0001E
01E0001E
03C0001E
03C0003E
03C0003C
03C0003C
07C0003C
0780003C
0780007C
07800078
07800078
0F800078
0F0000F8
0F0000F0
0F0000F0
0F0000F0
1F0000F0
1E0001F0
1E0001E0
1E0001E0
1E0001E0
3C0001E0
3C0003E0
3C0003C0
3C0003C0
7C0003C0
780003C0
78000780
78000780
78000780
F8000780
F0000F80
ENDCHAR
STARTCHAR 03A1
ENCODING 929
SWIDTH 560 0
DWIDTH 28 0
BBX 26 36 2 0
BITMAP
00FFC000
01FFFC00
01FFFE00
01FFFF00
01E01F80
01E007C0
03C007C0
03C003C0
03C003C0
03C003C0
07C003C0
078003C0
078003C0
078007C0
07800780
0F800F80
0F001F00
0F007F00
0FFFFE00
0FFFF800
1FFFE000
1FFF0000
1E000000
1E000000
1E000000
3C000000
3C000000
3C000000
3C000000
7C000000
78000000
78000000
78000000
78000000
F8000000
F0000000
ENDCHAR
STARTCHAR 03A3
ENCODING 931
SWIDTH 520 0
DWIDTH 26 0
BBX 29 36 -1 0
BITMAP
00FFFFF8
00FFFFF8
00FFFFF8
01FFFFF0
00F00000
00F80000
00780000
007C0000
003C0000
003E0000
001E0000
001F0000
000F0000
000F8000
00078000
0007C000
0003C000
0003E000
0003C000
00078000
000F0000
001F0000
003E0000
007C0000
00F80000
01F00000
03E00000
07C00000
07800000
0F000000
1E000000
3E000000
7FFFFF00
7FFFFF00
7FFFFE00
FFFFFE00
ENDCHAR
STARTCHAR 03A4
ENCODING 932
SWIDTH 480 0
DWIDTH 24 0
BBX 24 36 5 0
BITMAP
FFFFFF
FFFFFF
FFFFFF
FFFFFF
007C00
007800
007800
007800
007800
00F800
00F000
00F000
00F000
01F000
01E000
01E000
01E000
01E000
03E000
03C000
03C000
03C000
03C000
07C000
078000
078000
078000
0F8000
0F0000
0F0000
0F0000
0F0000
1F0000
1E0000
1E0000
1E0000
ENDCHAR
STARTCHAR 03A5
ENCODING 933
SWIDTH 500 0
DWIDTH 25 0
BBX 25 36 5 0
BITMAP
F0000F80
F0001F00
F0001E00
F8003E00
78007C00
78007800
7800F800
3C01F000
3C01E000
3C03E000
3C07C000
1C078000
1E0F8000
1E0F0000
1E1E0000
0E3E0000
0F3C0000
0F780000
0FF00000
07F00000
07E00000
07C00000
07C00000
07800000
07800000
07800000
07800000
0F800000
0F000000
0F000000
0F000000
0F000000
1F000000
1E000000
1E000000
1E000000
ENDCHAR
STARTCHAR 03A6
ENCODING 934
SWIDTH 740 0
DWIDTH 37 0
BBX 32 36 4 0
BITMAP
00007800
00007800
00007800
00007800
0007FE00
007FFFC0
01FFFFF0
07FFFFF8
0FE0F1FC
1F81F07E
3E01E03E
3E01E01E
7C01E01F
7803E01F
F803C00F
F003C00F
F003C00F
F003C01F
F007C01F
F007801E
F007801E
F007803E
F007803C
F80F807C
F80F00F8
7C0F01F0
7F0F07E0
3FFFFFC0
1FFFFF80
07FFFE00
00FFF000
001E0000
003E0000
003C0000
003C0000
003C0000
ENDCHAR
STARTCHAR 03A7
ENCODING 935
SWIDTH 520 0
DWIDTH 26 0
BBX 32 36 -2 0
BITMAP
00F0000F
00F0001E
00F8003C
0078007C
007800F8
003C00F0
003C01E0
003C03C0
001E07C0
001E0F80
001E0F00
000F1E00
000F3C00
0007FC00
0007F800
0007F000
0003E000
0003E000
0007E000
000FE000
001FF000
001EF000
003C7800
00787800
00F87800
01F03C00
01E03C00
03C03C00
07C01E00
0F801E00
0F001E00
1E000F00
3E000F00
7C000F80
78000780
F0000780
ENDCHAR
STARTCHAR 03A8
ENCODING 936
SWIDTH 740 0
DWIDTH 37 0
BBX 34 36 5 0
BITMAP
1E00F003C0
3E00F003C0
3C00F007C0
3C00F007C0
3C01F00780
7C01E00780
7C01E00780
7801E00F80
7801E00F00
7803E00F00
F803C00F00
F803C00F00
F003C01F00
F007C01E00
F007801E00
F007803E00
F007803C00
F007807C00
F80F80F800
780F01F800
7E0F03F000
3FEF7FE000
1FFFFFC000
0FFFFF0000
03FFF80000
001E000000
001E000000
001E000000
003E000000
003C000000
003C000000
003C000000
007C000000
0078000000
0078000000
0078000000
ENDCHAR
STARTCHAR 03A9
ENCODING 937
SWIDTH 720 0
DWIDTH 36 0
BBX 35 36 0 0
BITMAP
0000FFE000
0003FFF800
000FFFFC00
001FF3FE00
003F003F00
007E000F80
00F8000F80
01F00007C0
01E00003C0
03E00003C0
03C00003E0
07C00003E0
07800003E0
07800003E0
0F800003E0
0F800003E0
0F800003E0
0F000003C0
0F000003C0
0F000003C0
0F000007C0
0F00000780
0F00000F80
0F80000F00
0780001F00
0780001E00
0780003C00
03C0007C00
03C000F800
01E001F000
01F003E000
00F00F8000
FFF81FFF80
FFFC3FFF80
FFF83FFF80
FFF83FFF00
ENDCHAR
STARTCHAR 03AA
ENCODING 938
SWIDTH 260 0
DWIDTH 13 0
BBX 18 45 2 0
BITMAP
0783C0
0783C0
0783C0
070380
000000
000000
000000
000000
000000
00F000
01F000
01E000
01E000
01E000
01E000
03C000
03C000
03C000
03C000
03C000
078000
078000
078000
078000
0F8000
0F0000
0F0000
0F0000
0F0000
1E0000
1E0000
1E0000
1E0000
1E0000
3C0000
3C0000
3C0000
3C0000
7C0000
780000
780000
780000
780000
F00000
F00000
ENDCHAR
STARTCHAR 03AB
ENCODING 939
SWIDTH 500 0
DWIDTH 25 0
BBX 25 45 5 0
BITMAP
00E07000
01E0F000
01E0F000
01E0F000
00000000
00000000
00000000
00000000
00000000
F0000F80
F0001F00
F0001E00
F8003E00
78007C00
78007800
7800F800
3C01F000
3C01E000
3C03E000
3C07C000
1C078000
1E0F8000
1E0F0000
1E1E0000
0E3E0000
0F3C0000
0F780000
0FF00000
07F00000
07E00000
07C00000
07C00000
07800000
07800000
07800000
07800000
0F800000
0F000000
0F000000
0F000000
0F000000
1F000000
1E000000
1E000000
1E000000
ENDCHAR
STARTCHAR 03AC
ENCODING 940
SWIDTH 560 0
DWIDTH 28 0
BBX 26 40 2 0
BITMAP
00003C00
00007C00
00007800
00007800
0000F000
0000F000
0001E000
0001C000
00038000
00038000
00000000
00000000
00000000
003F81C0
00FFC3C0
03FFE380
07F0F780
07C07780
0F803F00
1F003F00
1E001F00
3E001E00
3C001E00
3C001E00
7C001E00
78003C00
78003C00
78003C00
78003C00
F8007C00
F8007800
F800F800
F800F800
7801F800
7803F800
7C077800
7E0E7800
3FFC7F00
1FF87F00
0FF03F00
ENDCHAR
STARTCHAR 03AD
ENCODING 941
SWIDTH 440 0
DWIDTH 22 0
BBX 22 40 1 0
BITMAP
000078
0000F8
0000F0
0001F0
0001E0
0003C0
0003C0
000780
000700
000600
000000
000000
000000
003FE0
01FFFC
03FFF8
07F078
078000
0F0000
0F0000
0F0000
0F0000
0F0000
078000
03FF00
01FF00
03FE00
0FFE00
3F0000
3C0000
780000
780000
F80000
F80000
780000
780040
7E03C0
3FFFC0
1FFFC0
0FFF00
ENDCHAR
STARTCHAR 03AE
ENCODING 942
SWIDTH 560 0
DWIDTH 28 0
BBX 24 52 2 -12
BITMAP
00003E
00003C
00007C
000078
0000F0
0000F0
0001E0
0001C0
0003C0
000380
000000
000000
000000
0703F8
070FFC
071FFE
0F3C3F
0F701F
0FE00F
0FC00F
0F800F
1F000F
1F000F
1E001E
1E001E
3E001E
3C001E
3C003E
3C003C
3C003C
7C003C
78003C
78007C
780078
780078
F00078
F00078
F000F8
F000F0
F000F0
0000F0
0000F0
0001E0
0001E0
0001E0
0001E0
0003E0
0003C0
0003C0
0003C0
0003C0
000780
ENDCHAR
STARTCHAR 03AF
ENCODING 943
SWIDTH 300 0
DWIDTH 15 0
BBX 13 40 3 0
BITMAP
0078
00F8
00F0
01F0
01E0
03C0
03C0
0780
0700
0600
0000
0000
0000
0F00
1F00
1E00
1E00
1E00
1E00
3E00
3C00
3C00
3C00
3C00
7800
7800
7800
7800
7800
F000
F000
F000
F000
F000
F000
F000
F000
FFC0
7FC0
3FC0
ENDCHAR
STARTCHAR 03B0
ENCODING 944
SWIDTH 560 0
DWIDTH 28 0
BBX 24 42 3 0
BITMAP
00007C
000078
0000F0
0000F0
0001E0
0001C0
00F39E
01F31E
01F01E
00E01E
000000
000000
000000
000000
000000
0F000F
1F000F
1E000F
1E000F
1E000F
1E000F
3C001F
3C001E
3C001E
3C001E
3C001E
78001E
78001E
78003E
78003C
78003C
F0003C
F0007C
F00078
F000F8
F000F0
F801F0
7803E0
7E07C0
3FFF80
1FFF00
0FFC00
ENDCHAR
STARTCHAR 03B1
ENCODING 945
SWIDTH 560 0
DWIDTH 28 0
BBX 26 27 2 0
BITMAP
003F81C0
00FFC3C0
03FFE380
07F0F780
07C07780
0F803F00
1F003F00
1E001F00
3E001E00
3C001E00
3C001E00
7C001E00
78003C00
78003C00
78003C00
78003C00
F8007C00
F8007800
F800F800
F800F800
7801F800
7803F800
7C077800
7E0E7800
3FFC7F00
1FF87F00
0FF03F00
ENDCHAR
STARTCHAR 03B2
ENCODING 946
SWIDTH 580 0
DWIDTH 29 0
BBX 29 50 -1 -12
BITMAP
0000FF00
0003FFC0
000FFFE0
001F83F0
001F00F8
003E00F8
003C0078
00780078
00780078
00780078
00F00078
00F00078
00F000F0
00F000F0
01F001E0
01E007C0
01E1FF80
01E3FE00
01E3FC00
03C3FF00
03C00F80
03C007C0
03C003C0
07C003E0
078001E0
078001E0
078001E0
078001E0
0F8001E0
0F0003E0
0F0003C0
0F0003C0
0F0007C0
1F000F80
1FE03F00
1FFFFE00
1EFFFC00
1E3FF000
3C000000
3C000000
3C000000
3C000000
7C000000
78000000
78000000
78000000
78000000
F0000000
F0000000
F0000000
ENDCHAR
STARTCHAR 03B3
ENCODING 947
SWIDTH 460 0
DWIDTH 23 0
BBX 23 39 2 -12
BITMAP
F8001E
78003E
78003C
78007C
780078
7800F0
7800F0
3801E0
3C01E0
3C03C0
3C07C0
3C0780
3C0F80
3C0F00
1C1F00
1E1E00
1E3C00
1E3C00
1E7800
1E7800
0EF000
0EF000
0FE000
0FE000
0FC000
0F8000
0F8000
0F0000
0F0000
1E0000
1E0000
3E0000
3C0000
7C0000
780000
780000
780000
F80000
F00000
ENDCHAR
STARTCHAR 03B4
ENCODING 948
SWIDTH 540 0
DWIDTH 27 0
BBX 26 38 2 0
BITMAP
0007FC00
001FFF00
003FFFC0
007C0F80
00780380
00F00000
00F00000
00F00000
00F00000
00F00000
00780000
007C0000
003E0000
001F0000
000FC000
003FE000
00FFF000
03F8F000
07C0F800
0F807C00
1E003C00
3C003C00
7C003E00
78001E00
F8001E00
F0001E00
F0003E00
F0003C00
F0003C00
F0003C00
F0007C00
F0007800
F800F800
7C01F000
7E07E000
3FFFC000
1FFF8000
07FE0000
ENDCHAR
STARTCHAR 03B5
ENCODING 949
SWIDTH 440 0
DWIDTH 22 0
BBX 22 27 1 0
BITMAP
003FE0
01FFFC
03FFF8
07F078
078000
0F0000
0F0000
0F0000
0F0000
0F0000
078000
03FF00
01FF00
03FE00
0FFE00
3F0000
3C0000
780000
780000
F80000
F80000
780000
780040
7E03C0
3FFFC0
1FFFC0
0FFF00
ENDCHAR
STARTCHAR 03B6
ENCODING 950
SWIDTH 440 0
DWIDTH 22 0
BBX 24 48 2 -10
BITMAP
00FFFF
00FFFF
01FFFF
00003E
00007C
0000F8
0001F0
0003E0
000780
000F00
001E00
003C00
007800
00F000
01E000
03C000
07C000
0F8000
0F0000
1E0000
1E0000
3C0000
3C0000
780000
780000
780000
F80000
F80000
F80000
F80000
F80000
780000
7C0000
7E0000
3F8000
1FF000
07F800
03FE00
007E00
001F00
000F00
000F00
000F00
001E00
001E00
003C00
007800
00F000
ENDCHAR
STARTCHAR 03B7
ENCODING 951
SWIDTH 560 0
DWIDTH 28 0
BBX 24 39 2 -12
BITMAP
0703F8
070FFC
071FFE
0F3C3F
0F701F
0FE00F
0FC00F
0F800F
1F000F
1F000F
1E001E
1E001E
3E001E
3C001E
3C003E
3C003C
3C003C
7C003C
78003C
78007C
780078
780078
F00078
F00078
F000F8
F000F0
F000F0
0000F0
0000F0
0001E0
0001E0
0001E0
0001E0
0003E0
0003C0
0003C0
0003C0
0003C0
000780
ENDCHAR
STARTCHAR 03B8
ENCODING 952
SWIDTH 540 0
DWIDTH 27 0
BBX 24 38 2 0
BITMAP
000FF0
003FF8
007FFC
00FC3E
01F01E
03E00F
03C00F
07800F
07800F
0F000F
0F000F
1F000F
1E000F
1E000F
1E000F
3C000F
3C000F
3FFFFF
3FFFFE
7FFFFE
78001E
78001E
78003E
78003C
78003C
70007C
F00078
F00078
F000F8
F000F0
7801F0
7801E0
7803C0
7C07C0
3E0F80
3FFF00
1FFE00
0FF800
ENDCHAR
STARTCHAR 03B9
ENCODING 953
SWIDTH 300 0
DWIDTH 15 0
BBX 10 27 3 0
BITMAP
0F00
1F00
1E00
1E00
1E00
1E00
3E00
3C00
3C00
3C00
3C00
7800
7800
7800
7800
7800
F000
F000
F000
F000
F000
F000
F000
F000
FFC0
7FC0
3FC0
ENDCHAR
STARTCHAR 03BA
ENCODING 954
SWIDTH 480 0
DWIDTH 24 0
BBX 25 27 1 0
BITMAP
03C00F80
03C01F00
03C03E00
07807C00
0780F800
0781F000
0783E000
0F87C000
0F0F8000
0F1F0000
0F3E0000
0F7C0000
1EFC0000
1FFC0000
1FFE0000
1F9E0000
1F1F0000
3C0F0000
3C0F8000
3C078000
3C07C000
3C03C000
7803C000
7801E000
7801E000
7801F000
F800F000
ENDCHAR
STARTCHAR 03BB
ENCODING 955
SWIDTH 480 0
DWIDTH 24 0
BBX 24 38 -2 0
BITMAP
00FE00
00FF00
00FF80
000F80
000780
0003C0
0003C0
0003C0
0003C0
0003C0
0003C0
0001C0
0003C0
0003E0
0007E0
000FE0
000FE0
001FE0
001DE0
003CE0
0078E0
0078F0
00F0F0
00F0F0
01E0F0
01E0F0
03C0F0
07C0F0
0780F0
0F0070
0F0078
1E0078
3E0078
3C0078
7C0078
78007F
F0003F
F0001F
ENDCHAR
STARTCHAR 03BC
ENCODING 956
SWIDTH 580 0
DWIDTH 29 0
BBX 29 39 -1 -12
BITMAP
00F00078
00F000F0
00F000F0
01E000F0
01E000F0
01E000F0
01E001E0
01E001E0
03C001E0
03C001E0
03C003C0
03C003C0
03C003C0
078003C0
078007C0
07800780
07800780
0F800F80
0F000F80
0F001F80
0F003F00
0F007F00
1F80FF00
1FC1EF00
1FFFCE00
1DFF8E00
1CFE0E00
3C000000
3C000000
3C000000
3C000000
78000000
78000000
78000000
78000000
78000000
F0000000
F0000000
F0000000
ENDCHAR
STARTCHAR 03BD
ENCODING 957
SWIDTH 480 0
DWIDTH 24 0
BBX 23 27 2 0
BITMAP
F8001E
78001E
78003E
78003C
78003C
78003C
780078
780078
780078
3C00F0
3C00F0
3C01F0
3C01E0
3C03E0
3C03C0
3C07C0
3C0780
1E0F00
1E1F00
1E1E00
1E3C00
1E7800
1EF800
1FF000
1FE000
0FC000
0F8000
ENDCHAR
STARTCHAR 03BE
ENCODING 958
SWIDTH 440 0
DWIDTH 22 0
BBX 23 48 2 -10
BITMAP
01FFFE
01FFFC
01FFFC
000FC0
003E00
00F800
01E000
03C000
03C000
078000
078000
078000
078000
07C000
03C000
03E000
01FFE0
007FE0
00FFC0
03FFC0
0FE000
1F0000
3E0000
7C0000
780000
780000
F00000
F00000
F00000
F00000
F00000
F80000
7C0000
7E0000
3F8000
1FF000
0FF800
03FC00
007E00
003E00
001F00
000F00
001E00
001E00
001E00
003C00
007800
00F000
ENDCHAR
STARTCHAR 03BF
ENCODING 959
SWIDTH 560 0
DWIDTH 28 0
BBX 24 27 2 0
BITMAP
003FC0
00FFF0
03FFF8
07F0FC
07C03C
0F803E
1F001E
1E001F
3C000F
3C000F
7C000F
78000F
78001F
78001F
78001E
F8001E
F8001E
F8003E
F8003C
78007C
780078
7C00F8
3C01F0
3F07E0
1FFFC0
0FFF80
03FE00
ENDCHAR
STARTCHAR 03C0
ENCODING 960
SWIDTH 600 0
DWIDTH 30 0
BBX 29 27 2 0
BITMAP
0FFFFFF8
3FFFFFF8
FFFFFFF8
FFFFFFF8
07801E00
07801E00
07801E00
07801E00
0F803C00
0F003C00
0F003C00
0F003C00
0F003C00
1E007800
1E007800
1E007800
1E007800
3E00F800
3C00F000
3C00F000
3C00F000
3C00F000
7C00F000
7800F000
7800FF00
7800FF00
78007F00
ENDCHAR
STARTCHAR 03C1
ENCODING 961
SWIDTH 560 0
DWIDTH 28 0
BBX 27 39 -1 -12
BITMAP
0007FC00
001FFF00
003FFF80
007E1F80
00F807C0
00F003C0
01F003E0
01E001E0
01E001E0
03C001E0
03C001E0
03C001E0
07C001E0
078001E0
078001E0
078003E0
078003C0
0F8003C0
0F0007C0
0F000780
0F000F80
0F001F00
1F803F00
1FE07E00
1FFFFC00
1EFFF800
1E3FE000
3C000000
3C000000
3C000000
3C000000
7C000000
78000000
78000000
78000000
78000000
F0000000
F0000000
F0000000
ENDCHAR
STARTCHAR 03C2
ENCODING 962
SWIDTH 440 0
DWIDTH 22 0
BBX 21 37 2 -10
BITMAP
003FF0
00FFF8
01FFF8
07F070
07C000
0F8000
1F0000
1E0000
3C0000
3C0000
7C0000
780000
780000
780000
780000
F80000
F80000
F80000
780000
780000
7C0000
7C0000
3E0000
1F8000
1FF000
07FC00
01FE00
007E00
001F00
000F00
000F00
000F00
001F00
001E00
003C00
007C00
00F800
ENDCHAR
STARTCHAR 03C3
ENCODING 963
SWIDTH 580 0
DWIDTH 29 0
BBX 28 27 2 0
BITMAP
000FFFF0
007FFFF0
01FFFFF0
03FFFFE0
07E03800
0F803C00
1F003C00
3E001C00
3C001E00
3C001E00
78001E00
78001E00
78001E00
78001E00
F8001E00
F8001E00
F8003E00
F8003C00
78003C00
78007C00
78007800
7C00F800
3C01F000
3F07E000
1FFFC000
0FFF8000
03FE0000
ENDCHAR
STARTCHAR 03C4
ENCODING 964
SWIDTH 420 0
DWIDTH 21 0
BBX 21 27 2 0
BITMAP
0FFFF8
3FFFF0
FFFFF0
FFFFF0
01E000
01E000
01E000
01E000
03E000
03C000
03C000
03C000
03C000
078000
078000
078000
078000
078000
0F0000
0F0000
0F0000
0F0000
0F0000
0F8000
0FFC00
07FC00
03FC00
ENDCHAR
STARTCHAR 03C5
ENCODING 965
SWIDTH 560 0
DWIDTH 28 0
BBX 24 27 3 0
BITMAP
0F000F
1F000F
1E000F
1E000F
1E000F
1E000F
3C001F
3C001E
3C001E
3C001E
3C001E
78001E
78001E
78003E
78003C
78003C
F0003C
F0007C
F00078
F000F8
F000F0
F801F0
7803E0
7E07C0
3FFF80
1FFF00
0FFC00
ENDCHAR
STARTCHAR 03C6
ENCODING 966
SWIDTH 660 0
DWIDTH 33 0
BBX 29 39 2 -12
BITMAP
00801F80
01C07FE0
03E0FFF0
07C1F1F0
0F81E0F8
0F03E078
1F03C078
1E03C078
3C03C078
3C078078
78078078
78078078
78078078
78078078
F80F00F8
F00F00F0
F00F00F0
F00F01F0
F81F01E0
781E03E0
781E03C0
7C1E07C0
3E1E1F80
3F3C7F00
1FFFFE00
0FFFF800
03FFE000
003C0000
00780000
00780000
00780000
00780000
00F00000
00F00000
00F00000
00F00000
00F00000
01E00000
01E00000
ENDCHAR
STARTCHAR 03C7
ENCODING 967
SWIDTH 500 0
DWIDTH 25 0
BBX 32 39 -5 -12
BITMAP
0078001F
00FE001E
00FE003C
00FF007C
000F0078
000F00F0
000701E0
000781E0
000783C0
00078780
00078780
00078F00
00079E00
0003BE00
0003BC00
0003F800
0003F800
0003F000
0003E000
0003C000
0007E000
000FE000
001FE000
001FE000
003DE000
0078E000
0078E000
00F0F000
01E0F000
03E0F000
03C0F000
0780F000
0F80F000
1F007800
1E007800
3E007C00
7C003F80
78003F80
F0001F80
ENDCHAR
STARTCHAR 03C8
ENCODING 968
SWIDTH 700 0
DWIDTH 35 0
BBX 31 50 3 -12
BITMAP
00003C00
00003C00
00003C00
00007800
00007800
00007800
00007800
0000F000
0000F000
0000F000
0000F000
0F00F01E
1E01E01E
1E01E01E
1E01E01E
1E01E01E
1E01E03E
3C03C03E
3C03C03E
3C03C03C
3C03C03C
3C07803C
7807803C
7807803C
7807807C
78078078
780F0078
F80F00F8
F80F00F0
F80F01F0
780F01E0
781E03E0
7C1E07C0
7C1E0F80
3F1E7F00
1FFFFE00
0FFFF800
03FFE000
003C0000
003C0000
00780000
00780000
00780000
00780000
00780000
00F00000
00F00000
00F00000
00F00000
00F00000
ENDCHAR
STARTCHAR 03C9
ENCODING 969
SWIDTH 720 0
DWIDTH 36 0
BBX 32 27 2 0
BITMAP
01E0000F
03C0000F
07C0000F
0780000F
0F00000F
0F00000F
1E00000F
1E00000F
3E00000F
3C00000F
3C01E00F
7C01E00F
7801E00F
7803C00F
7803C01F
7803C01E
F803C01E
F803C01E
F807803E
F807803C
7807807C
780F8078
781FC0F8
7C3DC1F0
3FFDFFE0
3FF8FFC0
0FE07F80
ENDCHAR
STARTCHAR 03CA
ENCODING 970
SWIDTH 300 0
DWIDTH 15 0
BBX 14 36 3 0
BITMAP
783C
783C
783C
7038
0000
0000
0000
0000
0000
0F00
1F00
1E00
1E00
1E00
1E00
3E00
3C00
3C00
3C00
3C00
7800
7800
7800
7800
7800
F000
F000
F000
F000
F000
F000
F000
F000
FFC0
7FC0
3FC0
ENDCHAR
STARTCHAR 03CB
ENCODING 971
SWIDTH 560 0
DWIDTH 28 0
BBX 24 36 3 0
BITMAP
00783C
00783C
00F87C
007038
000000
000000
000000
000000
000000
0F000F
1F000F
1E000F
1E000F
1E000F
1E000F
3C001F
3C001E
3C001E
3C001E
3C001E
78001E
78001E
78003E
78003C
78003C
F0003C
F0007C
F00078
F000F8
F000F0
F801F0
7803E0
7E07C0
3FFF80
1FFF00
0FFC00
ENDCHAR
STARTCHAR 03CC
ENCODING 972
SWIDTH 560 0
DWIDTH 28 0
BBX 24 40 2 0
BITMAP
000078
0000F8
0000F0
0001F0
0001E0
0003C0
0003C0
000780
000700
000600
000000
000000
000000
003FC0
00FFF0
03FFF8
07F0FC
07C03C
0F803E
1F001E
1E001F
3C000F
3C000F
7C000F
78000F
78001F
78001F
78001E
F8001E
F8001E
F8003E
F8003C
78007C
780078
7C00F8
3C01F0
3F07E0
1FFFC0
0FFF80
03FE00
ENDCHAR
STARTCHAR 03CD
ENCODING 973
SWIDTH 560 0
DWIDTH 28 0
BBX 24 40 3 0
BITMAP
0000F8
0000F8
0000F0
0001E0
0001E0
0003C0
000380
000780
000700
000E00
000000
000000
000000
0F000F
1F000F
1E000F
1E000F
1E000F
1E000F
3C001F
3C001E
3C001E
3C001E
3C001E
78001E
78001E
78003E
78003C
78003C
F0003C
F0007C
F00078
F000F8
F000F0
F801F0
7803E0
7E07C0
3FFF80
1FFF00
0FFC00
ENDCHAR
STARTCHAR 03CE
ENCODING 974
SWIDTH 720 0
DWIDTH 36 0
BBX 32 40 2 0
BITMAP
000003C0
000007C0
00000780
00000F80
00000F00
00001E00
00001E00
00003C00
00003800
00003000
00000000
00000000
00000000
01E0000F
03C0000F
07C0000F
0780000F
0F00000F
0F00000F
1E00000F
1E00000F
3E00000F
3C00000F
3C01E00F
7C01E00F
7801E00F
7803C00F
7803C01F
7803C01E
F803C01E
F803C01E
F807803E
F807803C
7807807C
780F8078
781FC0F8
7C3DC1F0
3FFDFFE0
3FF8FFC0
0FE07F80
ENDCHAR
STARTCHAR 03D1
ENCODING 977
SWIDTH 560 0
DWIDTH 28 0
BBX 29 38 1 0
BITMAP
000FF000
001FFC00
003FFE00
007C3E00
00781F00
00F00F00
00F00F80
00F00780
00F00780
00F00780
00F00780
00F80780
007C0780
003F0780
001FFFF8
000FFFF0
0001FFF0
FE000780
FE000F80
FF000F00
0F000F00
0F000F00
0F000F00
1E001E00
1E001E00
1E001E00
3C003C00
3C003C00
3C007C00
78007800
7800F800
7800F000
7801E000
7C03E000
3E0FC000
3FFF8000
1FFE0000
0FFC0000
ENDCHAR
STARTCHAR 03D2
ENCODING 978
SWIDTH 500 0
DWIDTH 25 0
BBX 26 36 5 0
BITMAP
F0000FC0
F0001F80
F0003F80
F0007E80
7800F800
7800F000
7801E000
7803E000
3C03C000
3C078000
3C078000
1C0F0000
1E1F0000
1E1E0000
1E3C0000
0E3C0000
0F780000
0F780000
0FF00000
07E00000
07E00000
07C00000
07C00000
07800000
07800000
07800000
07800000
0F000000
0F000000
0F000000
0F000000
1F000000
1E000000
1E000000
1E000000
1E000000
ENDCHAR
STARTCHAR 03D6
ENCODING 982
SWIDTH 780 0
DWIDTH 39 0
BBX 38 27 3 0
BITMAP
0FFFFFFFFC
7FFFFFFFFC
FFFFFFFFF8
FFFFFFFFF8
03C0001E00
0780000F00
0F80000F00
0F00000F00
1F00000F00
1E00000F00
3E00000F00
3C00000F00
3C00000F00
7C01E00F00
7803C01F00
7803C01E00
7803C01E00
7803C01E00
7803C03E00
7807C03C00
7807807C00
780FC07800
7C0FC0F800
7C1DE1F000
3FFDFFE000
1FF8FFC000
0FF07F8000
ENDCHAR
STARTCHAR 0400
ENCODING 1024
SWIDTH 500 0
DWIDTH 25 0
BBX 26 47 2 0
BITMAP
000F8000
00078000
0007C000
0003C000
0001E000
0000E000
0000F000
00007000
00000000
00000000
00000000
00FFFFC0
01FFFF80
01FFFF80
01FFFF80
01E00000
01E00000
03C00000
03C00000
03C00000
03C00000
07C00000
07800000
07800000
07800000
07800000
0F800000
0FFFF800
0FFFF800
0FFFF800
0F000000
1F000000
1E000000
1E000000
1E000000
1E000000
3C000000
3C000000
3C000000
3C000000
7C000000
78000000
78000000
7FFFE000
7FFFE000
FFFFE000
FFFFC000
ENDCHAR
STARTCHAR 0401
ENCODING 1025
SWIDTH 500 0
DWIDTH 25 0
BBX 26 45 2 0
BITMAP
000E0700
001F0F80
001F0F00
001E0F00
00000000
00000000
00000000
00000000
00000000
00FFFFC0
01FFFF80
01FFFF80
01FFFF80
01E00000
01E00000
03C00000
03C00000
03C00000
03C00000
07C00000
07800000
07800000
07800000
07800000
0F800000
0FFFF800
0FFFF800
0FFFF800
0F000000
1F000000
1E000000
1E000000
1E000000
1E000000
3C000000
3C000000
3C000000
3C000000
7C000000
78000000
78000000
7FFFE000
7FFFE000
FFFFE000
FFFFC000
ENDCHAR
STARTCHAR 0402
ENCODING 1026
SWIDTH 660 0
DWIDTH 33 0
BBX 25 36 5 0
BITMAP
FFFFFE00
FFFFFC00
FFFFFC00
FFFFFC00
01E00000
01E00000
01E00000
01E00000
03E00000
03C00000
03C00000
03C00000
03C00000
07C00000
07FFE000
07FFFC00
07FFFE00
07FFFF00
0F001F00
0F000F80
0F000780
0F000780
1F000780
1E000780
1E000780
1E000F80
1E000F00
3E000F00
3C000F00
3C001F00
3C001E00
3C003E00
7810FC00
781FFC00
781FF800
781FE000
ENDCHAR
STARTCHAR 0403
ENCODING 1027
SWIDTH 460 0
DWIDTH 23 0
BBX 26 47 2 0
BITMAP
00000F80
00000F00
00001E00
00003C00
00007800
0000F000
0000E000
0001C000
00000000
00000000
00000000
00FFFFC0
01FFFFC0
01FFFF80
01FFFF80
01E00000
01E00000
03C00000
03C00000
03C00000
03C00000
07C00000
07800000
07800000
07800000
07800000
0F800000
0F000000
0F000000
0F000000
0F000000
1F000000
1E000000
1E000000
1E000000
1E000000
3C000000
3C000000
3C000000
3C000000
7C000000
78000000
78000000
78000000
78000000
F8000000
F0000000
ENDCHAR
STARTCHAR 0404
ENCODING 1028
SWIDTH 580 0
DWIDTH 29 0
BBX 27 36 4 0
BITMAP
0003FF00
001FFFE0
007FFFE0
00FFCFE0
01FC00C0
03F00000
07E00000
0F800000
0F800000
1F000000
3E000000
3E000000
3C000000
7C000000
78000000
78000000
FFFFF000
FFFFF000
FFFFF000
F0000000
F0000000
F0000000
F0000000
F0000000
F0000000
F0000000
F0000000
F8000000
F8000000
7C000000
7E000000
3F000000
1FC07800
0FFFF800
07FFF800
01FFE000
ENDCHAR
STARTCHAR 0405
ENCODING 1029
SWIDTH 500 0
DWIDTH 25 0
BBX 25 36 1 0
BITMAP
001FF800
007FFF00
00FFFF80
01FF7F00
03F00700
07C00000
07C00000
07800000
0F800000
0F800000
0F800000
0F800000
07800000
07C00000
07E00000
03F80000
01FC0000
00FF0000
003F8000
001FE000
0007F000
0003F000
0000F800
0000F800
00007800
00007800
00007800
00007800
00007800
0000F800
0001F000
8003F000
F80FE000
FFFFC000
FFFF8000
7FFC0000
ENDCHAR
STARTCHAR 0406
ENCODING 1030
SWIDTH 260 0
DWIDTH 13 0
BBX 12 36 2 0
BITMAP
00F0
01F0
01E0
01E0
01E0
01E0
03C0
03C0
03C0
03C0
03C0
0780
0780
0780
0780
0F80
0F00
0F00
0F00
0F00
1E00
1E00
1E00
1E00
1E00
3C00
3C00
3C00
3C00
7C00
7800
7800
7800
7800
F000
F000
ENDCHAR
STARTCHAR 0407
ENCODING 1031
SWIDTH 260 0
DWIDTH 13 0
BBX 18 45 2 0
BITMAP
0783C0
0783C0
0783C0
070380
000000
000000
000000
000000
000000
00F000
01F000
01E000
01E000
01E000
01E000
03C000
03C000
03C000
03C000
03C000
078000
078000
078000
078000
0F8000
0F0000
0F0000
0F0000
0F0000
1E0000
1E0000
1E0000
1E0000
1E0000
3C0000
3C0000
3C0000
3C0000
7C0000
780000
780000
780000
780000
F00000
F00000
ENDCHAR
STARTCHAR 0408
ENCODING 1032
SWIDTH 260 0
DWIDTH 13 0
BBX 22 45 -8 -9
BITMAP
00003C
00007C
000078
000078
000078
000078
0000F8
0000F0
0000F0
0000F0
0000F0
0001E0
0001E0
0001E0
0001E0
0003E0
0003C0
0003C0
0003C0
0003C0
0007C0
000780
000780
000780
000780
000F80
000F00
000F00
000F00
001F00
001E00
001E00
001E00
001E00
003E00
003C00
003C00
003C00
007C00
007800
00F800
83F000
FFE000
FFC000
FF8000
ENDCHAR
STARTCHAR 0409
ENCODING 1033
SWIDTH 880 0
DWIDTH 44 0
BBX 44 37 -2 -1
BITMAP
00007FFF8000
00007FFF8000
0000FFFF8000
0000FFFF8000
0000F00F8000
0000F00F0000
0001F00F0000
0001E00F0000
0001E00F0000
0001E01E0000
0003C01E0000
0003C01E0000
0003C01E0000
0007C03E0000
0007803C0000
0007803F8000
0007803FFE00
000F003FFF80
000F007FFFC0
000F00780FE0
001F007803E0
001E007801E0
001E007801F0
003E00F800F0
003C00F000F0
003C00F000F0
007C00F001F0
007800F001E0
00F801E001E0
00F001E003E0
01F001E007C0
03E001E00FC0
87E003FFFF80
FFC003FFFF00
FF8003FFFC00
FF0003FFE000
100000000000
ENDCHAR
STARTCHAR 040A
ENCODING 1034
SWIDTH 900 0
DWIDTH 45 0
BBX 40 36 2 0
BITMAP
00F0003C00
01F0003C00
01E0007800
01E0007800
01E0007800
01E0007800
03C000F800
03C000F000
03C000F000
03C000F000
07C000F000
078001F000
078001E000
078001E000
078001E000
0FFFFFFD00
0FFFFFFFF0
0FFFFFFFF8
0FFFFFFFFE
0F0003C07E
1E0007C01F
1E0007C01F
1E0007800F
1E0007800F
1E0007800F
3C000F800F
3C000F000F
3C000F000F
3C000F001F
7C000F001E
78001F003E
78001E00FC
78001FFFF8
78001FFFF0
F8001FFFC0
F0003FFE00
ENDCHAR
STARTCHAR 040B
ENCODING 1035
SWIDTH 660 0
DWIDTH 33 0
BBX 25 36 5 0
BITMAP
FFFFFE00
FFFFFC00
FFFFFC00
FFFFFC00
01E00000
01E00000
01E00000
01E00000
03E00000
03C00000
03C00000
03C00000
03C00000
07C00000
07FFF000
07FFFC00
07FFFE00
07FFFF00
0F001F00
0F000F80
0F000780
0F000780
1F000780
1E000780
1E000780
1E000F00
1E000F00
3E000F00
3C000F00
3C001F00
3C001E00
3C001E00
78001E00
78001E00
78003E00
78003C00
ENDCHAR
STARTCHAR 040C
ENCODING 1036
SWIDTH 560 0
DWIDTH 28 0
BBX 30 47 2 0
BITMAP
000007C0
00000780
00000F00
00001E00
00003C00
00007800
00007000
0000E000
00000000
00000000
00000000
00F0007C
01F000F8
01E001F0
01E003E0
01E007C0
01E00F80
03C01F00
03C03E00
03C07C00
03C0F800
07C1F000
0783E000
0787C000
078F8000
079F0000
0FBE0000
0F7C0000
0FF80000
0FF80000
0F780000
1E7C0000
1E3E0000
1E1E0000
1E1F0000
1E0F0000
3C078000
3C07C000
3C03C000
3C03E000
7C01F000
7800F000
7800F800
78007C00
78003C00
F8003E00
F0001F00
ENDCHAR
STARTCHAR 040D
ENCODING 1037
SWIDTH 680 0
DWIDTH 34 0
BBX 33 47 2 0
BITMAP
0000F00000
0000F80000
0000780000
00003C0000
00003C0000
00001E0000
00000E0000
0000070000
0000000000
0000000000
0000000000
00F0000F80
01E0001F80
01E0001F80
01E0003F00
01E0007F00
01C000FF00
03C000FF00
03C001EF00
03C003CE00
03C0079E00
07800F9E00
07800F1E00
07801E1E00
07803C3C00
0780783C00
0F00F83C00
0F00F03C00
0F01E03C00
0F03C07800
0E07C07800
1E07807800
1E0F007800
1E1E007000
1E3E00F000
1C7C00F000
3C7800F000
3CF000F000
3DE001E000
3BE001E000
7BC001E000
7F8001E000
7F0001E000
7F0003C000
7E0003C000
FC0003C000
F80003C000
ENDCHAR
STARTCHAR 040E
ENCODING 1038
SWIDTH 560 0
DWIDTH 28 0
BBX 33 47 0 0
BITMAP
000E003800
000E007800
000E007800
000F00F000
000F83F000
0007FFE000
0003FF8000
0000FC0000
0000000000
0000000000
0000000000
0780000F80
03C0000F00
03C0001F00
03C0001E00
03C0003E00
01E0007C00
01E0007800
01E000F800
00F000F000
00F001E000
00F003E000
00F003C000
007807C000
0078078000
00780F0000
003C1F0000
003C1E0000
003C3E0000
001C3C0000
001E780000
001E780000
001EF00000
000EE00000
000FE00000
000FC00000
0007C00000
000F800000
000F000000
001F000000
003E000000
007C000000
00F8000000
C7F8000000
FFF0000000
FFC0000000
FF80000000
ENDCHAR
STARTCHAR 040F
ENCODING 1039
SWIDTH 660 0
DWIDTH 33 0
BBX 32 45 2 -9
BITMAP
00F0000F
01F0000F
01E0000F
01E0001E
01E0001E
01E0001E
03E0001E
03C0003E
03C0003C
03C0003C
07C0003C
0780003C
0780007C
07800078
07800078
0F800078
0F000078
0F0000F0
0F0000F0
0F0000F0
1F0000F0
1E0001F0
1E0001E0
1E0001E0
1E0001E0
3C0001E0
3C0003E0
3C0003C0
3C0003C0
7C0003C0
780003C0
78000780
7FFFFF80
7FFFFF80
FFFFFF80
FFFFFF80
003C0000
003C0000
003C0000
003C0000
00780000
00780000
00780000
00780000
00780000
ENDCHAR
STARTCHAR 0410
ENCODING 1040
SWIDTH 560 0
DWIDTH 28 0
BBX 29 36 -3 0
BITMAP
00000F00
00001F00
00001F00
00003F00
00007F80
00007F80
0000F780
0000F780
0001E780
0001E780
0003C380
0003C380
000783C0
000783C0
000F03C0
001F03C0
001E03C0
003E03C0
003C03C0
007C01E0
007801E0
00FFFFE0
00FFFFE0
01FFFFE0
03FFFFE0
03C001E0
07C001E0
078001F0
0F8000F0
0F0000F0
1F0000F0
1E0000F0
3E0000F0
3C0000F0
7C0000F0
F80000F8
ENDCHAR
STARTCHAR 0411
ENCODING 1041
SWIDTH 560 0
DWIDTH 28 0
BBX 26 36 2 0
BITMAP
00FFFFC0
01FFFF80
01FFFF80
01FFFF80
01E00000
01E00000
03E00000
03C00000
03C00000
03C00000
03C00000
07800000
07800000
07800000
07800000
0FF80000
0FFFC000
0FFFF000
0FFFF800
0F01FC00
1F007C00
1E003E00
1E001E00
1E001E00
1E001E00
3C001E00
3C001E00
3C001E00
3C003E00
7C003C00
78007C00
7801F800
7FFFF000
7FFFE000
FFFF8000
FFFC0000
ENDCHAR
STARTCHAR 0412
ENCODING 1042
SWIDTH 600 0
DWIDTH 30 0
BBX 27 36 2 0
BITMAP
00FFF000
01FFFE00
01FFFF80
01FFFFC0
01E00FE0
01E003E0
03C001E0
03C001E0
03C001E0
03C001E0
07C001E0
078001E0
078003C0
078007C0
07800F80
0F80FF00
0FFFFC00
0FFFE000
0FFFF800
0F007E00
1F001F00
1E000F00
1E000F80
1E000780
1E000780
3C000780
3C000780
3C000F80
3C000F80
7C001F00
78003F00
78007E00
7FFFFC00
7FFFF800
FFFFE000
FFFF0000
ENDCHAR
STARTCHAR 0413
ENCODING 1043
SWIDTH 460 0
DWIDTH 23 0
BBX 26 36 2 0
BITMAP
00FFFFC0
01FFFFC0
01FFFF80
01FFFF80
01E00000
01E00000
03C00000
03C00000
03C00000
03C00000
07C00000
07800000
07800000
07800000
07800000
0F800000
0F000000
0F000000
0F000000
0F000000
1F000000
1E000000
1E000000
1E000000
1E000000
3C000000
3C000000
3C000000
3C000000
7C000000
78000000
78000000
78000000
78000000
F8000000
F0000000
ENDCHAR
STARTCHAR 0414
ENCODING 1044
SWIDTH 620 0
DWIDTH 31 0
BBX 35 45 -4 -9
BITMAP
000007FFE0
00000FFFE0
00000FFFE0
00000FFFC0
00001E03C0
00001E03C0
00001E03C0
00003C07C0
00003C0780
00007C0780
0000780780
0000780F80
0000F00F00
0000F00F00
0001F00F00
0001E00F00
0003E01F00
0003C01E00
0007C01E00
0007801E00
000F801E00
000F003E00
001F003C00
001E003C00
003E003C00
003C003C00
0078007800
00F8007800
00F0007800
01F0007800
03E000F800
03C000F000
1FFFFFFF80
3FFFFFFF00
3FFFFFFF00
3FFFFFFF00
3C00000F00
7800000F00
7800001E00
7800001E00
7800001E00
7800001E00
F000001E00
F000003C00
F000003C00
ENDCHAR
STARTCHAR 0415
ENCODING 1045
SWIDTH 500 0
DWIDTH 25 0
BBX 26 36 2 0
BITMAP
00FFFFC0
01FFFF80
01FFFF80
01FFFF80
01E00000
01E00000
03C00000
03C00000
03C00000
03C00000
07C00000
07800000
07800000
07800000
07800000
0F800000
0FFFF800
0FFFF800
0FFFF800
0F000000
1F000000
1E000000
1E000000
1E000000
1E000000
3C000000
3C000000
3C000000
3C000000
7C000000
78000000
78000000
7FFFE000
7FFFE000
FFFFE000
FFFFC000
ENDCHAR
STARTCHAR 0416
ENCODING 1046
SWIDTH 760 0
DWIDTH 38 0
BBX 45 36 -2 0
BITMAP
00F000F000F8
00F800F001F0
007800F003E0
007C00F007C0
003C01E00F80
003E01E00F00
001E01E01F00
001F01E03E00
000F01E07C00
000F83C0F800
000783C1F000
0007C3C3E000
0003C3C7C000
0003E3CF8000
0001E79F0000
0001F7BE0000
0000F7FC0000
0000FFF80000
0001FF780000
0003EF780000
0007CF3C0000
0007CF3E0000
000F8F1E0000
001F1E1F0000
003E1E0F0000
007C1E0F8000
00F81E078000
01F01E07C000
03E03C03C000
07C03C03E000
07C03C01E000
0F803C01F000
1F003C00F000
3E007800F800
7C0078007800
F80078007C00
ENDCHAR
STARTCHAR 0417
ENCODING 1047
SWIDTH 520 0
DWIDTH 26 0
BBX 26 36 0 0
BITMAP
000FF800
007FFE00
01FFFF00
03FC3F80
03E00FC0
018007C0
000003C0
000003C0
000003C0
000003C0
000003C0
00000780
00000780
00000F00
00003E00
0001FC00
01FFF000
01FF8000
01FFF000
0003F800
00007C00
00003E00
00001E00
00001F00
00000F00
00000F00
00001F00
00001F00
00001E00
00003E00
00007E00
C000FC00
F803F800
FFFFF000
FFFFC000
3FFF0000
ENDCHAR
STARTCHAR 0418
ENCODING 1048
SWIDTH 680 0
DWIDTH 34 0
BBX 33 36 2 0
BITMAP
00F0000F80
01E0001F80
01E0001F80
01E0003F00
01E0007F00
01C000FF00
03C000FF00
03C001EF00
03C003CE00
03C0079E00
07800F9E00
07800F1E00
07801E1E00
07803C3C00
0780783C00
0F00F83C00
0F00F03C00
0F01E03C00
0F03C07800
0E07C07800
1E07807800
1E0F007800
1E1E007000
1E3E00F000
1C7C00F000
3C7800F000
3CF000F000
3DE001E000
3BE001E000
7BC001E000
7F8001E000
7F0001E000
7F0003C000
7E0003C000
FC0003C000
F80003C000
ENDCHAR
STARTCHAR 0419
ENCODING 1049
SWIDTH 680 0
DWIDTH 34 0
BBX 33 47 2 0
BITMAP
0007801E00
0007801E00
0007803C00
0007807C00
0003E1F800
0003FFF000
0001FFE000
00003F0000
0000000000
0000000000
0000000000
00F0000F80
01E0001F80
01E0001F80
01E0003F00
01E0007F00
01C000FF00
03C000FF00
03C001EF00
03C003CE00
03C0079E00
07800F9E00
07800F1E00
07801E1E00
07803C3C00
0780783C00
0F00F83C00
0F00F03C00
0F01E03C00
0F03C07800
0E07C07800
1E07807800
1E0F007800
1E1E007000
1E3E00F000
1C7C00F000
3C7800F000
3CF000F000
3DE001E000
3BE001E000
7BC001E000
7F8001E000
7F0001E000
7F0003C000
7E0003C000
FC0003C000
F80003C000
ENDCHAR
STARTCHAR 041A
ENCODING 1050
SWIDTH 560 0
DWIDTH 28 0
BBX 30 36 2 0
BITMAP
00F0007C
01F000F8
01E001F0
01E003E0
01E007C0
01E00F80
03C01F00
03C03E00
03C07C00
03C0F800
07C1F000
0783E000
0787C000
078F8000
079F0000
0FBE0000
0F7C0000
0FF80000
0FF80000
0F780000
1E7C0000
1E3E0000
1E1E0000
1E1F0000
1E0F0000
3C078000
3C07C000
3C03C000
3C03E000
7C01F000
7800F000
7800F800
78007C00
78003C00
F8003E00
F0001F00
ENDCHAR
STARTCHAR 041B
ENCODING 1051
SWIDTH 640 0
DWIDTH 32 0
BBX 35 37 -2 -1
BITMAP
00007FFFE0
00007FFFC0
0000FFFFC0
0000FFFFC0
0000F003C0
0000F007C0
0001F00780
0001E00780
0001E00780
0001E00780
0003C00F00
0003C00F00
0003C00F00
0007C00F00
0007801F00
0007801E00
0007801E00
000F001E00
000F001E00
000F003E00
001F003C00
001E003C00
001E003C00
003E003C00
003C007C00
003C007800
007C007800
0078007800
00F800F800
00F000F000
01F000F000
03E000F000
87E000F000
FFC001F000
FF8001E000
FF0001E000
1000000000
ENDCHAR
STARTCHAR 041C
ENCODING 1052
SWIDTH 820 0
DWIDTH 41 0
BBX 40 36 2 0
BITMAP
00F800003F
01FC00007F
01FC0000FF
01FC0000FE
01FC0001FE
03DC0001FE
03DC0003DE
03DC0003DC
03DC0007BC
039E00073C
079E000F3C
079E001E3C
079E001E78
078E003C78
070E003C78
0F0E007878
0F0E007878
0F0F00F0F0
0F0F00E0F0
0E0F01E0F0
1E0F01C0F0
1E0703C1F0
1E070781E0
1E070781E0
3C070F01E0
3C078F01E0
3C079E03E0
3C079C03C0
3C07BC03C0
7803B803C0
7803F803C0
7803F007C0
7803F00780
7003E00780
F003E00780
F003C00F80
ENDCHAR
STARTCHAR 041D
ENCODING 1053
SWIDTH 680 0
DWIDTH 34 0
BBX 32 36 2 0
BITMAP
00F0000F
01F0000F
01E0000F
01E0001E
01E0001E
01E0001E
03E0001E
03C0001E
03C0003C
03C0003C
03C0003C
0780003C
0780007C
07800078
07800078
0F800078
0FFFFFF8
0FFFFFF8
0FFFFFF0
0F0000F0
1F0000F0
1E0000F0
1E0001E0
1E0001E0
1E0001E0
3C0001E0
3C0001E0
3C0003C0
3C0003C0
3C0003C0
780003C0
780007C0
78000780
78000780
F8000780
F0000780
ENDCHAR
STARTCHAR 041E
ENCODING 1054
SWIDTH 720 0
DWIDTH 36 0
BBX 30 36 4 0
BITMAP
0007FE00
003FFF80
007FFFC0
01FF3FE0
03F803F0
07E001F8
0FC000F8
0F800078
1F00007C
1E00007C
3E00003C
3C00003C
7C00003C
7800003C
7800003C
F800003C
F800003C
F000003C
F000003C
F000007C
F000007C
F000007C
F0000078
F00000F8
F00000F8
F00001F0
F80001F0
F80003E0
780003E0
7C0007C0
7E000F80
3F003F80
1FC0FF00
0FFFFC00
07FFF800
01FFE000
ENDCHAR
STARTCHAR 041F
ENCODING 1055
SWIDTH 660 0
DWIDTH 33 0
BBX 32 36 2 0
BITMAP
00FFFFFF
01FFFFFF
01FFFFFF
01FFFFFE
01E0001E
01E0001E
03C0001E
03C0003E
03C0003C
03C0003C
07C0003C
0780003C
0780007C
07800078
07800078
0F800078
0F0000F8
0F0000F0
0F0000F0
0F0000F0
1F0000F0
1E0001F0
1E0001E0
1E0001E0
1E0001E0
3C0001E0
3C0003E0
3C0003C0
3C0003C0
7C0003C0
780003C0
78000780
78000780
78000780
F8000780
F0000F80
ENDCHAR
STARTCHAR 0420
ENCODING 1056
SWIDTH 560 0
DWIDTH 28 0
BBX 26 36 2 0
BITMAP
00FFC000
01FFFC00
01FFFE00
01FFFF00
01E01F80
01E007C0
03C007C0
03C003C0
03C003C0
03C003C0
07C003C0
078003C0
078003C0
078007C0
07800780
0F800F80
0F001F00
0F007F00
0FFFFE00
0FFFF800
1FFFE000
1FFF0000
1E000000
1E000000
1E000000
3C000000
3C000000
3C000000
3C000000
7C000000
78000000
78000000
78000000
78000000
F8000000
F0000000
ENDCHAR
STARTCHAR 0421
ENCODING 1057
SWIDTH 580 0
DWIDTH 29 0
BBX 27 36 4 0
BITMAP
0003FF00
001FFFE0
007FFFE0
00FFCFE0
01FC00C0
03F00000
07C00000
0F800000
0F800000
1F000000
3E000000
3E000000
3C000000
7C000000
78000000
78000000
F8000000
F8000000
F0000000
F0000000
F0000000
F0000000
F0000000
F0000000
F0000000
F0000000
F0000000
F8000000
F8000000
7C000000
7E000000
3F000000
1FC0F800
0FFFF800
07FFF800
01FFF000
ENDCHAR
STARTCHAR 0422
ENCODING 1058
SWIDTH 480 0
DWIDTH 24 0
BBX 24 36 5 0
BITMAP
FFFFFF
FFFFFF
FFFFFF
FFFFFF
007C00
007800
007800
007800
007800
00F800
00F000
00F000
00F000
01F000
01E000
01E000
01E000
01E000
03E000
03C000
03C000
03C000
03C000
07C000
078000
078000
078000
0F8000
0F0000
0F0000
0F0000
0F0000
1F0000
1E0000
1E0000
1E0000
ENDCHAR
STARTCHAR 0423
ENCODING 1059
SWIDTH 560 0
DWIDTH 28 0
BBX 33 36 0 0
BITMAP
0780000F80
03C0000F00
03C0001F00
03C0001E00
03C0003E00
01E0007C00
01E0007800
01E000F800
00F000F000
00F001E000
00F003E000
00F003C000
007807C000
0078078000
00780F0000
003C1F0000
003C1E0000
003C3E0000
001C3C0000
001E780000
001E780000
001EF00000
000EE00000
000FE00000
000FC00000
0007C00000
000F800000
000F000000
001F000000
003E000000
007C000000
00F8000000
C7F8000000
FFF0000000
FFC0000000
FF80000000
ENDCHAR
STARTCHAR 0424
ENCODING 1060
SWIDTH 740 0
DWIDTH 37 0
BBX 32 36 4 0
BITMAP
00007800
00007800
00007800
00007800
0007FE00
007FFFC0
01FFFFF0
07FFFFF8
0FE0F1FC
1F81F07E
3E01E03E
3E01E01E
7C01E01F
7803E01F
F803C00F
F003C00F
F003C00F
F003C01F
F007C01F
F007801E
F007801E
F007803E
F007803C
F80F807C
F80F00F8
7C0F01F0
7F0F07E0
3FFFFFC0
1FFFFF80
07FFFE00
00FFF000
001E0000
003E0000
003C0000
003C0000
003C0000
ENDCHAR
STARTCHAR 0425
ENCODING 1061
SWIDTH 520 0
DWIDTH 26 0
BBX 32 36 -2 0
BITMAP
00F0000F
00F0001E
00F8003C
0078007C
007800F8
003C00F0
003C01E0
003C03C0
001E07C0
001E0F80
001E0F00
000F1E00
000F3C00
0007FC00
0007F800
0007F000
0003E000
0003E000
0007E000
000FE000
001FF000
001EF000
003C7800
00787800
00F87800
01F03C00
01E03C00
03C03C00
07C01E00
0F801E00
0F001E00
1E000F00
3E000F00
7C000F80
78000780
F0000780
ENDCHAR
STARTCHAR 0426
ENCODING 1062
SWIDTH 660 0
DWIDTH 33 0
BBX 32 45 2 -9
BITMAP
00F0001F
01F0001E
01E0001E
01E0001E
01E0003E
03E0003C
03C0003C
03C0003C
03C0003C
03C0007C
07C00078
07800078
07800078
07800078
078000F8
0F8000F0
0F0000F0
0F0000F0
0F0000F0
0F0001E0
1E0001E0
1E0001E0
1E0001E0
1E0003E0
3E0003C0
3C0003C0
3C0003C0
3C0003C0
3C0007C0
7C000780
78000780
78000780
7FFFFFF8
7FFFFFF8
FFFFFFF0
FFFFFFF0
000000F0
000000F0
000000F0
000001E0
000001E0
000001E0
000001E0
000003C0
000003C0
ENDCHAR
STARTCHAR 0427
ENCODING 1063
SWIDTH 620 0
DWIDTH 31 0
BBX 26 36 6 0
BITMAP
1E0003C0
1E0003C0
1E0007C0
3E000780
3C000780
3C000780
3C000780
3C000F80
7C000F00
78000F00
78000F00
78000F00
78001F00
F0001E00
F0001E00
F0001E00
F0001E00
F0003C00
F800FC00
FC0FFC00
7FFFFC00
3FFFFC00
1FFC7800
01807800
00007800
00007800
0000F800
0000F000
0000F000
0000F000
0000F000
0001E000
0001E000
0001E000
0001E000
0003E000
ENDCHAR
STARTCHAR 0428
ENCODING 1064
SWIDTH 940 0
DWIDTH 47 0
BBX 46 36 2 0
BITMAP
00F00078003C
01F00078003C
01E000F0007C
01E000F00078
01E000F00078
03E000F00078
03C001F00078
03C001E000F8
03C001E000F0
03C001E000F0
07C001E000F0
078003E000F0
078003C001F0
078003C001E0
078003C001E0
0F8003C001E0
0F0007C001E0
0F00078003C0
0F00078003C0
0F00078003C0
1E000F8003C0
1E000F0007C0
1E000F000780
1E000F000780
3E000F000780
3C001F000780
3C001E000F80
3C001E000F00
3C001E000F00
7C001E000F00
78003E000F00
78003C001E00
7FFFFFFFFE00
7FFFFFFFFE00
FFFFFFFFFE00
FFFFFFFFFE00
ENDCHAR
STARTCHAR 0429
ENCODING 1065
SWIDTH 960 0
DWIDTH 48 0
BBX 46 45 2 -9
BITMAP
00F00078003C
01F00078003C
01E000F0003C
01E000F00078
01E000F00078
03E000F00078
03C001F00078
03C001E000F8
03C001E000F0
03C001E000F0
07C001E000F0
078003E000F0
078003C001F0
078003C001E0
078003C001E0
0F8003C001E0
0F0007C001E0
0F00078003C0
0F00078003C0
0F00078003C0
1E00078003C0
1E000F0003C0
1E000F000780
1E000F000780
3E000F000780
3C001F000780
3C001E000F80
3C001E000F00
3C001E000F00
7C001E000F00
78003E000F00
78003C001F00
7FFFFFFFFFE0
7FFFFFFFFFE0
FFFFFFFFFFE0
FFFFFFFFFFE0
0000000001E0
0000000003C0
0000000003C0
0000000003C0
0000000003C0
000000000780
000000000780
000000000780
000000000780
ENDCHAR
STARTCHAR 042A
ENCODING 1066
SWIDTH 620 0
DWIDTH 31 0
BBX 24 36 5 0
BITMAP
FFF000
FFF000
FFF000
FFF000
01F000
01E000
01E000
01E000
01E000
03E000
03C000
03C000
03C000
03C000
078000
07FC00
07FFE0
07FFF8
0FFFFC
0F00FC
0F003E
0F001E
0F001E
1F001F
1E001F
1E001F
1E001E
1E001E
3E001E
3C003E
3C007C
3C01F8
3FFFF0
7FFFE0
7FFF80
7FFE00
ENDCHAR
STARTCHAR 042B
ENCODING 1067
SWIDTH 780 0
DWIDTH 39 0
BBX 37 36 2 0
BITMAP
00F0000078
01F0000078
01E0000078
01E0000078
01E00000F8
01E00000F0
03C00000F0
03C00000F0
03C00000F0
03C00001E0
07C00001E0
07800001E0
07800001E0
07800001E0
07800003C0
0FF00003C0
0FFFC003C0
0FFFF003C0
0FFFF807C0
0F01FC0780
1F007C0780
1E003C0780
1E003E0780
1E003E0F80
1E001E0F00
3C001E0F00
3C003E0F00
3C003C0F00
3C003C1E00
7C007C1E00
7800F81E00
7801F81E00
7FFFF01E00
7FFFC03C00
FFFF803C00
FFFC003C00
ENDCHAR
STARTCHAR 042C
ENCODING 1068
SWIDTH 540 0
DWIDTH 27 0
BBX 23 36 2 0
BITMAP
00F000
01F000
01E000
01E000
01E000
01E000
03C000
03C000
03C000
03C000
07C000
078000
078000
078000
078000
0FF000
0FFFC0
0FFFF0
0FFFF8
0F01FC
1F007C
1E003E
1E003E
1E001E
1E001E
3C001E
3C003E
3C003E
3C003C
7C007C
7800F8
7801F8
7FFFF0
7FFFE0
FFFF80
FFFC00
ENDCHAR
STARTCHAR 042D
ENCODING 1069
SWIDTH 580 0
DWIDTH 29 0
BBX 28 36 0 0
BITMAP
007FF000
03FFFC00
03FFFF00
03FDFF80
01001F80
000007C0
000003E0
000003E0
000001E0
000001E0
000001F0
000001F0
000001F0
000001F0
000001F0
000001F0
00FFFFF0
00FFFFF0
00FFFFE0
000001E0
000001E0
000003E0
000003E0
000003C0
000007C0
000007C0
00000F80
00000F80
00001F00
00003E00
00007E00
E001FC00
FC0FF800
FFFFE000
FFFFC000
1FFE0000
ENDCHAR
STARTCHAR 042E
ENCODING 1070
SWIDTH 980 0
DWIDTH 49 0
BBX 45 36 2 0
BITMAP
00F0000FFC00
01F0003FFF00
01E000FFFF80
01E001FF3FC0
01E003F007E0
01E007E003F0
03C00FC001F0
03C00F8000F0
03C01F0000F8
03C01E000078
07C03E000078
07803C000078
07807C000078
078078000078
078078000078
0F80F8000078
0FFFF8000078
0FFFF0000078
0FFFF0000078
0F00F00000F8
1F00F00000F8
1E00F00000F0
1E00F00000F0
1E00F00001F0
1E00F00001F0
3C00F00001E0
3C00F80003E0
3C00F80007C0
3C00780007C0
7C007C000F80
78007E001F00
78003F003F00
78001FC1FE00
78000FFFFC00
F80007FFF000
F00001FFC000
ENDCHAR
STARTCHAR 042F
ENCODING 1071
SWIDTH 560 0
DWIDTH 28 0
BBX 30 36 -1 0
BITMAP
00003FFC
0003FFFC
000FFFF8
003FFFF8
007F0078
00FC0078
00F800F8
00F000F0
01F000F0
01E000F0
01E000F0
01E001E0
01E001E0
01E001E0
01F001E0
00F803E0
00FC03C0
007FC3C0
003FFFC0
001FFFC0
001FFFC0
003E0780
003C0780
007C0780
00F80780
01F00F80
03E00F00
03E00F00
07C00F00
0F800F00
1F001E00
1F001E00
3E001E00
7C001E00
F8003E00
F8003C00
ENDCHAR
STARTCHAR 0430
ENCODING 1072
SWIDTH 560 0
DWIDTH 28 0
BBX 25 27 2 0
BITMAP
003F8380
00FFC380
01FFE780
03F0F780
07C07700
0F803F00
1F001F00
1E001F00
3E001F00
3C001E00
3C001E00
7C001E00
78001E00
78003C00
78003C00
78003C00
F8007C00
F8007C00
F800F800
F800F800
7801F800
7803F800
7C077800
7E1E7000
3FFC7000
1FF87000
0FF0F000
ENDCHAR
STARTCHAR 0431
ENCODING 1073
SWIDTH 540 0
DWIDTH 27 0
BBX 27 38 2 0
BITMAP
000003E0
00007FE0
0007FFE0
001FFF80
007FE000
00FF0000
01F80000
03F00000
03E00000
07C00000
07800000
0F000000
0F000000
1E0FC000
1E3FF000
3EFFF800
3DFFF800
3FC07C00
3F803C00
7E003C00
7C003E00
7C003E00
78001E00
78003E00
78003E00
78003C00
F8003C00
F8003C00
F8003C00
78007C00
78007800
7800F800
7C00F000
3C01F000
3F07E000
1FFFC000
0FFF8000
07FE0000
ENDCHAR
STARTCHAR 0432
ENCODING 1074
SWIDTH 520 0
DWIDTH 26 0
BBX 23 27 2 0
BITMAP
003FE0
00FFF8
03FFFC
07F07E
0FC03E
0F001E
1F001E
3E001E
3C001E
3C003E
78007C
7801F8
7FFFE0
7FFF00
7FFFE0
F807F0
F800F8
F80078
78003C
78003C
780078
7C0078
3E00F8
3F01F0
1FFFE0
0FFFC0
03FF80
ENDCHAR
STARTCHAR 0433
ENCODING 1075
SWIDTH 440 0
DWIDTH 22 0
BBX 20 27 1 0
BITMAP
00FF80
07FFC0
0FFFE0
0783F0
0400F0
0000F0
0000F0
0000F0
0001F0
0003E0
000FC0
003F80
00FF00
07FC00
0FE000
3F8000
3E0000
7C0000
780000
F00000
F00000
F00000
F80080
7C0780
7FFF80
3FFF80
0FFE00
ENDCHAR
STARTCHAR 0434
ENCODING 1076
SWIDTH 560 0
DWIDTH 28 0
BBX 24 38 2 1
BITMAP
00FFE0
01FFF0
00FFF8
00C0FC
00007C
00003E
00001E
00001E
00001F
00000F
00000F
00000F
001E0F
00FF8F
03FFCF
07FFEF
0FC0FF
0F807F
1F003F
1E001F
3C001F
3C001F
7C001E
78001E
78001E
78003E
78003C
F8003C
F8007C
F80078
7800F8
7800F0
7801F0
7C03E0
3E0FC0
3FFF80
1FFF00
07FC00
ENDCHAR
STARTCHAR 0435
ENCODING 1077
SWIDTH 480 0
DWIDTH 24 0
BBX 21 27 2 0
BITMAP
003FC0
00FFF0
01FFF0
03F0F8
07C078
0F8078
1F0078
1E0078
3E0078
3C00F8
3C03F0
781FE0
7FFFC0
7FFF00
7FF800
780000
F80000
F80000
F80000
780000
780000
7C0000
7C0040
3F01C0
1FFFC0
0FFFC0
07FF00
ENDCHAR
STARTCHAR 0436
ENCODING 1078
SWIDTH 820 0
DWIDTH 41 0
BBX 44 27 -1 0
BITMAP
07F001E00FF0
07F801C03FF0
07FC03C07FE0
007E03C0FE00
001E03C1F800
001F0381E000
000F0383E000
000F0787C000
000F07878000
000F07878000
000F070F8000
000F0F0F0000
000FFFFF0000
000FFFFF0000
000FFFFF0000
000F0E1F0000
001E1E1F0000
001E1E1F0000
003E1E1F0000
003C1E0F0000
007C1C0F0000
00783C0F0000
00F83C0F8000
03F03C07C000
7FE03807FE00
FFC03803FE00
FF007800FE00
ENDCHAR
STARTCHAR 0437
ENCODING 1079
SWIDTH 440 0
DWIDTH 22 0
BBX 21 27 0 0
BITMAP
01FF80
07FFE0
0FFFF0
07C3F0
0400F0
0000F8
000078
0000F0
0000F0
0000F0
0003E0
01FFC0
01FF00
03FF00
03FF80
0007C0
0003E0
0001E0
0001E0
0001E0
0001E0
0003C0
8007C0
E00F80
FFFF80
FFFE00
7FFC00
ENDCHAR
STARTCHAR 0438
ENCODING 1080
SWIDTH 560 0
DWIDTH 28 0
BBX 24 27 3 0
BITMAP
0F000F
0F000F
1E000F
1E000F
1E001E
1E001E
3E001E
3C001E
3C001E
3C003C
3C003C
7C003C
78003C
780078
780078
F80078
F000F8
F000F8
F001F0
F001F0
F003F0
F007F0
F00EF0
F83CE0
7FF8E0
7FF1E0
1FE1E0
ENDCHAR
STARTCHAR 0439
ENCODING 1081
SWIDTH 560 0
DWIDTH 28 0
BBX 25 38 3 0
BITMAP
01E00780
01E00780
01E00F00
01E01F00
00F87E00
00FFFC00
003FF800
000F8000
00000000
00000000
00000000
0F000F00
0F000F00
1E000F00
1E000F00
1E001E00
1E001E00
3E001E00
3C001E00
3C001E00
3C003C00
3C003C00
7C003C00
78003C00
78007800
78007800
F8007800
F000F800
F000F800
F001F000
F001F000
F003F000
F007F000
F00EF000
F83CE000
7FF8E000
7FF1E000
1FE1E000
ENDCHAR
STARTCHAR 043A
ENCODING 1082
SWIDTH 460 0
DWIDTH 23 0
BBX 24 27 2 0
BITMAP
07801F
07803E
07807C
0F00F8
0F01F0
0F03E0
0F07C0
0F0F80
1E1F00
1E3E00
1E7C00
1EF800
3DF000
3FE000
3DE000
3DF000
3CF800
7C7800
787C00
783E00
781F00
781F00
F00F80
F007C0
F007C0
F003E0
F001F0
ENDCHAR
STARTCHAR 043B
ENCODING 1083
SWIDTH 520 0
DWIDTH 26 0
BBX 27 27 -2 0
BITMAP
00007FC0
0001FFE0
0003FFE0
0007F3E0
000F81E0
000F03C0
001F03C0
001E03C0
003E03C0
003C0780
003C0780
00780780
00780780
00780780
00F00F00
00F00F00
00F00F00
01E00F00
01E01F00
03C01E00
03C01E00
07C01E00
0F801E00
1F003C00
FF003C00
FE003C00
F8003C00
ENDCHAR
STARTCHAR 043C
ENCODING 1084
SWIDTH 680 0
DWIDTH 34 0
BBX 31 27 2 0
BITMAP
07C0007E
07E0007E
07E000FE
0FE000FE
0EE001FC
0EE001DC
0EE003FC
0EE007BC
1EF0073C
1EF00F38
1C700E78
1C701E78
1C701C78
3C703C70
3C703870
387078F0
3878F0F0
7838E0F0
7839E0E0
7839C0E0
703BC1E0
703B81E0
F03F81E0
F03F01C0
F01E03C0
E01E03C0
E01C03C0
ENDCHAR
STARTCHAR 043D
ENCODING 1085
SWIDTH 580 0
DWIDTH 29 0
BBX 26 27 2 0
BITMAP
078003C0
078003C0
078003C0
0F0003C0
0F000780
0F000780
0F000780
0F000780
1E000F80
1E000F00
1E000F00
1FFFFF00
3FFFFF00
3FFFFF00
3FFFFE00
3C001E00
3C001E00
7C001E00
78003C00
78003C00
78003C00
78003C00
F0003C00
F0007800
F0007800
F0007800
F0007800
ENDCHAR
STARTCHAR 043E
ENCODING 1086
SWIDTH 560 0
DWIDTH 28 0
BBX 24 27 2 0
BITMAP
003FC0
00FFF0
03FFF8
07F0FC
07C03C
0F803E
1F001E
1E001F
3C000F
3C000F
7C000F
78000F
78001F
78001F
78001E
F8001E
F8001E
F8003E
F8003C
78007C
780078
7C00F8
3C01F0
3F07E0
1FFFC0
0FFF80
03FE00
ENDCHAR
STARTCHAR 043F
ENCODING 1087
SWIDTH 560 0
DWIDTH 28 0
BBX 25 27 1 0
BITMAP
03C3FC00
0387FE00
079FFF00
07BF1F80
07B80F80
07F00780
07E00780
0FC00780
0FC00780
0F800F80
0F800F80
0F000F00
1F000F00
1F000F00
1E001F00
1E001F00
3E001E00
3E001E00
3C001E00
3C003E00
3C003C00
7C003C00
7C003C00
78007C00
78007C00
78007800
F8007800
ENDCHAR
STARTCHAR 0440
ENCODING 1088
SWIDTH 560 0
DWIDTH 28 0
BBX 27 39 -1 -12
BITMAP
00E07E00
00E1FF80
00E3FFC0
01E787C0
01EE03E0
01FC01E0
01F801E0
01F001E0
03E001E0
03E001E0
03C001E0
03C001E0
07C001E0
078001E0
078001E0
078003E0
078003C0
0F8003C0
0F8007C0
0F800780
0F800F80
0F801F00
1FC03E00
1EE07E00
1EFFFC00
1E7FF800
1E3FE000
3C000000
3C000000
3C000000
3C000000
7C000000
78000000
78000000
78000000
78000000
F0000000
F0000000
F0000000
ENDCHAR
STARTCHAR 0441
ENCODING 1089
SWIDTH 440 0
DWIDTH 22 0
BBX 21 27 2 0
BITMAP
003FF0
00FFF8
01FFF8
03F070
07C000
0F8000
1F0000
1E0000
3E0000
3C0000
7C0000
780000
780000
780000
780000
F80000
F80000
F80000
F80000
780000
780000
7C0000
7C0000
3F0180
1FFF80
0FFF80
07FF00
ENDCHAR
STARTCHAR 0442
ENCODING 1090
SWIDTH 860 0
DWIDTH 43 0
BBX 39 27 2 0
BITMAP
0707F007F0
070FF81FF8
073FFC3FFC
0F3C7C787C
0F703EE03E
0FE01FC01E
0FC01F801E
0F801F801E
1F001F001E
1F001E003C
1E001E003C
1E003E003C
3E003C003C
3C003C003C
3C003C0078
3C007C0078
3C00780078
7C00780078
78007800F8
78007800F0
7800F000F0
7800F000F0
F000F000F0
F000F001F0
F000F001E0
F001E001E0
F001E001E0
ENDCHAR
STARTCHAR 0443
ENCODING 1091
SWIDTH 460 0
DWIDTH 23 0
BBX 30 39 -5 -12
BITMAP
01F0003C
00F0007C
00F00078
00F000F8
00F000F0
00F001F0
00F001E0
00F003C0
007803C0
00780780
00780780
00780F00
00780F00
00781E00
00383E00
003C3C00
003C7C00
003C7800
003CF000
003CF000
003CE000
001DE000
001DC000
001FC000
001F8000
001F8000
001F0000
001F0000
001E0000
003C0000
003C0000
00780000
00F80000
00F00000
01F00000
8FE00000
FFC00000
FF800000
FE000000
ENDCHAR
STARTCHAR 0444
ENCODING 1092
SWIDTH 660 0
DWIDTH 33 0
BBX 29 50 2 -12
BITMAP
00003C00
00003800
00007800
00007800
00007800
00007800
00007000
0000F000
0000F000
0000F000
0000E000
001FFC00
007FFF00
01FFFFC0
03F9EFE0
07C1C3E0
0F83C1F0
1F03C0F0
3E03C0F0
3C03C0F8
3C038078
78078078
78078078
78078078
78078078
F80700F8
F80F00F0
F80F00F0
F80F01F0
780E01E0
781E03E0
781E03C0
7C1E07C0
3E1E1F80
1F9C7F00
1FFFFE00
07FFF800
03FFE000
003C0000
00380000
00780000
00780000
00780000
00700000
00F00000
00F00000
00F00000
00F00000
00E00000
01E00000
ENDCHAR
STARTCHAR 0445
ENCODING 1093
SWIDTH 480 0
DWIDTH 24 0
BBX 26 27 -1 0
BITMAP
078007C0
03C00780
03C00F00
03E01F00
01E03E00
01E07C00
00F0F800
00F0F000
0079E000
007BC000
003FC000
003F8000
003F0000
001E0000
003F0000
007F0000
00F78000
01F78000
03E78000
07C3C000
0783C000
0F01E000
1F01E000
3E00F000
7C00F000
F800F800
F0007800
ENDCHAR
STARTCHAR 0446
ENCODING 1094
SWIDTH 580 0
DWIDTH 29 0
BBX 24 36 3 -9
BITMAP
0F000F
0F000F
1E000F
1E000F
1E001E
1E001E
3E001E
3C001E
3C001E
3C003C
3C003C
7C003C
78003C
78007C
780078
F80078
F000F8
F000F8
F001F0
F001F0
F003F0
F007F0
F00EF0
F83CF0
7FFCFF
7FF0FE
3FE07E
00001E
00001E
00003C
00003C
00003C
00003C
00007C
000078
000078
ENDCHAR
STARTCHAR 0447
ENCODING 1095
SWIDTH 540 0
DWIDTH 27 0
BBX 22 27 4 0
BITMAP
3C003C
3C003C
78003C
78007C
780078
780078
F80078
F000F8
F000F0
F001F0
F001F0
F003F0
F007F0
F81FE0
7FFDE0
7FF9E0
3FF1E0
0F83E0
0003C0
0003C0
0003C0
0003C0
000780
000780
000780
000780
000780
ENDCHAR
STARTCHAR 0448
ENCODING 1096
SWIDTH 860 0
DWIDTH 43 0
BBX 39 27 3 0
BITMAP
0F001E001E
1F001E001E
1E001E001E
1E001E003C
1E001E003C
1E003C003C
3E003C003C
3C003C007C
3C003C0078
3C007C0078
3C00780078
7800780078
78007800F0
78007800F0
7800F000F0
F800F000F0
F000F001F0
F001F001E0
F001F003E0
F003F003E0
F007E007E0
F006F00FE0
F01EF01DC0
F83CF87BC0
FFF8FFF3C0
7FF07FE3C0
3FC03FC380
ENDCHAR
STARTCHAR 0449
ENCODING 1097
SWIDTH 880 0
DWIDTH 44 0
BBX 39 36 3 -9
BITMAP
0F001E001E
1F001E001E
1E001E001E
1E001E003C
1E001E003C
1E003C003C
3E003C003C
3C003C007C
3C003C0078
3C007C0078
3C00780078
7800780078
78007800F8
78007800F0
7800F000F0
F800F000F0
F000F001F0
F001F001E0
F001F003E0
F003F003E0
F007E007E0
F006F00FE0
F01EF01DE0
F83CF879E0
FFF8FFF1FC
7FF07FE1FC
3FC03FC0FC
000000003C
0000000078
0000000078
0000000078
0000000078
00000000F8
00000000F0
00000000F0
00000000F0
ENDCHAR
STARTCHAR 044A
ENCODING 1098
SWIDTH 580 0
DWIDTH 29 0
BBX 25 27 2 0
BITMAP
7FF80000
7FF80000
FFF80000
FFF80000
00F00000
00F00000
00F00000
00F00000
00F00000
01E00000
01E00000
01E3C000
01FFFC00
03FFFE00
03FFFF00
03C01F00
03C00F00
03C00F80
03C00780
03C00780
03C00F00
03C00F00
03C01F00
03E03E00
01FFFC00
00FFF800
007FF000
ENDCHAR
STARTCHAR 044B
ENCODING 1099
SWIDTH 700 0
DWIDTH 35 0
BBX 31 27 3 0
BITMAP
0F00001E
1F00001E
1E00001E
1E00001E
1E00003E
1E00003C
3E00003C
3C00003C
3C00003C
3C00007C
3C000078
78F80078
7FFF0078
7FFF8078
7FFFC0F0
7803E0F0
F003E0F0
F001E0F0
F001E0F0
F001E1E0
F001E1E0
F003E1E0
F803C1E0
7C0FC3E0
7FFF83C0
3FFF03C0
0FFC03C0
ENDCHAR
STARTCHAR 044C
ENCODING 1100
SWIDTH 500 0
DWIDTH 25 0
BBX 20 27 3 0
BITMAP
0F0000
0F0000
1E0000
1E0000
1E0000
1E0000
3E0000
3C0000
3C0000
3C0000
3C0000
787800
7FFF80
7FFFC0
7FFFE0
7803E0
F001F0
F000F0
F000F0
F000F0
F000F0
F001E0
F803E0
7C07C0
7FFF80
3FFF00
0FFC00
ENDCHAR
STARTCHAR 044D
ENCODING 1101
SWIDTH 440 0
DWIDTH 22 0
BBX 20 27 0 0
BITMAP
03FE00
1FFF80
1FFFC0
0F0FE0
0803E0
0001F0
0000F0
0000F0
0000F0
0000F0
0000F0
0000F0
07FFF0
0FFFF0
0FFFF0
0000F0
0000F0
0001F0
0001E0
0003E0
0003C0
0007C0
000F80
E03F00
FFFE00
FFFC00
7FF000
ENDCHAR
STARTCHAR 044E
ENCODING 1102
SWIDTH 780 0
DWIDTH 39 0
BBX 35 27 2 0
BITMAP
078003F800
07800FFE00
07803FFF00
0F007E3F80
0F00F807C0
0F00F007C0
0F01F003C0
0F03E003E0
1E03C001E0
1E03C001E0
1E07C001E0
1FFF8001E0
3FFF8003E0
3FFF8003E0
3FFF8003C0
3C0F8003C0
3C0F8003C0
7C0F8007C0
780F800780
7807800F80
7807800F00
7807801F00
F003C03E00
F003F07C00
F001FFF800
F000FFF000
F0007FC000
ENDCHAR
STARTCHAR 044F
ENCODING 1103
SWIDTH 520 0
DWIDTH 26 0
BBX 26 27 -1 0
BITMAP
0007FFC0
003FFF80
00FFFF80
01FFFF80
03F00780
03C00780
07C00F00
07800F00
07800F00
07800F00
07C00F00
03C01E00
03F01E00
01FFFE00
007FFE00
007FFE00
01F83C00
01E03C00
03C03C00
07C03C00
07807800
0F807800
0F007800
1F007800
FE007800
FC00F000
F800F000
ENDCHAR
STARTCHAR 0450
ENCODING 1104
SWIDTH 480 0
DWIDTH 24 0
BBX 21 38 2 0
BITMAP
007C00
003C00
001E00
001E00
000F00
000700
000380
000380
000000
000000
000000
003FC0
00FFF0
01FFF0
03F0F8
07C078
0F8078
1F0078
1E0078
3E0078
3C00F8
3C03F0
781FE0
7FFFC0
7FFF00
7FF800
780000
F80000
F80000
F80000
780000
780000
7C0000
7C0040
3F01C0
1FFFC0
0FFFC0
07FF00
ENDCHAR
STARTCHAR 0451
ENCODING 1105
SWIDTH 480 0
DWIDTH 24 0
BBX 22 36 2 0
BITMAP
007038
00F87C
00F87C
007038
000000
000000
000000
000000
000000
003FC0
00FFF0
01FFF0
03F0F8
07C078
0F8078
1F0078
1E0078
3E0078
3C00F8
3C03F0
781FE0
7FFFC0
7FFF00
7FF800
780000
F80000
F80000
F80000
780000
780000
7C0000
7C0040
3F01C0
1FFFC0
0FFFC0
07FF00
ENDCHAR
STARTCHAR 0452
ENCODING 1106
SWIDTH 560 0
DWIDTH 28 0
BBX 24 50 2 -12
BITMAP
01E000
01E000
01E000
01E000
01E000
1FFFE0
3FFFE0
3FFFE0
03C000
07C000
078000
078000
0787F8
079FFC
0F3FFE
0F7C3E
0FF01F
0FE00F
0FC00F
1F800F
1F000F
1F001E
1E001E
3E001E
3C001E
3C001E
3C003C
3C003C
7C003C
78003C
78007C
780078
780078
F00078
F00078
F000F0
F000F0
F000F0
0000F0
0000F0
0001E0
0001E0
0001E0
0001E0
0003C0
0007C0
00DFC0
00FF80
00FF00
00FC00
ENDCHAR
STARTCHAR 0453
ENCODING 1107
SWIDTH 440 0
DWIDTH 22 0
BBX 23 38 1 0
BITMAP
00001E
00003E
00007C
0000F8
0000F0
0001E0
000380
000700
000000
000000
000000
00FF80
07FFC0
0FFFE0
0783F0
0400F0
0000F0
0000F0
0000F0
0001F0
0003E0
000FC0
003F80
00FF00
07FC00
0FE000
3F8000
3E0000
7C0000
780000
F00000
F00000
F00000
F80080
7C0780
7FFF80
3FFF80
0FFE00
ENDCHAR
ENDFONT
